<mxfile host="app.diagrams.net" modified="2023-08-09T13:47:12.790Z" agent="Mozilla/5.0 (Windows NT 10.0; Win64; x64) AppleWebKit/537.36 (KHTML, like Gecko) Chrome/115.0.0.0 Safari/537.36" etag="UvHoGu7l0WD_VUrC0EzC" version="21.6.7" type="device">
  <diagram name="PÃ¡gina-1" id="yUwu_01zKRenPwacRyFX">
    <mxGraphModel dx="1167" dy="681" grid="1" gridSize="10" guides="1" tooltips="1" connect="1" arrows="1" fold="1" page="1" pageScale="1" pageWidth="827" pageHeight="1169" math="0" shadow="0">
      <root>
        <mxCell id="0" />
        <mxCell id="1" parent="0" />
        <mxCell id="XbuNJkuJVUiQV9hjVVE--1" value="" style="shape=image;verticalLabelPosition=bottom;labelBackgroundColor=default;verticalAlign=top;aspect=fixed;imageAspect=0;image=data:image/png,iVBORw0KGgoAAAANSUhEUgAAAvoAAAF+CAYAAADz1r6GAAAAAXNSR0IArs4c6QAAAARnQU1BAACxjwv8YQUAAAAJcEhZcwAADsMAAA7DAcdvqGQAAO7GSURBVHhe7J0H3NXTH8dP9ibJjJSSWUgiEdmKkIxkZO9sZWVlr8xEolRGRjL/diSyI6Mys5NN9vmf9/f+zuP3/Lr3Pvd5Knpun/frdeu5v3F+53zP+pzvOb9z6/iAE0IIIYQQQpQVcyX/CyGEEEIIIcoICX0hhBBCCCHKEAl9IYQQQgghyhAJfSGEEEIIIcoQCX0hhBBCCCHKEAl9IYQQQgghyhAJfSGEEEIIIcoQCX0hhBBCCCHKEAl9IYQQQgghypBaK/R//vlnN3bsWPfQQw+5Z5991n3zzTfJmcrcddddbq+99nL77befe/TRR51+CLg8mDZtmttll13cUkst5ZZZZhl37bXXJmeEEEIIIQTUOqH/9ddfu7PPPtutvPLKrnXr1m777bd3m2yyiatfv77r0qWLe+eddyrE/N9//+169+7thg4d6m655RbXp08f99tvv9m56sLA4osvvnBTpkxxf/31V3K0/MF+q622mmvWrJk78sgj3e+//56c+Qds2r17d7tm9dVXd6eccor7448/krP/QH4cddRRdl3z5s3dY489lpypPn/++aebOHGimzp1qvvqq6/cZ599lpwRQgghhBBQq4Q+XvvOnTu7M8880wR/GkTk8OHDzXv/008/JUfdTBHlCNk99tjDrb/++va58847kzPlz+TJk927777rJkyY4O67775Kto289tpr7rbbbrNrGGgNGTLE/fjjj8nZf0CMM+jiujfffLPGgy4hhBBCCFE1tUboI9gvvfRSN2rUKPPYzz///K5bt27u+uuvd3379nW77babLeNAiEZxP9dcc7mePXvaEo/dd9/dnXzyyXZfdSG89957z3366afu448/tv/nFBjYRPCeT5o0KfmWg7x48MEH3a+//poccTbrgeDPMnr0aPfdd9/Z3yy3WW+99exvIYQQQggx86k1Qh/vL+vxIx06dHCDBg1yBx98sC0HwaOMZ7lXr15ukUUWSa5ybp999jFP/7Bhw9x2223n6tSpk5wRpdCqVasKm/3yyy8m1tMg8Hn3IQ3r5x9//PHkWw5mXO6//377HzbYYAO37LLL2t9CCCGEEGLmU2uEPmu+f/jhh+Sbc0svvXSFAOV/PiussIK9dDvPPPPYcUDgI/b333//SkITT/Trr79ux9daay23/PLLuxVXXNGE7fHHH2/P4torrrjC1p+nvfgsP9lzzz3d3nvv7V5++eXkaA48/6xlb9mypWvQoIF91llnHXfggQe68ePHJ1f9A+8OEA7PZGkSLxgzA9GoUSO7d7PNNnN33323xQUbXHPNNW7jjTe2tK6yyip2LenIwlp6lhix5KhFixYWFmlkDf1OO+1UadBUjCZNmtj7EJEHHnig0vp7llCxVj4Ly3wQ/BHsGW1FXm255ZYV+Qfkx9tvv+0OP/xws1e03brrruuOOOII98EHHyRXFubpp592nTp1co0bNzb7kJcXXHCBlggJIYQQYs4kCKxaQRCKPohU3rK1T8OGDf2rr77qg+hMrsjPDjvsUHHPvvvu6//88087/u677/og7CvOpT/zzz+/f+aZZ/wvv/zig0jOe038XHbZZRZeEOI+CFm/0kor5b2OTxDM/o033rBrIzF+Cy64oIW18MILT3ff3HPP7cOAxYcBhJ9rrrmmOx+Erf/oo4+SEL0PIt9369ZtuuvSn4UWWsg/+OCDleJSiIMPPrjiviWXXNKHQU9yxpudsBfnllhiCYtrDH/ChAnJVTl7L7bYYnZugQUW8M8991xyJme7V155xQdhX/Gc7GeZZZaxayKUhzBAqzi/wQYb2DPT9/AJgwl/7LHH+iD2kzuFEEIIIeYMao1HP4hD87xHgrA1bzceebzoIS3JmaphzT1LfHjRFPDkn3baaXYsLlXhmvnmm8+84UHA2nr/SBDldoydfthBBnj59KCDDrI1/BAGIu700093J554oq1Hhw8//NC893GdehqWwJx66qm2uw/PSs9KEBeWKOHNx7M/77zzVvKGv//++65fv34VsxWE9eKLL9rfxJPZhIsuusg843FZE8tweGchPUtSiJ133tmeCd9++20lD34YbFV4+Jk5ictxCD8MauxvII+ihz8MFirNEnzyySc2M8H/QH5gC2yHjeHLL7+0Y4VgJoRnQowrUC6uuuoq9+STTyZHhBBCCCHmEEzu1xKCeM3rMQ/i1bzOr7/+enLlP+Tz6AexWuHND2LeP/roo8nVOe8yMwXff/99csT7IL4rzSZccsklyZl/GDJkiA8C087Xq1fPPPeRMWPG+EUXXdTO4f0eNWpUcqZy/PCGd+nSxQdR7MNgwHfq1KniHB/Sidef+BBHZgjiuS222MIHgW9h4r3u2bOnv/LKK30YgNixSP/+/Su87njYJ02alJwpzGeffeaXW265imf17dvXjmMr4ssxvPSka9NNN624Lgyc7Do499xzzbvO8Q4dOlTysF9++eUV9zRt2tQHwW/HCf+JJ56wdHMOG44fP97OZT36hB1tFwYUlva0hz8Mcuw+IYQQQog5hVrj0Qd2gHn44YdtfX4adtoJAtb20w/CMDlamLTHnLXsrOOOXnY85awRDyLYvpcCnnTW2kfPNlt8pmcf1l57bVs3Dlzz1ltv2d9Z2rVrZy8Yc+3iiy/ujj766IqZBP4PIt8de+yxLghYiyPr0SOs74+7DTETcf7559tLyukXk4E179HjzV700QteDGYF0h54XnoGbPbCCy/Y36z/J3/SO+mk31945plnzLuOfdkilThG0t72bbfd1oVBhf3NtdgE+wGzJs8995z9nQVb8D4GtmP2h9mV9I5B+d5jEEIIIYQoZ2qV0AdeJuWlVpZjrLnmmpWWsLAMZdddd3UvvfRSciQ/iF/EeBTR7BDDj0Lxgu0jjzxSIZhLheemxTvid9999634HHLIIe7zzz+3cwwK2KYyHyxZSS87YUATtwNFGCPS06QHPMQZIZ2GZUBsfckPhfGSK8uczjrrrEov02bvyQdxYElTZNy4cZYO9sKPP1SFGGdJ0+abb16RJ+QTgwGW3cRlPHXr1nVbbLGF/Q2Ew9KjCLv68PJztB1/s0wrUmhrU8rC3HPPnXzLLd+hrESIgxBCCCHEnEStE/rAfvnsbMP68CuvvNJ2Z4mwhpxdcYqBwGd9+g477FDhWUYIskUnHmXWw+f7wadCsPYcUR1B6OOZjx9+QIpfbwVEcFrMF4NZhzgYyUd6HX8axDMedDzabEPK+wfXXXedGzhwoO08VN2BDHFo3759hYBnBxzW0/ObBswKQByEMCCIAxDSzLsCDAj4VWHgnYaVVlrJ/gbeJ0j/CNcrr7xSyXZ80r96i7e+FIhzvXr1km+5mRshhBBCiDmJWin0IwhmBP8999xjS10iiMWqwKuPAB85cqRr27ZtJUF98803mxe8FG83cG/0JiOG2dLy4osvzvthJoIXcmcliHBmLOKPVrHspkePHrZEiaU/pQ400rRu3bpCwDOYQuTzAmyE7USBF4/j38wckDcMOhh8AOGkIS5pTzxLcPLZjQ/Ls1iSUwrkXXoAkV4qJIQQQggxJ1CrhX6E/eTj7ixQyNOdZeGFF3Zbb721CVHWifMjToAoZRCAoI2klwhFL3aEcFiSAgjMpk2buhNOOCHvh51vZvUPRbGHfXoHG9LH7wEwi8GvCZdqnzSI/Lh8hzSytz/73gPpX2ONNexvBj3shhTt9dRTT9nzI/mEPu8ARFhuc9xxx+W1HSKfHXvywX7+6ZkKBhkTJkxIvuUGIEIIIYQQcxK1RuizjhvPO8tisp52tm5ML++IL28WAkHIWvD0WvVNN93UPN7R88tSnPhDS3ic015n1uNHDzUwO5Bew37rrbfay7H/Fe+++26FjfjBK16UjaRf2q0OCHjW1kcBzw9uxR+xYn08P1AVwRZx1gCxPWbMGPubZTfpl3Uj6bX0vC/Bcp7qcuONN9pMTEw3W4DG50L65WghhBBCiDmBWiP0p0yZYi/ZsrMOO86wcwu/grv99tu7bbbZpmL3GHak4YXcYrBenPX5G264obvwwgtNXPIrsmeccUbFWu5VV121wtOM+E+L5eHDh9szWGbC0h9gh5tFF13U/kYA77bbbib4+bVWdgrq27ev69Kli9too40q1uvPKnixOAry559/3vbQJ429e/e2JT01Xa+OgI8vByPG48wG7wHE48DON3HXIgYVcf/85s2bV1qfH+GXemN8WXZF3mI7lgcxoGC3IfbZ57pC8BzyYLvttjM7Myj5/vvv7RyDFPJbCCGEEGKOwtcSJk6caL+OSpQLfdg3/bTTTrNfho3k20c/CH2/9NJLV7o3/WF/+UceeSQJIQf7sgfBON21l156qZ3nmYcccoifZ555prsm/WGP/cmTJ9s9kC9+kbfffrvil3LZp57fEUgTBikV9wYR7X/66Sc7zq/krrDCChXn0h9sFAYwFX/n++2BQvCLuMsuu2yl8IjX6NGjkytyhEGXb9u2baXrgpD3559/fnJFZdj/f++9967SdmussUZyR+V99Oedd17fpEmT6a7nQ57tscceFb8xIIQQQggxp1BrPPp4iW+//XbXpk2bSuvlIyzN4Dxe6/TLpryIyrIblo2wlp972bXn8ssvz7tuG48zS0DSW0ACnvCOHTtWejaefrznwDOD6HdXX311wXXkHMfrnH6fIF/8InjFWWOPR5q4pneRAWYZmMHgfn6JNy4vYheiAQMGVNqNCLiedw923313u5YZi+w++8VgnT5bhUZvPWlmhiW7VIq0HH/88fYuAunhWezKw/al+WA2gF2BeOGWvMkHcT3ggAOSb7n3MGKaWTZ0xx13WNywVYS/+VXg66+/vtKMgxBCCCHEnEAd1H7yd62AJRrsJsOWjbwsi+hkjTfLQqLQLRW20GT7xw8//NC+N2rUyF7I5eXSfLAun6UwvISKiETgsuY8LS6BZUQsM2IJD+v82REIUUocEeb/Fuzvz/IXlioxSOAl2fjS8OxKzJPJkydX2I58adGiRZVinbJBueDHsRhgsPtPfElYCCGEEGJOo9YJfSGEEEIIIUTV1Aqhzwuv8aVXIWYEtjdldkAIIYQQotypFUL/zDPPdGeddVbyTYiaw28MaAceIYQQQswJ1Aqh//nnn9tHiBmFF57Tv6IshBBCCFGuaI2+EEIIIYQQZUit2V5TCCGEEEIIUToS+kIIIYQQQpQhEvpCCCGEEEKUIRL6QgghhBBClCES+kIIIYQQQpQhEvpCCCGEEEKUIRL6QgghhBBClCES+kIIIYQQQpQhEvpCCCGEEEKUIRL6QgghhBBClCES+kIIIYQQQpQhEvpCCCGEEEKUIRL6QgghhBBClCES+kIIIYQQQpQhEvpCCCGEEEKUIRL6QgghhBBClCES+kIIIYQQQpQhEvpCCCGEEEKUIRL6QgghhBBClCES+kIIIYQQQpQhEvpCCCGEEEKUIXV8IPlbpJk2zblx44KF6jjXvLlzCyyQnBCVoPh8+GHu06yZc8svn5wQQgghhBD/JbXHo4+g/Pbbf0Qln08+ce7773PnZibjxzu35prObbhh7vPEE859/LFzJ5/s3OWXO/f778mFM4FddnGuXj3n7rwzOVDLeP995zbayLkddnBu1KjkYBF+/tm5iy/O2fK995KDQgghhBBiZlN7hD7iev/9nVt//dynVavc/y1bOtezp3O//ZZcOBNAzH/wgXMrrujckUc6t8wyzj34oHOXXOLcGWc499FHyYUzAQYrDGC+/jo5UMvAJl9+mcuD3XZLDhbhjTecO+kk5y66yLlbb535gzQhhBBCCGHUHqH/99/Offqpc1OnOrfIIs61bu1cw4Y5Tzti87DDnPv11+TiGYABxcsv5/4+6CDnrrwyN5jAs9+li3MHHODcCivkzs/pIPB//DEn3I85JpSmEopT48bOHXigc3vs4dx22+WWRgkhhBBCiJlO7XwZd+utnbv/fudGj3auW7fcIOCWW5x7++3cebzEf/zh3HPPOXfzzc4980xOwEfvMf//9Zdzf/6ZuxcP/R135EQra/P5wMIL567h+hYtch7oSy91bsEFc+c5zlKUESOcGzQot5yI8OJzsnAc7/1ttzn31FO5sPPBdcT/6aedGzjQuRdfLHwtcH06PRH+5hjnIlz7xRfODRuWS/OUKf/EN18YnOMYn3hdPIbQJy8YCP3yS+XzMSz+js/jWfXrO3fddc4NHpyblYlwHWl+9lnnBgxw7vHHK+cZZMMVQgghhBCF4WXcWsEvv3jfqhXyzvuDDkoOBgYOzB3j8+ij3v/9t/cjRnjfrNk/x/k0aeL9yJG589Omeb/JJt4vsYT3PXt6v8giuWuOO877evW8r1Mn932eebxffHHvx471/vHHva9b1/u11vL+xx9zz7788tz5+AyuP+ss7//6K3c+S58+3i+0UO7auebyfv31vV922dzzrr02uSgwbJj3DRv+Ey4fnvvCC8kFGb791vs11vB+4YW9v/325GDg0ktzx3bdNff911+9P+QQ7+ef/59wic999+XOH3po7vvxx+e+A+nGPg0aeP/xx7ljgwZ537jxP3biw3OOOCKXT7//7n2XLt4vtpj3553n/XLL5a455RTvJ0/OhbXoot7fe28uvD/+8P7KK3PHY3h8yIsLLvD+zz9z133wgfeNGuXyYfDg3DEhhBBCCJGX2unRj+B5njQp9/fcczu35JK5te7HH587vuOOzl1zjXObb557afSUU3Jee2Tkd9/lPrwYutRSzrVt69zqqzvXvn3Okw/sIrPVVrmXZVkW9NNPuXvwKrO2vk+f3MvAhxziXL9+zu20U+GlKG+9lVuXjueb5Ssbb+zcxIk5b3caliedcEIu/K5dnbv66pzH/M03c8uGeH4W4sNxZhcIP0J8+f7DD7nvvCx7ww25v3nX4IornGvTJnc/YBuu5/9ITDfpxOMOzJTMO69zxx6bSzcvFDMLwuwDaYr25bmnn56zyaabOteoUS6Mb77JPYNw4dFHc2FhC5ZH4dHv2DG3TIv7OU+YpC++0/DZZ7l7hRBCCCFEXmqn0GfJCDvhsIyGZSCAcEaoIwp5kZa/Wc5z+OHODR3q3LLL5o6zvCYN4pMlMiyl6d7duZtu+mcNPmv02Q0HYZ4lCmtELIMBxD5Lclivnk/sI4IRy3XrOjdypHNPPuncI4/klrKk6d8/J/YZZCDyjzgit8SG+xiszMiLwJ9/nhsczTdfTpz36JF7ybhDh+SCEjn3XOeefz73bgTpvvHGnH0R8TwjDYOmu+/OpRf75oP0MdhgQMaSHl66JswGDXJhcp54r7qqcw89lFsGRN4IIYQQQoiC1E6hf999zm2xRU5U4zXmb9bis3Z+zJicaMQbjMhnDT8viuI9Zs0368TTsMYcYc+MAJ9SYYCANxxPM8/o1Ckn4BH5WaHPc9ltBhiAMHDgWbxQvPLKuePAdS+8kPubgQQ7/hD2qafmzrE2ncFCTWHWgnjjTUdUM0PA8+aZJ7mgRBDvY8fmBD+Cm3jGWQPimIY0rrNO7kXdQvZ9993c/9hz/vlzfy+9dG4mA3jhmnCZRSCveZGXgY8QQgghhChI7RT6667rXK9ezvXt69w77zj32GM5AQtxactXX+Vekr3nnpwARyiyTSZe4jSIx3we+KpA7OJZ3mabnNeZwcfOOzt35pmVX2YFBgNxSQ33FdqdhvuYJQBmLe69Nxd/wiYMvP+koRhcVwgGGHjwGWxgJ2YvNtvMubvuqnxfsTA4x7If0t27d27WhHjGeGdh9qCq3XhY9kMexJecge+LLpr7Oy4tEkIIIYQQJVM7hT775593nnNHH+3cKqskBxOi4Oca1usjQOMHzzBLYmYWCG+E8yuvOLf33jlByzKVuPY8gsc8LtFh+VA8jxc87aFn0BGFPPFn9iEdf9an54s/ojh6y+P6esQxy3yyon211Zx77bXcUhq87VzHun1mDKIgZw18JLsWnjgzwCFNLDPiWmZP2Oq0pvAOBPFkfX8E8c97DbDccv+kj+Pp+AkhhBBCiLzUTqFfDF6mxTPMy6tswcmacV7yxPPP+v34QumMgig97bTc/ywz2XLLnBjNevOB43jAEdK8I8DLpmwNyq/JTpiQXBTgOl4g5v9x43Lr0fHskwbSw8wEgjwLswS8UAyIcLbj5CVWljOleeCB3Au4vAPQtKlzG2yQOx4HA6QDsNPw4bnZBNKYhh8m4wVdBhf8ngHCn3cTmEGpKQxqgPTxoi9pZhbj9ddztth++9z/DHSYlSCerNsXQgghhBAFKT+hj5eal2PxgO+1V26dNx9E7VFHzZwf1QKWvvAyKj+kRfiHHpobRLDmf6GFkotSsIMOa9VZQnTyybk18uzvn52R2H333Dp0PNesz19vvVz4PCe+a5CFde38Ki3im5dkWet+wQU5AZ1efz95cm5HImzBuWuvzQ0+uJclNnEwwiwD8dh119wAYvHFkwACfGfpFGllfT5xO/jg3P01hft5T4LBAnEgTF7cZdCEDdiJh7SxWw/XYMO0918IIYQQQkzH3GcGkr9nbxB6CD+EMV7vJk2SExlY/oIHmK02Ea0LLJDzACNsEaaIbbzDhEdY7DjD/3yH+Bx2eOFc3IGH43zatct92GWGZTYMHBDaXM/Lvz175p6ZBSGMAGdpDWvP+QEulh/xEi8vlvIrsTwLYc5gAW85fxM2z+FeXnrlvrjEJs3aa+eu5xwv+LJdJXEhrQwqEOd4w4kbIp1ZAI6x3h4xHe8jHQwyeCZ2ZmejxRbL2Y9ZC2ZLGHTEpT4s2eFlYbYWZYnNttvmluLwXN6HIC+IW7Qvx5lBYADDFposaSL9nTvnwuPDQIl7+LVjwo4DJ+zGtcSbgYBeyBVCCCGEKEgdNtNP/hZCCCGEEEKUCbVD6LOrCzvoCJHmssvk1RdCCCGEKEDtEPr8eBIvsAqRhhd2sz84JoQQQgghDC3dEUIIIYQQogyZK/lfCCGEEEIIUUZI6AshhBBCCFGGSOgLIYQQQghRhkjoCyGEEEIIUYZI6AshhBBCCFGGSOgLIYQQQghRhkjoCyGEEEIIUYZI6AshhBBCCFGGSOgLIYQQQghRhkjoCyGEEEIIUYZI6AshhBBCCFGGSOgLIYQQQghRhkjoCyGEEEIIUYZI6AshhBBCCFGGSOgLIYQQQghRhkjoCyGEEEIIUYZI6AshhBBCCFGGSOiLssV773744Qf3999/J0eEEEIIIeYcJPRFWfLTTz+5vfbay7Vq1cp9+umnyVEhhBBCiDkHCX1Rdvz+++/u+OOPd+PGjXP33nuva9CgQXJGCCGEEGLOQUK/Bnz99dfu5ptvdp999llyRESmTZvmhgwZ4saPH58c+fd5//333UILLeTuuecet/rqq7s6deokZ2ofjz76qBs5cmTyTcxOfPTRR27QoEHJt9rNV1995QYMGOA+//zz5IgQQohyoNYJfdZd//nnn27w4MGuT58+7pdffknO1IxXX33VHX300eb5LZVJkya5Qw891L388svJkZrz+OOPu0UWWcQNHTo0OVIazz77rFtyySXd8OHDkyPFYZ36H3/8YfablXz77bfuqKOOMpH9XzF58mQrI19++WVypHZCXl100UXujDPOSI7MGIcffrhbccUV3SeffJIcqZrffvvN7bTTTq5ly5Y2U1IVsX7+9ddfyZGZQ6Hye/HFF7vFF1/cvf7668mRf4/nnnvObFoOvPPOO+6QQw5xb731VnJECCFEOVDrhP4rr7zittpqK9e9e3d3/fXXu59//jk5U30QD2effba75pprXK9evWZ40FAT5pprLrfyyiu7+eabLzlSOg0bNnTzzDNP8q04Dz30kK1XZ5BSziAwe/fu7a699lp30kknuV9//TU5IxZbbDET+tWZ4UBYL7HEEm7ZZZct6aVm7N2pUydbOjUzYUC74YYb2iAuzYILLmj1h3okhBBCiMrUmt4RwYGXeJtttjGhss466yRnas67775rnnEE4ccff2zLJPLBs9m9ZcqUKeatLAZiaOrUqXZ9hPt//PFHO571dG6++ebuzTffdLvuumtypDLcx1Kh7HPbtm1rsxF4W9PwEirT8NkBEJ72iRMn2tKaQnBvNo4MfgiP+/MJPdLGNdgG728x8AiTFp5RzI6EyTXEh7+rAwNB0nniiSe61157zb344ovJmekh7O+++84+6efwN+klTXiR80FaOE96Cl2TBftwzzfffFPQ401YhEn5qSrtMby03QmX+yk3WS644ALzQq+wwgrJkX8gP/I9d4EFFrBlag888ID9HaEskA7uSeclz3/vvfemE+RpCD9f/hJnZmHypZ3rCTdbxo488kjz5q+99trJkdKIZRH7lTJTAaSZspKtI1lqUjYIj3D55Ksb2IM6TV0sVC9iXeV8Fq7HroXOFyKWx2w+CyGEqCWEDqBWEDpZ379/f3/bbbf5IFZ9EMZ+xRVX9KHjSq6oHqFj9b179/aNGjXyQVz4IBT8FltsYWGnCZ22P/PMM33jxo19gwYN7LmPPPKIn3/++f19991n17z11lt+22239ePGjfNh0OBXWmkl37RpU3/NNdf40Dn6O++806+66qoW386dO/vQmdt98Pbbb/utttrKhwGHff/111/93nvv7Z988kl/1VVX+SZNmthzd999dx86ersGPvzwQ9+pUycfxL59Dx2y79evn19ttdX88ssvb8/DXqTz2GOP9c2aNfNzzTWXX3fddX0YJPjBgwebTQcMGOAPOeQQHwSxD4Mns8eoUaN8ELr++OOPt/uCMLQ0devWzQexYM+LjBgxwq+xxhp2TcuWLf3999/v69at688555zkihwPPfSQPZu0YIett97a7BUJIsXvv//+PohK37NnT3teu3btfBBWZt/tt9/ewi4Gtt5nn31869at/eeff25xIm0cT3PppZf6U045xfKF9GKzSZMm2bkvvvjCd+3a1Tds2NDiSpqeeeYZOweUjyuuuMJsxXk+W265pf/oo4+SK6YniFN/3nnnVdiJ9IcB63T3fPLJJ3acMInX1VdfbWHzrMh1113nDz74YD927FjLR65t3769D8La8uaAAw6w8Ml/bEn+Rygfu+22mw8C3b4H8e67d+/ug4izchmfS7mJcH+fPn384YcfnhzxVl922WUXew73hMGqlccwwLK/F1xwQV+vXj2LH99JZ7H85d4999zT6hhll//JH+oen8MOO8yvssoqfu6557b8IFzqFowcOdLKBrZ74YUXrB5imzRhgOB32GEH/9RTT1k9GThwoIVD3Plssskm/o033kiuzg9liLpNuSDd1NEbb7zRL7zwwskVNSsb8P7771tdJlw+2IV2Ic1dd93l11prLSs/2IfnRIgbaYrnsRVtFrYD2o0wILK8xb60TWeccYblSeTpp582+z722GPJEW/lgHYxpmWjjTbyYfCcnM0xfvx4y4N0ORNCCDH7UGs8+njxDzroIBcEbyXPYk1hicHDDz9sywFY685MwUsvveSC6EiuyHnwWNaDJ3T99de3tfx4MUMnX8lTh/eO2YAgmtzzzz9vXsbQYbsTTjjB1vCyxjoIGVtyFISxC510cmfuJbgnnniiwgMaOm0XOl0XhLK75ZZbXBDXbuedd3ZB5Np7AXgLAQ9b6JQr7gti1B133HEuDFbclVde6fbdd1+7hjQEUWVeXJY3BBFgL6gutdRS5uVjTe7dd9/tgnCzpT1BKNq5MNBwQTiZvYlLEII2oxIEmHkfuZc0YwvsR5qDkHVBhFbyGPL8W2+91QWBaeEeccQRFje87qTrgw8+sOtI9+jRo23NNTYiHtiLpUlB9Lj//e9/NvtSDF4k5DrykjiRHmyZ9WAyE3LHHXfYsq099tjD0sjLu3hMSU8Qiu7kk092F154oVtmmWUsD4gvMAs0aNAgF8S1C2LKBRFqLx536dKl0ixOGtY/k39BbNozST+edZa3kG4IAwwXBKuFFQYrFi/KCWUyDefJL8IIws4deOCBZh/Cxp7YgLxg3TrvSqRfimbmiHyNszqkKQxWXYcOHaxskDekl9mQ+Fzyj3IQbU++n3baaWYjlrthozCosHIcBr8uDAxtGRrLhChnfPheLH8pH8ygUHbOPfdct8EGG7jLLrvMBXFr9T4IVLfccsu5IERdGPhamCwlArz81AM87cSd92ZuuummCo878b3tttusfiy99NKWZupzmzZt3Omnn+7CINi2X6X8k4Z8UNeZ9QsDL8t36iHlliViaWpSNsh38o0X+0k7dY24U99i3aasUCZoq7AL+YT3PjJs2DCLE3YiPZR/bPf9999be0XasEHHjh2tzIUBtzv//POtXYrlLwvxCYMHa0+4jmdia8pUvIc2lOfStvECvBBCiNmQ0BHWSmbUox86YB/EiHnK4PHHHzePd9qbiVcYzyTe59C52TG8dkEYMW9e4dHHG8Z3vIl45AHPVxAxvn79+hXeOTxozZs3N892JHrSQmdt34MoNW8nacNLGyG9hBVEiX0PQsy8iTEOeKlJD97BfODBD2LWv/7668mRnLcWrz1xDx24efiLgdcXjyHefryFO+64o8UVjzAQHp58wose/R9//NG8gnjZ0zMSzGAEAejD4MS+441m9oDZADz4abBJGGSYJ7kY9957r5933nl9EJT2PYgum3lhdiQNMxPEsW/fvsmR3IxRGFj5RRZZxAexmBz1Pogl8+IGQZ0cmZ4gdi0Pq/IKpwnCyfIzpomZFcK4/fbb7TuEQaMPg9pKHn08s5SroUOHJke8eWdJD9588gDCIMzKcxjM2nfg3nQZwivMfWFAap5uCALW8oDyABwnnym3QH4yA1KovHCefMTjn6ZY/mbhWmayeG7k2muv9WHw4idMmJAcyUEaKEdhEGN1j1k5Zk4IA6ivm266qQ8iuZIHOw3lADtTp/LBjMASSyxhMz0R6gCzAmmPfj6KlQ3sFwS3hR0Gg8nRnIefdodZIGBmh3KZz27UqTXXXNO3aNHC6kmEckD4ePopL0OGDEnO5M7ttdde1h7QDkI+j34WZnbIg9guEc6VV15pdknXbSGEELMPc+QbbCHd7sYbbzQPIGvkIXTarmnTprb7TfTW8+IqnkZeLgydoB1jNgFPJt7LNJzH6xaP40EPosa8pUEY2TFeHAyizcKsCjy0hBEhDNYnR29sFjypnMdjzLZ/1QFPJx7LfC9psm4aDzgeXc7zDOyDNw/vKGujF110UbsWr/B+++1nL29G8DDz/gPeW9IfYYaEGQA88GnatWtnXts0QUzZuwjEsxDkKV5Lwgyi1I6FgZfl8VVXXTWd55LjzDJEOI8XlFkHPKGjRo2yD+v8yce0ZxywA8ewC9cHUVX0/QfAZuztH23J7AzHgHXmpJNyGGFGAs9zFuITxGvyzVm5xWvOzAN5AMziUBaDGLPvhSCvmKnCsw7ch23wNOeDPMS+eJHxnMe6Uir58jfCDBTvVPCeRRiwFfSCFwIbUFcp/zG/SAczHtTDdJ0l3njgmWXguZSfQmnBe48HPbYVgN2OOeaY5FtlSi0bXMfsTIMGDayexDJHvJhhil7yWLeZJSAtxDUSBj4WP+od5SdCOaCMMRvArl4bbbRRciZ3jtlHyjwzkMXgGp6JnSivfI+zCYSDh5/tdImvEEKI2Y85UujT+SPoERx0rCwleOqpp1yLFi2s40PYAtPedJYInzRR9GdJC2WEE2IlCq8InXFV4gtiRx0hLDp4REM+WC6AYGN3HQYFPXr0sG0U06KgEISdFgnAYISlR+zss/XWW9vyFpY6ER4f0sCSmPr161eyRzbe2BAxi4BMH0d0sfyClw/TIErS15UKoohBAyKULUvJU0QOIph4s+wgDQO29MADkcdyBZZxIJhZjhA/LM2KZQDBxnIulkBtsskmZpfrrruuqJ1JP8tFsAFikXvYHhbifdgBsZTOB+yQLT+RtI0QuJA+FsteVfmffQZ/c2+hMkpes7wE8YnI4//bb7/dhGgp5MtflsvxMjpLT1he0rVrV8uvquKehXB33HFHsyP2pa7wEjF5S/ikDbFK3adctG7d2gZ7LMkpBsuCsEd2oJltB6pbNigXtEU4FPgV51jeWNZE3Fl+Bptttpkt60Fsr7feem7//fevKM+UG9JEPc0HZRebZ+s35Zlyw8vP+SC9OENYgshgk+VHDJihuvkihBDiv2OOFPqIe9bj0nHi2YofhCKCBW8lHS0dOZ1aqSLmvwTRiphkbTVCjPW1zDBEj3F1YZ1/3759bQ02HlbWPrNuPA32IfxiHT/XILDSa4oB+zJbgAiZUXg+2y8iyPhxqXSe4iHm2azjLgYiEeHTuHFjS2v6g015XwIefPBBexcCYcaAkHNnnXVWJbGchZkGvLEMxLAl9xBGGuyEIC1lEPhfg0imrlCPGCzzvgA/tlQTSC8DBvLnzjvvrLDPmmuumVxRPRCmzORQHvB0Ey9mEYgzEG/KBTNm8Vn8HkcxyBvKR1XtQHXLBscpczgY8pU51sYDTgMG3ZTlSy+91OzEYDSeI27Z+hXhfL5yxaAE7zzvcuSD929wFiDwY5zOO++85KwQQojaQtkJfQQkXiq8XIXAy8fLfbwkicc5fvDoMsWNR5gXM5lSp5NPb9FIh4mnmE5ydgPhQJwRG7y4zIu2UQCQDgRxoeUJWXhpE88kHkbEE973tGBBoLDMBW9ktDXhszQlvUxh+eWXNzHBTEn62XhxuRfPZ1Vgc5Y2FMpTBhvkKS8rkofpPGXZAXHgZdhiAxJmGOKyKp5HetMfXi4FygJ24CVYvKiUo/SSkHzwwiseVF6SjfdkxR97wVPmWOYUwdsbX8icnUBY4jVn+RWik7jzwm6EtBWrf2nII2zKC6kIdJar1atXLzn7D5Rf6nZV5Zdn8/Ip4eKRJv8Rq9wPiHvELy/+MqgjL6p6uZ9ruOeNN95IjuSW3fBCcprqlg287MxAkc/EL1vm0l54wiU8XvBlIB+XJjFLxNI52qy0mGfZE20UAzGWDzHoiVAPuJ5nsjwsH9QXns8Ly9FOzPRkIZ8LvcQshBDiv6fWCH06J5aKsCaVD6KIjowlG0xjx06OzpclAKeeeqp9z4LXl06O6fDsVDwdPmvJEaB0pOwmgreNtcgIGTr3/v3723r2dKc6O9CvXz8TNXS8CG06dgRA7JxJK/ZCcCOMqxJMCFPENSKEa/GUsxY3gq3Yyx9hz2482IZ15iw7SHs+GQwgJhAOeG05hwhhfTN/s0tIVeCFRTjxK7H5YLkNIozlS1nRRjrYOWTMmDGVdlTKgpBiZxFswyAJwY8tY7qwLZAe7IF9+Z/jeIQRoYVgoMQSi3gPA0V2n0lDeeR57LTD4AwbsUQj7vYzu8ByMN4DYTaG+LK+nToVxTnClr/Z4Yfygz2L2Yb8Yr07+Ueasfcll1wy3S/dUn6xC+WXa4qVXwYgLHu5/PLLbaYr/Z4Dx7mXssD/OAWYvSoGYpkBCLM6DMR4Pst9+FG2NNUtGwhtZjOIA9570odNsRmzjbG8MjtHuxbrNu+NxPdiaOu23HJLW6rEjAJxo33cbrvtbLDDuwnUe9pD8orz1ENmmGjrWAqUD8oseYwzhLTw3kB2lyHgfSVmS7JL44QQQswe1CqPPutfWRPMh7XoCAm8uGwzyFpUwNuI2MiuSY0wJU2Himcsevki3Iv3D3HA9ov8TyeLR5i11Xi2EAUIfwRk9NYhpvH4xbXSQFiImKzwJMz0sey9CE7+zsafZ3FdjDPX8IlxoFNG4LA+n+0HEQp05nFpDFvq4T1kez3EAdv0AfcTDvFNwxaLiCI87oSLAEWUEC/iQDx79uxpW/nxIiBeXYQ2swl4xkknkD6WALF8gvXTPJtrWdqALYkr8HzigW2ycSGMeC4fCBzixDrs7L0cR8AzUORlWyAc4kca0vAiL3Fi2QR2xF6IPN5RiKKLddes7WamgwEMy5nw4GIX8icfLLsgnQgy7iEPWHPNTEe8Z+ONN7YtDxkQ4aVlYIP9sWe0JcQ8T8c9lqH080l39rrsvdiB77FMRTgWX67EnjyfY8D/zJ6QjyyvQShS/+KLqcSF9CEqOc8ME8KzUP4iWPFQM7im3BAe4pLlL+k6wMvH1HW2c8Q2bPMKhMknnXa84cwQMBiPswQR6jcDP5a18eIzdue9gGwYacgHfjSM8+Qjz+f7DTfcUGnpS03KBoNlBk6854BgpszRzhAW7Rsg/BkI4njg+bzAi6c9gv1IC2mjvPI3ZYi6j81ow7Ap4XKeF5Yp07QBMe9jGYrfsTPPZMtXwuNdBrZVZRDHtUCdYgDL90J1UwghxH9LndBY682qKmBgwFIWPGMI/riMY3aCbGS3ETx/dNh00giUNHhM2bOfaxE7VaWDWRO8f4SHiE8LzgjePjzUDLQQLYisfCC68Nri5cSDywBiZqzPnxWQ36w/R8SwZIF93dNxJS28vI3XH/Ge3mWoEHhiuQfRVsj25AueUdZDI/oQvtnByOwAnmU86ywrYtCGfaL4A9JBPuN5ZlDOILOqdCBq2aWG8sPyuXzCmBk9yiMDBeyeHQyXCvnHs1hyQl5k60khmLmgHaAeMHDNVx9qUjYA7zt7/VPnGEggrtPiGfsweCft1O3s8iZmDeKsFfcyUE1D3Sd8lvFQrhjUVgX5TD0g3bR72WcymGOgxKCG30IQQggx+yGhL4QQotrwfgbvnfCjdNmBhRBCiNmD2c9dKIQQYrYHjz4vPEvkCyHE7Is8+kIIIYQQQpQh8ugLIYQQQghRhkjoCyGEEEIIUYZI6AshhBBCCFGGSOgLIYQQQghRhkjoCyGEEEIIUYZI6AshhBBCCFGGSOgLIYQQQghRhkjoCyGEEEIIUYZI6AshhBBCCFGGSOgLIYQQQghRhkjoCyGEEEIIUYZI6AshhBBCCFGGSOgLIYQQQghRhkjoCyGEEEIIUYZI6AshhBBCCFGGSOgLIYQQQghRhkjoCyGEEEIIUYZI6AshhBBCCFGGSOgLIYQQQghRhkjoCyGEEEIIUYZI6AshhBBCCFGGSOiLf4U333zTvfPOO8k3Iabntddec++//37ybc7l999/dy+++KL78ssvkyNCCCFEzajjA8nfsz1//PGHGzp0qLv11lutE1xjjTXcGWecYf/XhF9//dXdcMMN7q677nLff/+9a968uTv22GPdOuusk1wxZ/Dee++522+/3f35559urrnmcssuu6zbfPPNXePGjV2dOnWSq2rO33//7dq2besWWmgh99hjjyVHhfgHyshaa63l1l9/fTdo0KDk6JzJxx9/bHY49dRTXY8ePZKjQgghRPWpNR793377ze2xxx7W+S211FJu1VVXdQ899JDbbLPN3NNPP+2qO14ZP36823jjjW2gULduXRP3H330kYV31VVXmfCYUxg+fLg77bTT3LBhw9ydd95pNkF0ITK+/fbb5KoZg0EEAzVRHrz++us2GHz77beTIzPOX3/9pTISoC3DFnxmFhMnTrS27dlnn02O/Ht89913bocddnAXX3xxckQIIcS/Ra0R+niWO3bsaMICQYo45X888VdffbUJyVJBvO6yyy7ugw8+MA/zPffc4wYOHOiefPJJd9ttt7kffvghuTIHHW8UqlUNAOicuTY98ODvUu4thRiXdFjxWPa5pUJY2BevPgJu8uTJ7uCDDza73nLLLclV/xAFGf8Xeh5hxmuKUd24c018fiF7VnU+MiM2y0dMc/q5MX3FbJUlhlMobjFMrikUZrymWPric4rFjeP54vL111+7sWPHum+++SY58g9cF/OglOfzf6FroCp7RDjHNVXZOl4Xnz0rqMq2NY1DtGuhewo9l3aS/Priiy+SI9MT702HXWo8uY5n5ssjnDQvv/yyDTbykX5G9l4hhBAzRq0R+vPNN5/r3r27W3TRRZMjzrVq1cotueSS5jEq1gllQdizXKVPnz6uZcuWydHcYGLbbbe1WQOWsMC7775rohfvJZ+DDjrIvfHGG3Yucu2119qg45lnnnG77rqrXYdXnLW2n3/+uTviiCNcu3btXNeuXSt5QFk6dPrpp0+3nOXhhx92J598coU3/bnnnrO4ks4TTjjBwu/SpYt79dVXrYO8/vrr3dZbb22frDCfMmWKO+WUU9xTTz2VHKmaueee2+KMrREHkV9++cVdc8015p3bdNNNXYcOHWwwQDrTTJgwwe23334Wz5122slmXPKBbQ844ADzNG6xxRY2q5BPOEZIK+nbfvvtzZ6dO3eu5KH8+eef3aWXXuq22247O88M0KhRoyrEA0IEW910003ukUcesXA6derkPvvsMzufBkF00kkn2cAnzYgRIyzPgHBHjhzpLrzwQsvno446ytKy7777Wtook1dccYVr3769xYmBVFViiedFm2y11Vb2LPI98uOPP7pzzjnHzmFfnjVp0iQ7R7nkesrN+eefbzalTFx++eUmotKQJ7vvvrs9hzJPvmbzkXAPP/xwe86WW27pTjzxRCtP5AHp4nq8tIceeqgttyFtnOfZsYxss802rm/fvmb7NJSr+Pw999zT3uHIB7N2lHXykzSTJ9g6Mm3aNHfuuee6+++/32ajuGb//fe3upUPlsWwPI/08Gzi8MQTTyRnc2Wkf//+lr405AF1kjpXCNoAyta4cePc3nvvbeHvtttu7vnnn0+uyEFdpH6QP6Rrn332ca+88kpRkUvZxxkR7UrZp+yl7co7DrQxhEmeXnbZZZZHlNkLLrjA/iZt5Ncll1xiZYI8xh7E+ZBDDrG8HjBggOXlmDFjrL3DVoRJWkaPHp08LTfYo0zwPsEdd9xh9YmyTnsTnSWkC7sx0KCu8uxevXpZXQXq+5lnnmnlFHtht2ydE0IIUXNq9cu4dB506CzlQZyWCuKP9eJ0SsWgA2vTpo17/PHHXaNGjdzKK69sApH70p0Ra/zpVOkUGSAgkOlI6UARKSwTatKkiYWz8847WwcJdHY33nijzSSkYcDQr1+/CoFHPBBihIVoIC4INQYg5513ngmpFVdc0UQWYjMtfuloL7roIntOdQZD888/fyWbIgoQkccff7x56NZdd12LP8KrZ8+eFSKRdyeIJwJtpZVWMiGC+Eh78xA0CGEGCsRvxx13tDX8iCQGc4VE2t13321pXmaZZewZxBHbAPFjgIboY1kXAg6xjth/66237BriwiAPcYpAJp/4ZEUoICaxeXZQRx5ed9119jfpIB9Y6oUY4jlNmzZ1DzzwgAk54opoatasmfvwww/dkUceaekuBINPBkaUFwaM6623npWDY445psK+DGTIT+yP3bB3TB//ExeODx482OzA4AzhFfOfOBM/noMYw46UTWyH4Iq2+Oqrr2zW695777Xz9evXt3JOfjHjw2wY4fHyLDb65JNPLGzSy0Bg6aWXNtHN4BmhxwArClnENvlCWcZePItr0wMuwh4yZIjlI89iKRl5he0Rg6QLKCs333yz5TuD0+WXX94tsMACecs69Q6BTLiUIeyDOOYYg23ih6BmQMa7QGkYPDGgLyb0H3zwQauLsexhN8ong7zYXlBHGTxhg9atW7sNN9zQyhTlJTuTGCFOtC/HHXec2XWvvfay8o4N//e//9k12IO6gyOBNoaliMTnp59+srKMoCd95B35RVnjO+WSdGE74sp7OdRvIN94gZ73BYgn+cUzogOC/8lXnA+0C8QNhwz1i/YPaMOIE2lA1PNswqScUaYZXFDGN9hgAxt0M+DDfunBnBBCiBkgNPa1lrPOOsvPM888ftiwYT507MnRqtl00019EMY+CIzkSH6CCPL16tXzofOx8PkEEe1DZ+YPPPDA5Crvg/D3Cy64oL///vt96NB86IT99ttvb3Hr3bu3D52w3dunTx8fRIgfO3as3ReEh1922WV9EGL2PcL3xRZbzAcRZd+vuOIKFJLff//9fRADPnSS/oYbbvBBiPvVVlvNh07bwg/iwYfO1ofO2O6DH3/80QeR50PnWtBGYbDgwwDFBzGSHPF+4MCBFv6FF15o34MQsriTniCuLKxp06b5IFr8vPPO65977rmKNIZBlA8CxOKJLXg+tsDuwLEg1nwQQj6IOzvGvf379/eLLLKIf/nll+1YliCUfRg8+CBu7TvhB1Fif4fBkt07aNAgywPCI3+DkPRBONg1XLvNNttYXK6++mqLB9fxyRIEraUjCObkSI4wkLIyATw/CByzUxDJls8cCwMiHwSuD+LI0kf4o0ePNvsFAWT3ZiHOlLcwKPBB5Ng9hEV6iAflDihrW2yxheUBkIYgmOzv2267zcrJJpts4oPQtDDCYNgHoeaXW245OxYGZ36jjTbym2++uZUlIIzDDjvMbBvEmB0755xz7LlBhFbEJYhUK0/8Tf5yPgya7X6OQRB/9ok2JZ48P4hasw/pDANiX7duXR9Etl1HOYplMIhXu4+yTJyDSLZnch3PCYNBq39BYNp1xHeVVVbxYdDnhw8fXpH38fkRjlNWl1hiCR8Eq8WXaygja6yxhg8DCYs38cXGrVq1Su7MQV2kfIWBTHJkerp162b2D4MxyxPCf/TRRy1uQTTbNcSD/I15xjWURWyJPSCIb7/kkktaOEC9XHjhha29wwYQBLQPYt6HAaZ9f+mll/ziiy9u9QAIl7zmfz4vvPCCtVFhEFMpv4gf9iSPYr7xAepZLGccCwNEK8P8DxMmTPBh8GX2C4MxC5P8WHvttX3Lli3tGu6jDpCXtJk8GxtAGDja/Y888khFfoQBo19hhRX8sccea9cIIYSYMWqtRx+vNd5NvJd4gvAclgqe6CBOi84C4F3Dg8V0Mh5ZwueDd4vlPtnlKGuuuaZNexNmEJL2PXSsLnT+9j/3hg7QPFvRG1kdgkAxjyteTWYNgpgzzyUe/Lg7Dl79Bg0amHc1EsSJLQWJaShEKAu2A9HZZ59tHni8z7ysTPxDB2xe4CA2LCw86YTF8/H68jeeONKGzYgHHkDiiS3wnrOjUSSIBxeEic1M4M3lXrzYeARDh29e1nwQLtezRAJvIuHjQSR+LHciXswi4EEkPLzd2Ca9/Ajw5OIVJm7EvZhdSgHvMPlAPhMn0k7Y5FcQOBZ+GJDZzBPLmvJBXPHsUrbwPBN/PPR40ilT2AvIX7zD9913n9mR51CWI8QBjypx4rlhwGjvtuBhxntL2MSBnar4ju3xsGK3qVOnmpeV5TDMnuBFZ6aFcEgX8ac88Tcf4H/iEL9TToPgtDqGF5kP91CfKB94mJmxwuPcokULC5tyxBIQ8ipCHhJXyhf3cx3PYQYCm7IcJQ31AU82tuJaPmmY/aOMsNwPTzrx5Rrsy2wMtsBGM0oQqeadJ08InzqP3VgaA8SPXa1IC15r0kkZxjaFPPpBpJsHPwxoLK/IMzzz5E+czSG/w2DBXXnllRYmz+Z7tEWh/IowG0nexeuB+kg6sAvP5R4+5EsalvQw28k5wqAM472H9LP5m2djA9JLPQ6DZnsO6aDMU6+xT7bOCiGEqBmVW/taAIKUdcrsCIMAQOwjbqoD1zM9TWdTCDocpp0RRHROEcQkHW7syCLZjjOK+9hpAoIGEKbVJd1hAp04HSafNDwDsVYTWDqDSGR5AuvAWc7AUgjiy+AB0cgnDUIJ+5An2BOxyHsTaZsR73Q8iR/CC2GL8GKJCh9EHEK/UPwRI4holgog1okv18b48WyWgMTw+LD+Omtvyk1aHM8o2XxmQMT3dJp5HoKu0CCP8oTQY9lIOv4MZCmr0SYswyF8lm0gIhlwYrMIz82mjQESxynTiDTiwHIJBFl8Du+UxPgi9BGhiDfiXB0Q+MQRsbb66qvbEqP0oJiwqVeUqzSUkXT5ZuBDuhjYpCHvEM6cT4NgzNbBNMSL9GfDA+JC2aUMzyhRyEaop4hfng20XwzaEOnkCwMelvJAoXaBvCD/GUCkywZlJUK6WPvOch3KBQNZ6gPPKwVsmoXBCfWNeDIooyxSdrLxTNudckaaC6UlQnrY5YwPy3bS6eK5Vd0vhBCiNAr3jLMpdHq89IVQ5AW8hg0bJmdKBwGD2MiKhSx0YAiTNHSceCWjaJ8RojicHTo14oKnFUGCR5D3C9KCEVsgvLLCAU8j8UcQEgafYgMo4BrC40VNXjRmFiB+8OQhUvLBNqis/X/00UftXtb3so6Y8BBXDDo4lw6PT/YdiFIgTChVKM0oxJ9nkvZs/PHo8hIjMDODR5/18njhsQPr74uB5590UGZ5DrY/+uijp3sOL1oimGP+cF91Ya0/XmUGigh8wuVFzghh8yk0mItE+2evo6wx8EFMVof4XMprFtLJufSgZmblO3WGZ+IgANaoM8PC4IKXaSn/vFdRDPKM+3n3IZtn6ZfsWWfPIJ33FagHiPSa/gAZM2cMvKnLlDXKBu+3VNfuhcDepAunSTZNfHi5VwghxIxTq4Q+Xs/4QiMvgeEtjIIgQgcdvcuFYNcKBDwdbVZk0zEzCMDDxQeRlfbCIoSZOmcpxoyCsMADyIAjxoN4p5fezAwYmKS9voUgLmlPfATRF2cxssKBvCDOeBTpuPHkMtXPMyN4kRmYRUg3tkVg4dlMe/PwHOKxLgRileVUvPSJ9x4PJvHjxUcEFUsY0uHxYYlQdUFYES6CJ0I54CXKWUEsb5RdbJCOP15flmxFWBrDy7RsBcsyFmwQIZ9Z1hGFKuWKlyyxG8tKWCZBWAjo7HPIC/IfMccyGpZrpPMtilbANpCtZwyqCOuwww6zF9n5O52fhM2AjJdB06L7008/Na97hPLEQJO6lgb7U76YjagOpJmyySA2PXjATqQTmxIv0kUcKb8xftiQa9LxLQTtSvTeAy/fUoZiGWQWi3SyExIv6bIUsCpnBeeJA7Np6fziw8vMEeLOLAovx1M/8JbHJTCxnSzWLqbhPpYzsaMUnnxm3nhWzPfqwLO5L90G0QYQV+oUA9ZsuuLMC/mDvWoy6BRCCFGLhD5ePHYxwYOFBxOhzS4dfNJCGW8nnWfc9SEf7GjCGvq4Y03s/Ojc2eGE9cIIvfbt21uHx3roCNfTgXbv3j05UnMQQHRyrB1mZxHSyLKH9JT8jII96DjpsGsKnTQ2A7yGiBdA5LMOHRHDGmlEItvkMevCTh7kCYMmdglJr01HdLK1ILZlViYN0/aFOvVBgwZVLJlCdCGo4rpi1nIjCpiJSItTykaxnW4KgccVYcguL4hQxCFh867CrABPOnZixoLfiIjlmf8ZbCJ2iANbLEbBiZ34sFQqQhmibFKmsAfCm/BYh85MFtcyQMY7i+iNECb5QV2g7B944IFWJtntBYHGc/AUxx2dCIfw8fTyf4QyTflA8HKcupPeBYqlN3F3FdJC+hD9iF7sHKF+MjDhvZFYdshvlm+R37wTUR0Q+tiX8kW9J708m1/ZZsDPTi8MEinDrOEnTpzjGtLIshlsWxWIemZfWIbFvcSf8ki9AMQ6+chgDMhXZkCKQd3iPuId6x7QXsWBEAOI9Dah1BOeT/0A7mcgTlo4XhVcj51j3WEAyuxZejBWKoh6ljKSj1HsExdm5LATS/HSM6c4Eyh7wKCO9GN/IYQQNSB0xrWC0HHZTjlEOftZaKGFbEcRYBeQ0Kn7nj172vdCsFMNO3rMO++8Pog62zmCXSuCwLDdO0Jn6CdNmmQ7cISOynb24Plcw44QoeNLQvI+dOK208kvv/ySHPH+7LPPtp1F4s45wA4mhPX0008nR7wfMmSI7eZRv359HwSz7fZx9NFH264b7L4BQTTbbjpxhxpgdwp2f2EXkjTt2rWz+ETYrQV79OjRo2KnjSwXX3yx7QwSRENyZHqwR79+/SxefLAXdg+DCNvxIxI6bt+1a1fbiYb0EO8wSPBBiPutttoqucrbDi7shoM92KWjTZs2Zl92EYp5mSUIWEsLNmLHHtI/dOjQ5Kw3W/A88rNt27YWLnnAriYQhJrv2LGj33jjjSvlVSHYBSgIFAuzYcOGtsNJGATariCAPSlnnAsi1I7BM888Y7ukxB1QgPJC2tK7NWWZOnWq2Qm7BjFuu+NgE3biCcLQdkAh7sRnww03tHhgB3Y8AnbdIR+DKPJBtNp9xJ+wJk6caNfAG2+8YeFwLu6IQ/mjrAchZ9cEEen33HPPirLfoEEDiwu7EUEQZraLEvWHOJCuMEiwXYKoI82bN7eySL7uuOOOvkWLFhV1Blux+xFlhF2RiCv3E6d9993XrqG8UU8oZ6QJ2y211FK2ews7QkUIi3PseFMV5Dm2CWLedhgiXaSPHaAot5Eg1s2+XEf8SDtlKAyUptuFKQ1xwI6UE+oI5SIMav3BBx9ckXbymLRTjrH3WmutZTs5UWbjzkrsOEQ4V111lX0Hdrpp3LixlXnsxI47QYz7Xr162fm7777bztF+tWzZ0sLfZ599KtJF2aFsYXPSvdlmm5k9KKPEccSIEXZdhLrCDkiUEXZoIkzaPeo0bRbQPoaBhD///PPte+S4446zMhGhXLBbF7bmfuL49ddf2znupbxwnHSR36SDNhhoA8lz4iCEEKL61OGfIJbnWPDOszc+nqb4Ymh6ehrvF15xPGFM6bO+Ngit5OzMAS8gHlY8mPzQDV7F2RU8b3jhWV4U9wHPTudjM7zQ7LnONSyziEsHsuC9Yz0x3lKuIzy8ffmgqLIGmXcJghiw5St4iNMQDl5xPLJM/zNzwJKYmkL5YGlMECLmFf838oadaiiTgPedchnfl8ATzawWnlyWK+EJj3FiJogfi4r2wZvOkivW8WdtSnknf1gPHQSY7bDE0p0sPAdvMenndw/S4eBRZncell+w4w0ecaA8c5wZEepLPptRRphtYEkMM2fM0OUrIzG97MjCjATpZcZhRmD5D2WE5/G+T1wmkoYZDMo5swiUM5b1VAXvV2B7yihtBrZjJy5e6E+njTSx/z1lC/swq1cK3EdeYAtsjd2YeYowe0WcyQ/OZZ9L3aBMkD/88FZVzyWP+M2RQumoLvwAF+8ksHSSMh2hHDGrgveePCbuLKUSQggx48zxQl+IciEt9Bmwin+XKPQR+RKqQgghZgdqzRp9IYQQQgghROlI6AtRJrD8ZZ999rElM+Lfh6Vd/MAcL5sLIYQQswNauiOEEEIIIUQZIo++EEIIIYQQZYiEvhBCCCGEEGWIhL4QQgghhBBliIS+EEIIIYQQZYiEvhBCCCGEEGWIhL4QQgghhBBliIS+EEIIIYQQZYiEvhBCCCGEEGWIhL4QQgghhBBliIS+EEIIIYQQZYiEvhBCCCGEEGWIhL4QQgghhBBliIS+EEIIIYQQZYiEvhBCCCGEEGWIhL4QQgghhBBliIS+EEIIIYQQZYiEvhBCCCGEEGWIhL4QQgghhBBliIS+EEIIIYQQZYiEvhBCCCGEEGVI7RH63jv3++/O/fLL9B+O/9v8/bdzI0c6d955zk2enBz8D7j8cufq13fuhBNy37HTU0/l4vXOO7nv+fjtN+d22cW5pZd2rn//5OAMsPvuzi2zjHP33JMcEEIIIYQQ/yW1R+gj5g86yLkWLZxr3rzy56STkov+RT7+2Ll993Xu1FOd69cvOfgfMGmSc19/7dwnn+S+f/VVTnQTr9NPd+6vv3LHs/zxh3Nvv+3clCnOffRRcnAG+OCDXFhffJEcEEIIIYQQ/yW1R+jjQUeYImwRtd9++8/nxx+Ti/5F6tVzbqutnGvVyrkNNkgOzgYstphz22+fi1f79iGHtTpLCCGEEGJOpHaqwJ13du6NN/75XHppcqIG4PF+8UXnHnrIuZ9+Sg6mYOkLA4v77nPuhRec+/PP3PFFF3VuyBDnRo1ybscdc8fSvPmmc3ff7dwzz+SWyRSC8Ln2/vtzHvEsnP/ww9wyoQcfdG7q1OREARZc0Lkbb8zF69BDKwv9H35w7uGHnXv++dzAKR887/PPc88izZ99lpzIgK2wGbYrFBYwE/P0086NGOHcp58mBzOw9IklP1z366/JQSGEEEIIMSPUTqGPmF1++X8+SyyRO37ttc4tvrhz2277jyBnWUrDhjkP/OOP546x1Ifvl12Wu7Z165wXnOsQpBEEKMtgmjRxrlMn5zbc0LmNNsqd492AzTZzbtllnRs6NHcMEMhrr51bUtS5s3ObbpoLl2ch+BHFLKlZcknnrroqt06ea3fYwblmzZwbNCgntvk8+aRzG2/s3Cqr5AYTHTo4t9JKzp18cuH3EnhGx465eLFOn+cxmCHcpk2d2267XBq45vvvk5sSXnstN0ux8sq5Z5Hmxo1zS5S++y65KHD99c6tsELOZtiE/1kylOWGG3Jpx0477ZSL+557OvfNN7nz/L/PPrl4YQeuW3PNfwYXjz6ae067dvkHYUIIIYQQoiC1U+gj4hF+8RNFL2IUr/WXX+aEMnAOEYqojEt8uI7vxx/v3LPP5sTkfPPljp12mnPTpuXuP+ss5+6807mFFnLuxBOd23//nHcdEM+sR0csEx7Xjx/vXNeuOQ89S2cuuign1Hk+z3rggdy9PIclRz165AYGPH/++XPHjjkm5/lGoDOAICxE8Lnn5gYleLx5J+D993NhZeE+7idecYaAMHi/gXiQlgYNcrMTeO7TIKzHjHFu882dO+cc57p0yaWTeDAzAazF79UrZ+dFFnFuueVyA6j0On9swawBaSEOe+2Ve1mY62+7LTdQIVxmBAib2ZEzz3Tu6KNzgzgGUTBhQk70v/tu8VkRIYQQQggxHbVT6LMkZrXV/vnUdOkOHmbELeK9T5/cMQQrQpklMgjReeZx7pprcqJ9wICcgM0HApvdaxDYeLFZisLgACG/3nq5a1iekwbhS1p4/tVXO1enTk7sEweW3CCoX3/duTvuyL1cy1IhwkYIT5yYBFICjz2WG/Aw8xHTO2xYTvSn6dbNuZdfzg1IGPBwTcuWOVHOuxEwcGAujsycPPFEbsAxfLhzdevmzgMv+mJP4snMAEuJsN8VV+TSxfIh7IuIx27MZDAQ6NvXubFjnWvUKBcOS7QuuMC5iy/OvXsghBBCCCFKpnYKfTzG2U9NaNPGubZtnZt7bufWXTd3DJGKR5+tKdnNBk87S2siLKPJB7MMvC8AhMuSIkCg4iGHKJYjq67q3BZb5J7P8iG82cDzEf2IejzZt9/u3Nln57zszEqQ3up4uOOgANHOUhuet/XWuYFOGrbHnHfe3Np8hPopp/yzJIfnYZuXXsp9X31159ZaKzcTwhIfljdFiCOzCMDAh6VKLJdi20/SxWwAMzEMgEjz6NG5ARtbhWLz+F4BNsT7v/feuXgJIYQQQoiSqZ1Cn/XerCePH5aIzCjpl1YR0gjUuM4fcVoVeKbjkhPW36eJnvMYXj4Q3/E5PJ/w8PIzAGBde+/eue8I4erCwAHwwqfTmYVZCJYc8W4BHn3eK4hLlYA4xbXyLLchzvlgQBAHIiyNwlPPhxkCns9yH2YzWHt/yy259wl44fm443LvCMStQoUQQgghRI2pnUIfLzs/EhU/UUhH4Ymwjev2WQ/P0pPqstRSOS8yojW9lr2QWOfZCGlgbXm8DtHOunbAY14qP/+ce+mV//GIs9adJTNrrJFcUA1ivFhmE0U/4UbRHmHtP+8bHHBAblkNNkR4R0hjHMTwonIc2GTDIn8WXjj3N4MwRD9hxQ+zJfxQF8uidt015/2PL/hiu+uuy90bB1zaiUcIIYQQotrUTqFfiChCWSJz1105sYrQRKxXF5aSIMwRppdcknvBl7X7u+2WXJAB0RqX//Di6quv5gQuIja+hMuLuaXCQIElMIhrltvgAUcgE4/qEgcHrPdnvTyDH94fyHrOmS1gVoGlSqy5Z4CC8I6QRnbGgffey71zgI2xCb9xEMHbH23B+wWEgy0YZDBg4aVlRDx24Z0ABmrMWqyzTu4eBjTArkN4/9klKDsoEUIIIYQQRSkvoY+QRmTiwWeHHLaGRGTyf3XBC04YwMujbDnJh/3s88GSlCOOyG0PiQeal1CJD+vzEdaIVV52LRXWrrMOnoEG9yH2+QEsvlcX4kLcEdcMfFZcMbf7DWvs0/DDXyzP4cVfnsea/uy+/ayXZ+DA4Gm//XJbY/LSMjv5RBgQsEsQ7wDg+ccOfFgWxPU9e+YGMuzBz/sMPIfz//tf7p2GaKe33soNDphRiUuBhBBCCCFEScx9ZiD5e/YH7zGebfacb9EiOZiCZTx4klmissACud1cWAbCcb6z9pz14LxginDcZpuc+ASEJ+vR2QOf7SwZMLA+Hm8zy1m4n6UlCN24nOXjj3Oeb94ZYKcYBgeEidedZS0saWEJ0B575PaU52/AY42AZRDAh0ECApvnI8hZzkI8EcFs4Rk9+zybnWiAZ/KyKnHjWYSDOAeEMUtn2CsfMR/jxUwHzyJsXrTFi46QZx98xPv66+e+8zzig50ZvJAOBgvYE3vwEi0v+PIiLgKfIkQYXMc9DKz4nQLW4BN/0kocWQqFfdlGkxeR8daTZp7JAIZBAC8dE1fiSRjczwvLvDzMAEIIIYQQQpREHR9I/i4PSA4edYQ8ohQxOiMQHkIVIYpQJcyqXs5FJCN6GTzw/FLuKQRhEBZCH/Fe03BIB1540oJgLhSn9Au3DKoQ3PnAHoh30sfsQ6F4MbvCdfxPGrg2Ldg5Tvp4LudY3y+EEEIIIWaY8hP6QgghhBBCiDJboy+EEEIIIYQwJPSFEEIIIYQoQyT0hRBCCCGEKEMk9IUQQgghhChDJPSFEEIIIYQoQyT0hRBCCCGEKEMk9IUQQgghhChDJPSFEEIIIYQoQyT0hRBCCCGEKEMk9IUQQgghhChDJPSFEEIIIYQoQyT0hRBCCCGEKEMk9IUQQgghhChDJPSFEEIIIYQoQyT0hRBCCCGEKEMk9IUQQgghhChDJPSFEEIIIYQoQyT0hRBCCCGEKEMk9IUQQgghhChDJPSFEEIIIYQoQyT0hRBCCCGEKEMk9IUQQgghhChDJPSFqEX89ddf7tNPP3U///xzckQIURv5888/3SeffOJ++eWX5IgQQsx8JPT/ZYYPH+623nrr5JtI8+qrr7q2bdu6qVOnJkdqH7/++qvbe++93TnnnJMcmbk8+OCDrmXLlm7UqFHJkX+PWZ22OYHPPvvMtW/f3k2ZMiU5ImrKe++95zbccEM3duzY5Ejt4t5773Xrr7++GzNmTHJECCFmPrVO6Hvv3euvv+66devmunTp4r7//vvkTPXAmzJ06FC3xRZbuCWXXNLNM888rm7dutYJDxs2zM7PCj7++OOZ0jHh2aWTaNGihfvuu++So1WD0GjQoIHr0KFDcqQ406ZNc4888oj76KOPkiOzjq+//tq9+OKL7o8//kiO1D7+/vtv98Ybb7gJEyYkR2YeePEvuugi17FjR9euXbvk6L/HrEjbTz/9ZOWLvJ8T+OGHH9xLL71Ua8r4V1995f73v/9V8jrTNu6///5uueWWc5MnT06O/vtgS9qLb7/9NjlSe2BW7uyzz3YHHXSQ23TTTZOjhalpey+EELVK6NM5DhkyxLVp08bddttt7oUXXnC///57crZ0ECzXXHON22+//WygMGjQIPfWW2+5fv36mRDed9993a233mqDitmVueee22233XZuhx12cAsuuGBytGoWW2wx16lTJ7fVVlslR4rD1PJOO+1k9hb/LQMGDHDzzTefu/baa91CCy2UHK3dvPPOO27nnXd2Tz31VHJEzE4g8smfSZMmJUdCpzHXXDbQZMC5xBJLJEdFqcT+Z4UVVnCnnHKKm3feeZMzhalpey+EELVG6NM4XnHFFe6kk05yF198sXniawpeIBpYBO9jjz1mHdaqq67qdtttN/fkk0+6dddd1x177LFu4sSJyR35wRv5/PPPu2effbagl4XBycsvv2zPrGpQwpIVwkovXWG5xHPPPZfXi8oSinPPPdfNP//8yZF/wPvLlPC7775rtossssgi1skcc8wxyZEcxJM48izSVR141ujRoyt5ZfFAjRs3zuzJYCEfXPP222/bM4utU8VuLOthuQoDsWIDsM8//9zSjd2qguUTTz/9tIWZj1KfS34RTlWzHl988YUJWvKkGDyLcpBeh0+erLXWWu7kk08ueU0v9sUD/8wzz0zn9SQtzC4Rb9JYqGyWkjZs/corr1jasH8+CAc7vvnmmxav6kDcKV/p2TviS70izGLLYH777TcrX1WVG2zKdQw80vWlJnzzzTeWf5TDUusSz+TZVdWFUsFW5Dt5Wyw9XIcNqzOjgtDHGXLDDTe4RRddNDn6D+QvecOzC81cULZpO8lXPPOlQP598MEHlq5iM7lcx0wD5Tbb/s0IhEOfQLjUnWLlqRiUic0228ydcMIJRetCttwXau9jH0M+pvsOIYQwQmNVKwiNrH/88cf9+PHj7e9dd93Vr7jiiv6rr75KriidU0891YfG0ocOIzlSmUGDBvm5557b9+/fPzlSmSBsfBDKfvHFF/f169f3SyyxhA8C2t94440+NNzJVd4HUePXWWcdP++88/qFFlrIb7755hX3RU477TS/ySab+Ouuu84vu+yydh3/P/jggz4Ib7/++uv7xRZbzMI4/PDDfegkkju979Kli99hhx38tGnT7PvNN9/sN9xwQx8El19ttdUsTnXq1PGHHnqoxRlCp+E32mgjCysyduxY36RJE0vLCius4Jdffnn/2muv+euvv96eTTFZYIEFLN5hEOR//PFH/+mnn/pmzZr50Nn7pk2b+oUXXth36NDBBwFmdltmmWV83bp1/dJLL+3nm28+e14QMMkTvf/yyy99GFiZnYknz+3Vq5ddG8SiXYMtH3jgAUsLzw+iwuxw8MEH+yDu7BoIgwm/5ppr+iFDhvh69eqZDcNgMDn7D8Sta9eufr/99vPnn3++X2qppezZhB06UTsPpT43dLD+6quvNhsRDv+HAaLZo1u3bslVOZsfddRRdr5hw4ZWXsJA1b/33nvJFd7feuutfpVVVvH9+vWzfCANhF1qWcsSRJZv1aqVlXOu5/8LL7yw4hxljuPkE2kkX8OgwOoWlJI27EWY5PGSSy5ZEe8wGKnIa8K76qqrrHw0aNDArgkix8rQWWedZbalfHEfadxmm22sPAehbGWCMkgcuR87kOY+ffqYHchrPuQN+RftEcSgb9Sokb/00kt9y5YtLf6EG+tAljvvvNPiTxyIz2GHHWb51b59eztPOvfcc0+//fbb2/dIGMBant111132nbaI8oWtsAlhUZfvv//+CruGga0dp/5EqAt77LFHRV3ATgMHDvSrr766nYP333/fnjVs2DD7DuQRZRJ7BuFsx8LAxl9++eVWtmkf+X/VVVf1YQBh54H6jm1pL9ZYYw2LzxFHHJGc/YdOnTqZTcgf4kX+XHbZZZYW8oC27bvvvrNrqYN8HzFiREXbQ3q23nprH0RxRfqx5bXXXmvlgGsInw/lKN0+ZAmi1/KFckx8aVtOOukkHwYd/uGHH06uyuXBIYccYudXWmklu3bHHXesaFPyccABB1jbnH4+dQQb3XPPPfadOky7Qd5iV8rfJZdcYuegY8eOfvfddzf7R7AFbWkYBNt3yvWBBx7oF1xwQUs/9uQzdOhQOw/Fyn22vcemt99+u11PmNiTuhAGEJX6iRdeeMH36NHD6oUQYs6j1gj9LDMi9Gks6QDpqPPx8ssvW8NJg5kPOrfu3btb50lH/OGHH5ooQHTQIcM333zj11prLevoGVBMnjzZBBINMY175MgjjzRx27hxYxPoNMaIEzqS5ZZbzjpW4knnRSeX7rB55gYbbFDRyV9xxRUWFiKDwQrPPProo+2Zw4cPt2uIF4KBTgnoQLbccksLh+sRssTjo48+ss71vvvus+fSUWCXd9991+4hzYgjnsXAiThyP50PouHee++1zvWLL77wxx9/vInJJ554wp6JQKHDoxNDnHMvcaejSgt9RBEdIqJ0woQJdh2ikbyh0yUcQEghFuhU6fgQFl9//bWdS0MnjOAjPXSOMZ0IGp5NJwulPvell16yvERIEA7hkWcMrqIYxlZ01AgPBg9Tp061QRTlYqeddqoQpwz0EC3YdPDgwfZM8qqUspYFMYXI5xncR1gMJBAKMGDAABNJhEX9GTNmjOVj586dKwY7paTthx9+MNs99NBDls/EDzFGXsdBNGWCsBGG5AkCF2GMWOHZiBzyA9FE+SJNlKFHH33UygL1tG/fvpYGnsE5xC1lie8cpywjwHACAHmGwCP+++67r6WT66LYTENZIV0MdMh34oDA5tlrr722XcMAAZtj0zTElXKDPYGBPbZBJGKLSZMmWV0mfOIKWaEfxXq2LhB37JKuC6SRchLhXvKMQS4DJ2DQQli0G9Rl0sdAALEf68TTTz9t+Uh4DK55ZhxQpCF95513npX7O+64w2xDmJRZ6jR1iDIK1EHiS7kk/oTJoIR6uddee1WUK+JH+aBMU65o70g/bRRxjvUhCwPzeeaZx19wwQVmO8ozdSor9Gl7sN1jjz1mdY32CicG9b7QQIIyzOAk2hCoE6SHdpRyQ5pIG4Mk7Ei8EdARHCzt2rWrNJgkjoRBWEBeMqgYN26c2Zu40UeQN1G8Fyv32fZ+1KhRVpYYTFHmyWvaYmxJm/Pnn3/adfzNYI2BnRBizmOOFPpt2rQxYR07qSw0wHTgdEClggeeBpoOBuh88GhdeeWV9h3wCjHIoCOKIPTpmGm0I4ge7uX/KE4QbHR0iKpIPqFPx4J4ih0mnRJCgw4GskKfzg+hgGBIe6MidCB0zHSwaaLQxzMdn18I7EmHRPyAAQRxwAsWn0mndOaZZ1YIfeJ/0EEHWYf31ltv2TXA9XTMeOvSIoPOjU4+Cop8RKGPxzQdJsKb/MZGpT6XfImeQ0RYBLGJvaMYxmsfBVUaRA3lANtAFPpnnHFGXkGaJlvWsjCgQJxRDtJhFRJRpG277bYzsUtelpq2fFCOSQcCCfBmkn4GYPnSxawVcUUApomCh4FVoXhHeAaCEjEKUehvvPHGlTybWYgPswrkPQObyGeffWZ1orpCPx/Uf+oy4h+yQr+UugClCH3SSh5SxmNYMHr0aGtjoo0R+gg/BprFvOjAoBPbvv7668mRXDnKJ/SJ77nnnlshMLHbVlttZbMrDFgZGGJTZilpCyP83bx5c5tpzBcf8ok2m9kHxHsEu6eFPm0dcTrxxBMr4gDMmlLXKBf5qErok16cPrQbCO98lCL080H5oDxEb3uxcp9u7xkY4KBhhi3dj3EPdZlBfixjtEHMEKVnI4UQcw5z5PaaoeNwderUSb5NT7CL/R86aPs/C+dDJ2trrkeOHOlC5+ueeOIJCzc09HYN622D+HStW7e27xA6alubmSV0pC509sk3Z7vi8Gx2WYjxXGaZZexFzNCQ2/dCEBa7OIQO0L7Xq1fPdhUq9A5BEFn2ktfdd9/tDj30UEtT6CSTs1Wz/fbbT/diKHYInbetpe3fv79tKUq8Qwdl58PgzNYEh4694kU00stL1hGuxaahA3arr756ctTZ9aGzs7WoQdQnR3P377HHHiW92Lb88su7lVdeOfnmXLNmzex7EGMlPzd0tLYGm3t5vyNCOEsvvXTyzdkaYdbkfvnlly506hUftgbkWUHIJVc6W3sbREelsllKWcvCeydB2Nl7LOmwYpkgzCCoLG683M7LvYTPczhXatqAeLCWmHcxeJk9DDLseIwbdmzSpInt0kJZCGKqon6VAi8fxnhHKJ/kQxBF9kzski5fkSB4zQ6FIL2sgaa+BYGcHHW2m0y6PpYK6aJsTJ482d111132LgzvvWAjnpWPUupCqfAeAu0OeY5dYlmjPED6hVqeEQb7M/XFTvKJl3QJG0jPOuusY+UDuwThaWVu8803t7YwQvtBOQkiOm+Zpu368MMPbSvNMPhMjrpKeQbsxoYtKQfYPl3XwsCn6Lr+YpCubbfd1t69IO5PPfWU1ZHqlOMIdqCusbUmcXzttdesfBC/NPnKfRpswvsu7MKTtgn3sP0uaaVsQePGjW3jiaWWWsq+CyHmLOZIoU/DiOAoJJRoJBETyy67bHKkMjTKiGKEIC/13n///bZlJg12hM6GRhfxVl3yDUI4lu94KRCPYp0SaeAFZwQB4o5OASFVU+jACGevvfYywcNLYunBA3bn+6KLLlowTXSI5BEDlTRcT/5VNeCpDgiSBRZYwJ5Z6nOJPwKeNBTrkCkH2J5O+fHHH6/4IAbZHjY94MhHKWUtDc9CkFDuCpU9Xpzl9woQBHHgwEAkUmraEK9nnnmmDQYQ8iNGjLCdsNIgJBlM8KL78ccf79Zee217qT5dHqpL79697ZlHHHGEPZMXX2tSHriHdCI0i6WzVKZMmeJ22WUXS+N5553nHnroITd+/Piida+UulAqhEX5RRSny9rLL79sv92BUP43IT0MtCir2ABxTJlZIrNTD9eRfuyQz1bUAT7Uv2I24qVewkDwp9NPHezcuXPB9rwUcNAgzgkD0U/9wZFRHcgf2tamTZtaGaZ80C7UBPKZ8NIDpgi2xI4zUseEEOXDHCn0EaF0Ch8V2EkEsUKHhLckHwgL9uA/8cQTzSODF/PCCy+s5E1GPEQhkWZmCtSZBR0oIowdWo455hh3zz33uMsvvzw5Wz3wntGJbbzxxrZlKXuk33TTTbbbTwQByu8W4H1Ld+xp8Yot6bDwSqU7LK7HC04YNRVnWTFBHuEhY+aj1OcSf9KEqM5elw6faxAnhx9+uInS9Icy1LBhw+TK/JRS1tLwLNKBqMqWPUAgsHsHohTBT/jM5qQ9yKWmDQF5/vnn20zKhAkTTLhcdtllydl/wFvL1qBcv+aaa9rOWc8991xytnogjK666irzRrOrE8+8/vrra+SZxvNMOhnYZT3u6XRiU/I8W3f5nr4OO1Le8SKTVgZlRx99dNFyWkpdgBhGNj/S19HmEB6iPlvWiFu+2cSZTTYN1CNmIrE1eUS5jZ7mCNeRfgYF2CIL9/PBE55Ob9ZGtGM858gjj5wu/bfeeqvN3OQj5m0x+xMuWxLjtMCWxPeoo45KzpYWxuDBg61tpfwye0j5YHe3moA9cE5QR7MQN+xYbDZLCDHnUHZCn8YWAZBP5ESY0sdDxJKFbOf98ccfu0suucSmOwv9kAnTz3T+/OhUnKamwU037HgcEVVpDycd3MCBA5Nvsx+LL764iTCWWmAHoAPjw1KPUmD6Hdsj/qK4zwopliHRKWMbbAScT+/Vj9hGfJKXaa8X+UZnu9JKK9V42QGDkfTWqSyvYNCHQCr1uXxYWkVZ4BOhA//ggw+Sb868d1yLoK4JpZS1LCzZweZxGU2EgRdCkTwiXnGQQVjpZS+lpi2WETycceBRqN6RBgbYp556qqWDGQ2IaSpWX9OQb5SZrl27mtABloakBXCpEGeWY2EPBlER0sysSQTRxAwPQpNnAeWVQU26XlCuENqbbLJJciQ3O5gWf1nSdSHWkWxdADy3iDviFvOegSdlN4K3mXaL5UgM9GYG2Ig2spTwuI4ZvJgX1BnSxVI58ioumWNwll5KiNMFJ8Maa6xRkadpmAGg3hFWtD9kyzfbz5JPLOWqTnmoX7++5S0CGbDv7bffXtE2ZWGpIwP3WIaBtjO2fUAYzACkIa9IC8vz4sCNAXdN4Hn0MYQZ4w2kO7ZTLEGD2Cem22AhxJxDrRH6dJbsX4xnkw8dA53FWWedZUsaEDZAI0fnzbFCsM4ST9sdd9xhje6NN95oDTvLVxB7NNK33HKLdcD5YMkDHeDVV19tz+P/rGeGafL11lvPfskUQUB4u+66q6UjNvKzA++//779jgDrp+k48TYx9U8aAe8wYuTOO++0NOCZZcq4EAwSVlhhBQsH7yber4MPPriS2GEAwNp+pr5Z+sHSjgMOOMAEShSMCEP2mUZ4d+/e3fbsxivHL0niLWXZRvbdgFKhM6azJm8YeB133HEmQlhqVOpzue6www6z+NLpkwY85SzHiWkAhA2zJAg3noON8eRhn549e1bZ+ZZS1rK0b9/e6gCimjJN3Nj3HA8kYrF58+Y2iKH8s7SB8BDxkVLThqeeQQH1h3BIY69evewZkZtvvtmWK/Cs++67z/Xt29fEMKIMECPUMwbdeDx5VjGbEHfEEoNxlhxRJlk2VBNIJ+WOtcvkNWWbmSwcAekyTn3dc889bYBFWigPeI0pr3EwC6wZRxxSlyjbzHawTKkY6brATFisC3FdfQShj72xI0vjKAeU4bQHHA8uv7bKYIj8xnuMqCZd5GP6fZBS4V0FnkG+ETfe3SgGs0/YBhv16NHDli5169bNyglpIH6s1aeukd/M9rGshjrJrGK6fEWwP9cwyKTOxGdQtihLEUQ+A0DanNNOO62irpGnxCU9mE1DfWEgQ9j8Kjp5zH3RtpRH7Ed9YhCBHYh3bCOBwR3CnzwkXfzIGGlPQ7min2JGjr6MMszSuTjYrQ7Yk7aTeO+4445WBwcNGmRLx5hd69Onjw0GADtQNik7Qog5kCDAagVBfNsWh+yGkv2w+07cHu6dd96x3RnSu1Pk488///Shw7RdGkJna7tSsDMDu0SwLV4xQsPvQ4NuW2ByX2jwbWs9/n822aIRQsNvu2AQfhCOtpc8O2CEAUByhbddP/ie3hGBXSSCQLQdSSLsoEC6gqBKjnjbto7dh4Iose+hA/ItWrSYbncFdmFgm01g5wt2h2C7TAgdhe2iQtpJC2liRw3SGGE7RLabjGkNnZXtBsIOGuxKkSV0LLY7C9ez+wO7xIQOyPZ+j4SO3fbRxy7Yh10rnn/+eduL+6tkJyXynJ1l2B4v5hHhks40QSTZFnXsnlOM35Jdd9j1g327gzCwMNnbnufwPCj1uX/99Zftex/DoRxiqyAabUu7SBB/tu0duxRxHWFyTxiMVuyswa407L6S3uUGSi1rWagH7GTCs/iQFuwEX3zxhe3gwfEgvmy3IfacxzZx15NS0xbEfUVe8/+IESN869atK7ZzDaLT8jTakV2Lgvi0cxF2Y4rlj7JKeaYsxHzJwu80hMGBXU++jxs3znZ/CiLMzrNtY7NmzWy/9lJgK1jaEcKjvFKm2VY07roTYTeXWF7ZevWTTz6x3WBIMwQhadvGxrSwN3ssR+xYBMSNekweRKhPbH0aw27btq0PA5hKu+5AGIxZWIRNfbzyyitt+0varHS+sY0iW81yHR/KDuFT9yEMWPPmQz7IC9oY4sWHvKJ+UH/CYLJi95wgjG13LvKGPInPZccb2toIf1Ou4h7xhMnOMeltg/NBO8XWrdiWe9gClb37ae/YRSjCdeyQE8st1/Isdr2i/ucD21EHqAtcz242tL2UIfIWm7LDTzrOPJeyHcEO7KhGHvKhvaOtZsehdLtE3DhPOOwKxW9XYEe2xoRi5T7b3gNll3pHnPiQ73HvfyCvKEvkDX2PEGLOow7/JJp/joSpd15EZMozNJS2q0gpHhbMxnQvnii8waHhTs5UhvC5Di9naJBr5L2Z1YSOzGxAWkInZB789KwDaeU83ijO4ZkrBtczxY4HlBkBPLZ4T7Ngc7x7XM8sQD5vHuC1whvJdeQP+ZQvvKrA24r3i7ixcwbpYWkF+UKYWUp9Li8uk1aWAARxkxydHq6J62eDsDRbl5IOnl9KWctCetP2TXs/WVbBUgOOca5QPKpKG2GTJmbXCpUNvOPYkfzGjlyTfh7ljx1jiBPpq2qmhmey5IElH8QrG15NIP6ESVkNItHttNNO5kFmyUOEeJIO7Jq1Z4S4YXPSwprwfNfkA68xNgjCzIVBle1ixEwbS8rSL5FSBogDeUHaC8F1lBngWuphTWcS0+WINKVnbCJ4jZmxZCckZjJJC+U025ZEyDvaFOo89a8UO2Eb0o5tC9kfiGcst9Q17ERdKwZhxzKI/fOlMR1nymn2mtieQdw5LUss67EM5VuqVF3oY7ALdYCykq4/tG9h4GIzM8yypGeAhBBzBnO80BdzDlmhz/S3EPlgSV9W6P+bIJjzCf3ZlbTQZ0caMXvw8MMPuwMPPNCWcLEblBBizqPWrNEXQgghROmwLS/v9sR3YoQQcx7y6Is5Bqbn2V2FZRKtWrWq8VIGUf5QTlgSwQ5M/wUsJWLnH36AqtTlP/8lLJPhZXU2IahqmYwQQoh/Dwl9IYQQQgghyhC5NIUQQgghhChDJPSFEEIIIYQoQyT0hRBCCCGEKEMk9IUQQgghhChDJPSFEEIIIYQoQyT0hRBCCCGEKEMk9IUQQgghhChDJPSFEEIIIYQoQyT0hRBCCCGEKEMk9IUQQgghhChDJPSFEEIIIYQoQyT0hRBCCCGEKEMk9IUQQgghhChDJPSFEEIIIYQoQyT0hRBCCCGEKEMk9IUQQgghhChDJPSFEEIIIYQoQyT0hRBCCCGEKEMk9IUQQgghhChDJPT/ZaZNm+a+/vrr5JtI8/vvv7spU6a4v//+OzlS+/Deu2+++cb98MMPyZGZC2FfeeWVbvz48cmRf49ZnTbx3/PLL79Y+1Sb66AQQoh/qFVC/88//3T33XefO+SQQ9yuu+7qTjrpJPfee+8lZ6vPr7/+6m677TZ30EEHuc6dO7sDDzzQDR061I7PKm688Ua31lprJd9mjNNOO8316tWrWvFFpB1++OHukksuSY7MPowePdo1adLExH5thYHcdttt54499tjkyMylT58+7tJLL3Xzzz9/cuTfY1anrdxBRB955JGub9++7q+//kqOzj4wkGMQue6667pvv/02OSqEEKI2U2uEPt7e/fbbz3Xv3t29+eab7pNPPnFXX321a9eunXvllVesk6oOkyZNcltssYWJ+1dffdVNnTrVvfTSS+6AAw5wW265pfvoo4+SK2cuf/zxx0wZSDDoefLJJ+2DACuVH3/80T3++OPuueeeS44U58svv3Q77riju+eee5Ijsw7ShG2qm5ezG7/99puV15nNyy+/7EaMGOEGDBhgA6L/gpmdtg8++MB16tTJjR07NjlS+8FGDKYvuuii5EgOhD71dcyYMbOl0AfylviXG9h+n332cTfccINmK4QQcxS1yqPfsmVLEztPPPGEe+qpp1z//v3dV1995S677LJqdZwsP9hpp53cW2+9ZTMEzzzzjHv00UfNo4yIevHFF92ee+7pfv755+SO2Y955pnHPfjgg+7hhx92SyyxRHK0apZbbjn3/PPPu1tuuSU5UhxmALDNhAkTkiPiv2LhhRd2d9xxhw1QywUG2JSvjz/+ODlS+2EwTxv1wgsvJEdyLLnkku7ZZ581sTnvvPMmR8W/AQOYUaNGuddeey05IoQQcwZ1fC12nyLymzdv7tZee213//33l7ycYeDAgbZc56qrrnKHHXZYcjQH3p4TTzzRXXHFFSakt9lmm+TMP3ANg4GHHnrIvfPOOzbIWH311d3+++/vVl555eSqnGdvyJAh1ulzD57LyZMnu3PPPdd99913dg2dD8c23nhjd/PNN9va6xYtWrgjjjjCLbjggraU6JFHHjGRgEdqww03dHXq1LF78bLzbAYtCH9mOpjd2GWXXSyNiIrFFlvM7ttkk03sHuJ0++23u2WXXdZtvfXWdgwv/+DBg+16vOrrrbee2QfxxbUsFeHazTbbzNWtW9fCo+MkbZtvvrkNNri3ffv2dh/pIW50qgwUVlppJbfbbru5jTbayM01V25siT0ee+wxE65c07p1a7uuW7duNptC/AA7sbyKQRheuYYNG9qyrTZt2th5IJ7YiLzq16+fLefCo8psTxpsRTlZYIEFXOPGjW2w8/bbb1ueMVvEkqpo21KeS9V5//33Ld8YNK644opujz32sKVllEtsCrG8kFY82EsttZQtgenQoYObb7757BrynbKw7bbbmhCcOHGiO/roo61clFLWsjDLc9ddd9nsDfm76qqruq5du1oaGcA+8MAD9rzPP//cLbTQQjZ4IO7YBkpNGwPAe++9140bN87stMoqq9hz1llnnQpbkpabbrrJrqU8Upa6dOliA87hw4e7a6+91sKmHjdo0MDOffHFF1aGtt9+ezds2DD3+uuv2+B75513rhigU96ZASIvKZPcD99//7279dZbLf+xHeWTfKNOUU+yMGvFM5jRi+Htvvvu5liI4BwgXwgPG7Vt29byIOZfhDYJm7E0bplllrF48cx9993XLbroovac5Zdf3uoKdQEbfPrpp5bP1FnqDAN37uNYhPp29913W51hcMSAnTJEmY9xwP6UWdobrl9jjTVsxhKb5oO24M477zT7kN+ERRljeSH1ol69enYda/Zph5iJ4DrylvoS62g+uI60Ueapn7RftFOUedoYwqMsMFsY24RYPym7lAdgCRHtDM9mAMWz9957byuP8NNPP9l5yhRlkLJIHmIbygsDKo4zE3b55Zdb3aEdxn6EA5QX4kldj+0Vcd10000r4sZx2gvaOY6xvIm2jvYQqNfYn/DjPUIIMVsQGuRaS2hcfehAfOfOnX3o2JKjVdO9e3cfOl0fhEdypDJPPvmkD52nD4I8OVKZ0On7IAZ8EDU+dBa+Y8eOPgwyfOiYfWjs7ZrQafkzzjjDh07eN2vWzM6Fjs2HjsAvvvjidg0ceeSRPnQsPognH8SYD2LYnh0Enz/ggAN8EAt+yy239KHzt7ROmjQpudP7IBb8Bhts4INws+9hcOJDB+hDJ+VXWGEFO8+zCCN0tnYNcSfeQcjY9yBCLZ5BvPggsv0xxxzjmzRp4v/3v//5/v37+yBKGQj6RRZZxC+99NL2vCAc/YcffmjxCeLXB0Hgw0DCbEE+BNFo1xKPIHB8/fr1fehYfRgAVDwziFBLZxALPgwgLCxsyrEgPu260In70IGbbcPgw8INHavFNXToFg4EcWBx4HmkP4g6f80119i5NEHY+CBmfBALli7yJQxU/MILL2x/T5kyxa4r9blhMODDoMwHoWzhEAZ2omxhS+DaF154weLHtdia/CSdQVBVhHXddddZONg3CHgrL0H4lVTWshBmr169fBAcfs0117S4kQf8D0GEWlkkjCBWzR5c26dPHyu3UErauIZ4UdYoBxzHTtiWugmUB9JE/h933HE+CDi/2mqrma3POeccy3fKF+WUMhOEoA9Czz/66KNmo6222srKbxDWZjviR54E8erD4NE+xCuIWss3oF4TT+zM/0Hwm+3I/yzUHcoueRsGm5ZW4kK8Xn75ZbMl11CXSFePHj18EM9mmyDqk1D+IQxIrD7PPffclk+kibgSpyAWzY7YKYhWu/6kk06yPGrVqpVdR13g+eRPGHjY84l3GLj6IFrt/jD4MZvTtlBuYhm64IIL7BpsfOyxx1p7EgYWdi5LENv+9NNPt3hyHWUBWxEuZSWIe7sOm5J27BEGSv7QQw+1PMam0d75CAMxiwt5f8opp9j1Cy64oA9i2eIbxLbViU8++SS5w/swuLPnh4GefaccUKfJX8optsee2CqIc7smtkNB1Fu8yEvqD+WZNoBnDRo0yNLEMeJAGJQN4BmUXcoaeUr7wLW0CWFwbfeTV0HUm30OPvhgs0PTpk19GMhYGECciEdsZ4UQYnahVgv9Sy+91Dq7AQMGVHR2pUBnjiCMwi7L+PHjraGnQc8H4mXcuHEVAptO87LLLjOxgKiDN954w8KgU6dDJH4MIOjcskKfzva0004zAY2QOeyww6xTotP56KOP7N4hQ4bYdQigSD6hX6dOHb/LLruYWOa+p556yjpKRBJkhT5ice211/b77befPZt7iAcdIH9jC9KFCPz1118rBErsYLHja6+9ZtdiB3jzzTftOcDxRx55pKKTB+KLGEec0dFzDcIQMZcW+ghhnn399dfbc7nu/ffft/voWKPQQOhz3/rrr+8/++wzuy4K1jRR6HPtRRddVGFvBDWiBPtBqc9FZCHmBg8ebOEQ3oUXXmjhp8UwgzgGDt9++60dw7YIE/Jh6tSpdoywELwIFQRPTEMpZS0LopJyxkAxlj1E6dixY+08ZYproo2II+UIsUfcoJS0YZsXX3zR7o8MHTrU6iQDOXj11VetvD/88MP2nbggIgmTz3PPPWdl47bbbqtUvqLQp2zGOhDjS91CNAPHeCb2YHAKUegjzJ955pmKZxFGGo717NnTRPXIkSPt2Rx79913LW+ioJw4caJdg5COxLKTD8o+4hmRSpoodzy7kNAn36l/3Md1DDDIv65du1r+I5qxRe/evSsGd5QRxDMDKOoiMCjiWLyGvIzlJsuXX35pAxIGDcSLtJCXDCrTQp+6QdrJP+LGZ9SoUZan1I98EGccFpTlWL45RpvTsGFDizvtGeXk9ttvt/MQ85xn8px+/fqZg+Oxxx6ryD/+Jm8plxDbIeomgyyuI20MJrEFNojHeDYDFewT6zWDAQaz9CExnyhv6667rg0YuA/7ED71KbZx2DU9cGTwx+Ah2k0IIWYXau0cI1PcLIEJjblNs8dlAqUQGmlb5hM6muRIZZjuDUK74EtpnGeZAGEwjc7yB5ZRhE7CvgPvEoTOzaaPWVtN/Fj6cvzxx9v5NHXr1nWhA3JBkNtzg+iyuLGrENPI3MtyGo6FDiq5Kz+hA7ZlR0yrcx9LDFgqEMRLckVlCDN07DZtTZxDmbB4BOFk95NWCIOMvDZjtyJswbVcA2uuuaalKYghF4S3/R06cLMTMFXOco4wUKmIJ/ZjB6EItuN9CZZRBGFkz+U6ltCwxICXqUOHnVydo0ePHhXhYcdCsHyFZRzR3iwnYJkFy0FKfW7o8G26n/xhKQDhEB7hskwmwhIIluUEEWD2YFkTuwqFwaYt2cAOEWx9yimnWFxiGkopa1lYlsPyBXbHiWWPPA7C1c4T56ZNm1oagpCxZSlBLNnyhCCKSk4btgmDK1uCQZ6SHsofcYu7tvCdvGeJDi/QE5cgYi3MmD4oVL4OPvjgijrA9UD+EZ8wwDB7sIyDcyz3ScNSK8p/fBZhpCHOLG9iiU7Hjh3t2VxHGslrlrEQJnUBO/IuD/mPjWLZyQdpivElTaQ/++w0YUBiuylRT7iO5R/EgaVJlEeW6xAOS6JYzgeUEdoSyhLLWoA8DIMce7GZ+4h3ELF2Lgvlkryn7QzC2eKKHfbaa6/kity7BixDorwRH/KPD/ElrmxikA/KdBiM2RJC2lrKPHYMYtniy98s46PchMFZcpezJUTYmXaSMsjSSZbYsPSIssWzV1hhBSs/LGVLw1Ii6gnpwA7xWYTDMfIAYp6Q16SPukL5YblYzCfKG8t6WEKInSibxJX0kieEiV1jmMCyLt41IW5CCDE7USuFPgL8mGOOsUab7eDoHKoDHSAdIQ12PgifzpwOMB+IYQYaW221lVtttdWsg4nr1hE5QGdGZ4LITkMnk4XOJS0EYmcehTPQqRBeDL8QhINdIoTBvYUGCIiSs88+29YW08GyVhthWipRZKUhLDpKxCSiDJEbRSQgUKdNm2bn0/dG0QcIhA8//NA1atSoklghfRzj/hgeEA6CJG3HQmDH9HUIg6WXXtqET6nP5X+EBwMARF+E69L5xkCH688880xb2x4/iHDEOOFEiBfxSFNKWctC/iFMEEX54D7WYRMegoj1xqzl51lQatoAMcX7FzGv49rqGDfy5KijjrLBE+urjzvuuOkGaMXI1h/gHYwddtjBxCfPZKBGmOnyAPnuTUNeUxYRdlko19QZyi3h8MI/GwAghrE/+TqzIN/TZZ/vCHkGhrRR5AVtEYOmNNiWtozyCrxbRLlgfToDScpNIRCx5Df5loZnR7ApYfNOBI6GWHYR6ay7p/zmg/yhDLH9b7rMX3DBBVYuiCNlk0EYNuU5DLpYR8+affKDdFMfGbjw/k4Mg3eUeHZ2+0/KZbpOYxeeFct0PngG7TR1Lm1/IA6ESRxoj2kjSdfGG29sg1/eXxFCiNpArRP6vBiG94VGF68j3q/qgoeIjgWPYD7oBOnks51ghM6Pxp7OjC30eBkMj1y2s4BCYqwY6Q4rku9YqVR1b5s2bcwDd9ZZZ1nHxiwJnq6agDjBS8gLgQiPwYMHu+uvv76SYIydLzYuFLd4TVa8AfdlO/YZgWfwYUBU3ecWSwNwjkEIA1NebI4fXqx8+umnTbgUozplDYh//OQrexy78MILLT4IZF5e5gXRfPGoKm14WXlhkYFF79697QVYwk7D/cxSMGPE7BYvNCLwEK81AYHHLBJeYwZPPJNtduPguCbks1NMO8KX/GMAwy46vCBNvlFHaINmFYhQnh3tH8tlGq4h7jHtDEIQ5eQBzgrqNXmbj1hG8pXzNDyfGbp02aXdxaOO/fPBPXx69uxZ6T5elMVrz2CVusZGCAhtXqTHpjgIeME1PfinDaYNST+bMK677rrkihknX/5jW+xDPEkLA208+gxeyHdmx4izEELM7tQqoY8HCfHIVDadO0s/YkcYoXGmk87XeEdopH/66SfbFSLbgdLAs3MFnQ2CJB94P+mgWCLTvXt32xmEJQzpDgovEfHA+xShU2WZxOwGNsSDecIJJ9iuEngO2Y0jwvli9kzDgAFRhxhlaQFLIjbZZJNKnkI86IgTlhNFoUE+MPiKMEuDRxmPXnpARjxYUoHHupDYrQo8iuRNBO8sywuaNWtW8nPxGOLpZVCY9i4isAg/Er3KLHdgZ5D0B5FMOMUopaylIa8QZtiSuKUhzcQPzyneUQYODJoRMSztiZSaNnagQXCfc845tqyHgQPe1ywMjvACs8sVu++w/IFlMBDrb6nli2UqLKdgJo+dlXgmgpZnVBfymqUWcTlOhLKIxzaej2BX0opgZZCDHYtRappoc/Bqx7YIO1MeKTOUNbzfzCwwexLhWgZY3MusRoR2hxkUBurkKeI4H9R3bE8Y8bn8T7sYYUaLWQPKDZ7sbPmlnuSDZW/MXDK4p2yl72GAFMs87TfhM9hEwBOnFi1a2DnaC5bhESfuSYdBmIWeXQzSS3gxvTyDmROWf6Vn1jhP20QdI34RZvQYvIwcOdLyiMF6hPKDnWLYQggxu1BrhD4CgzXYbLnHdnwICjo+Pky/x06VBhoxxFKBQuARRMjQaLMuO94bp5tZT4xILTRbEJd04IECxNDFF19cSQSxzp5OGm82Xm7gb7aqnJ1ghgRRj2AAOis6rbgcCkFOOhAEpQgXOnhEV/TYEi7LRBAqEYQ+P/jEgA1BAwy6eCchQjhsDUg4LJuI8eM6OloGYelZguqA0OQXSsk3wkWAIrRY51vqc7EJHmoGCaxjxjbMhiDG0+9DUIYQL+Q9A4UI4TIoqsqmpZS1LGxByX2Ub65HfOCNZrkQYoc0ppe6YA+2loyUmrY4AxLfFeC6rAeZ56Z/DAuBxD1xWRy2pLzw/FLKF+WRNMTyxfIbBiykp7owaGMdP55a2hTyhDiwxSPtwk477WRik60TGXBFe5EG4lBoPTb2I2wGELHuF4M6yA/10ZZhGwQkdmbJG3nF/zg5GOxFQUqenX766ea0YDaGessAJJZX4kpaiEc+GByQNmaIEPdcj+ecuhohHXjYST9iPKafODLASw880uCFZ5nWNddcU2nWgzQwOIxxpPwg3Bn0MTBB+MfZCUQ4y7MYbBKneA+Q9+kBaClQxrAlaYlhkT4cEbRBtMuxbOLsIL3EjeVtDJp5XyCmP9a99O+XsCyJ8kJeCiHEbEVo2GoF7EjB1mtEOfsJnYPt5ABPPPGE7aLAVn7FYGcLdlYIjb1tJ8kOG6Hjtl0e4s4MhQiiy7ds2dK2aWNnDP5mF5W6devalmwQOhPbnpO4EG92bVh55ZX9CSecYNsFRtgyLnS4tltMJAhv20WE3S0i7Eqz+OKL+9AhJkdyu2y0adOmIq5XX3217TTy6aef2vcI2yfGXXbijiDEGwiXeLHLSOjYfBgA+UaNGlXs6BI6P9vuLnS8PogD24IudHy2MwXPijvVRLieXUVCp2pbQYbO23b24JnsdANBgPgwYDP7kSbCxO7sNsSOH5+nttfk2YRFHjVv3tzyizQHEWXXADYPAxPbwaUYxI1dd9iphPxgO0P+D4LD4hxElF1X6nOD2LAdnDhHWcJ2YSBgu//ss88+yVW5ssZuK6QVG5NvxKFdu3a2KwuwlSlpYJeaNKWUtXycffbZVi8oe8SNcoh9sX0Q72ZvdtphhybyhnwiH0g7lJI2ruE+0kU4QXBaXhNXdjGBIB7tfNy6kh1TyAPKIWBzdisJQsx22OEayjP1GPuznWka7MXWs9iKbXXJE8o2ecmzIIhQeyY7RVVFEOJWTnk+eUQcSDPPiHGkXGFvyj/H+Zu0kjeFYGckyhW72DRs2NC/9dZbFbu3sOVsEOZ2HbvuBDFuO9TQ/rDVJnHBDjF80kw7QZopN+QbdiS+Y8aMsWuwGfmEHbAvz6VdiTsRZaF9Ov/88y1Mygjb/hJ23NI37h5DuJQ7yg9lr0OHDtaeUH6KlT+eS7tCmohPLPPsxkP7EWGnHexNPILATo7moGwQH8oBdTAIf0sjYT799NN2Tb52CNtSRrEl+QtBnNvORrRjlHPKHJA+tl4lDsSXNFJvyN8Pk92MaE9pE2kLKN+kg7/ZDSvCDkvES9trCiFmN2rND2bhncKDFL0qafCuMWWN1wbPFh5GPIXFPL4kG28gXlbWk+PVCmLXvGdM5+JRKgT3sqwDrx9T/Hie8NqyLAcvT+iY7Do8R3ht8QaFTsA8PuxWwb08A/B046Vjmp74A54vPFbcg9cLSDfpJ/w49R09qXjIsUHotCw8puxjWMB9oSOze7EjXifC5TtpYWkIccTbhTeOGRHiQ5iAbZhJYTkLu5EEcWX3ES6e2dBJ23UR0oNN8d6xzIQXfLE13rp4LfHAM8euJ6SNHTpYooBtoi14Bl42lmqwJpjreGGYFwPTz+Qa7IUdor3ygSeOl/24Fq8tXlrCxnMXOnjLN9Jc6nO5jnQxM8EPlbFEiSUO5B/T/tg3Xke+8ANVeLjxtrOUJYgWWyYV8w7PIWknryLcW0pZy0I9ID/x8hJ/1vlTvrme73hksT02Y/kOx4l3zPdS00bZYI01P0qER5aZLNJKuSCd1AHsiMeWcsEyDNIePbdAOWaJCeWJeJI+8oo0Ul+yy5vwkpMvzDIFQWzlEdtR3wmXZ1LGq2oDIsSLesoOMKSdHy3jJeUYR+zFUh1mdPgfDzrPJexYR7IQf8oXy9hID+miTSGt5G/M95NPPtkNGjTIygVxiHWG8paOO2ki/7EjdsGGzC5h5xgH7EdeYG+Wz1BWyM9Cy7wIk5kD6jZtBnWQZ8Y2hPsoB6SFuo/NsX0QuRY/6muhdpL7qGe8bEv5od5QfrAFswwxzjGv+B7rfRqeTTkm3VzHC9g8m/eseDZ5k22HeDblgTpAGxrTQT5T73lJmXae8grU9Zg+6iF5S3tAeMSLe1new3lmaUgDZSTmIfdzPUv/mNEq1gYJIcS/Ta3+ZVwhqkNa6CNA0mJTiP+CKPQZKCGuRe2C7pMXg/kwUFxuueWSM0IIMXtQq17GFUIIIWYXmG3jPRbeh5HIF0LMjkjoizkGpvBZgsKUfXaJgBD/BSwH44VQzS7VTli+wzJFXl4XQojZES3dEUIIIYQQogyRR18IIYQQQogyREJfCCGEEEKIMkRCXwghhBBCiDJEQl8IIYQQQogyREJfCCGEEEKIMkRCXwghhBBCiDJEQl8IIYQQQogyREJfCCGEEEKIMkRCXwghhBBCiDJEQl8IIYQQQogyREJfCCGEEEKIMkRCXwghhBBCiDJEQl8IIYQQQogyREJfCCGEEEKIMkRCXwghhBBCiDJEQl8IIYQQQogyREJfCCGEEEKIMkRCXwghhBBCiDJEQl8IIYQQQogyREJfCCGEEEKIMkRCX8yWfPXVV27w4MFuypQpyREhZl/+/PNPN3LkSPfWW28lR4QQQoj/nlol9P/66y/33HPPucsvv9ydddZZrl+/fu6TTz5Jzlaf33//3T355JPusssus/AuvfRS99RTT1mnPat47LHHXP369ZNvIh9///23O/roo90VV1xRUl789ttv7qqrrnJ333233Tun8/HHH7vzzjtvlotO773bZZddXLt27ZIjsy/E9YgjjnDrrLNOcmTmQZm78sor3aGHHuqmTZuWHC1fvvnmG7fKKqu4Cy+8MDki5mRmZd36N3j55ZetT6ZvFqIcqTVCH8FHY9K+fXt3/vnnu6uvvtodddRRbpNNNnEffvihNTbVgc6qU6dObuuttzZRdN1117k+ffq4Lbfc0nXp0sX98MMPyZUzF0TpTz/9lHwTWchHPKMM6G6//Xa33HLLJWcK891337mLL77Y3Xjjje6PP/5Ijv63kMeUz0GDBiVHZj6FnvHss8+6c845xz344IPJkVnHjz/+OMvqysyGuM6Kusfs0zXXXONOPPFEt+666yZHZw8Y7HXt2nWmDvoY2GDHn3/+OTkiZoQBAwa4Y4891v3yyy/JkdrHzK5bDJjp7/8N8U2fQfznhEG6mDOpNUIfb/5SSy3lHnroIffOO++4t99+211yySXu008/NW9udYQ+wgQxj5hEHI4fP95NmjTJjRs3zkQ/AgnvHKJc/LsgIphpYdlOkyZNkqPFoVwwOGDwN9988yVH/1sQQXfddZeJ7llFoWfsuOOO7plnnnEHHnhgckTMSmhPcBIcdthhbq65Zq8m9YMPPnDDhw83Z4iYPRk1apTNRtZmoT+zYdBAuX3++eeTI0KImjL3mYHk79maeeaZx7z5jRo1cgsuuKBbaKGF3Morr+wGDhzo6tWrZ0sISu1k77nnHluuc/bZZ7vDDz/cLbLIIiYQF1tsMbfRRhu5yZMnuyFDhrhtttnGrbTSShVLhmiIEZWRzz//3I0ZM8YtvfTSbv7557eBAdOANNq33XabnatTp45bYYUV3Nxzz233TJw40d1xxx3utNNOs+9AuAwubrrpJvfiiy/aNCLiYcKECa5BgwZ2DR45Bjd4uGNYeCGefvppt8QSS5g9gAHPe++9Z88fOnSoe/311y19yy67bMV5BjRffPGF/Y04Jgw8kaQhy9ixY92XX37plllmGUsL8J20YYsFFljAjr3yyisWf2zL4It4L7zwwjYTM3r0aPOWkE8xDITHa6+9VmEbbPzmm2+aHQjro48+snuWX375CvFOuC+99JKlB28/ecR54oGgoYxgO57BgIEB3J133mnXESaQDq4rBEvBnnjiCXfrrbfa4IFnEubiiy9u5/H+kB5EdnoJFl7dF154wcontmVJGPcvuuiibskll7RwY1pJF2HcfPPN7v7773dff/21lSHSBZQHOn9syzIcBqPYhTRhV+Jf7BnYkjJAnlNXIuQ7Ayhs8v7771u5IU+i7YkL6aY8ZG0PxOuBBx6wfCYfuPfhhx+24wyMI1OnTrX43nLLLe5///uf+/bbby19lIdCEHfigE0fffRR83LSyWP3WHaBMkuZpmxTBihD2JR8jfUCGCziDcR21F1sRHg8h2VhEWaDYt0j3eRvtDGQr9RJyhh2I894Fh/aCZ7B/eQT11I/Yz6m+fXXXy182oh0uSFPaTMoZ9xL2aVsYTfixP/kBXGKeYEIIk3kOfnPdaRvxRVXtPNAuNiGMsJzmzZtauHyifbkb8oZaSIc6hD2Jl8j2JuyMmzYMLM5ZZX4kz/rr7++23zzze26Uuob15B3PI8BKjajXMS6lYVnv/vuu5bPPJ/84xh2imHynXC4hrJNGaKcEW5sa9JwPWWANpqZMMrxvPPOa2Wd/oM2lzhiI45HyB/KAekhH0gL9Qmb0NZio7p169onPpd8pexTFok/dmEmmX6Lthb7kzc4rwi/WbNm7rPPPqvoT2aFTanrxIu6SVtNGSa/aQuA9BMf2gHqIfUDe6fbkVLqFmWUPoK4kzfYivYMu0b7UK55BuHQ5tKOUM7pVymXI0aMsLKGLSh35BH9Ik4M0kccWL5LfmBT+iWW3hL3++67z8oz9ZY8iWAv6kVMP/0T+UzZ2W233SwPgLhQd7iOsEgbz8ROMf7UZZws1AVsRl4Tx2grbEebgH3ylUUh/jVCw1drCQ2fD52qP/nkk31owJKjVXPwwQfbfUE8J0cqEzpXHyq/v/jii+17qLC+SZMmfv/997fvkdAI2HVB4Nn3K6+80ofGzK+yyip+++2390F02fkgpn1oYOyaIKbsmkhoLHy3bt18ECk+NHI+NIQ+NOR+p5128i1btkyu8v7AAw/0oSP3QeAlR3LpDw2+f+SRR5Ij3oeOw4fGyOJwwAEH+NVWW82HAYw9F4KQsbA33XRTv9Zaa1mYq6++ug/C0M5nadOmjQ8DLB+ESnLE+9C5+dCY+dC42/fQ2NkzW7Ro4ffZZx/fuHHj6Wx3yCGH+NCo2jFscc4551g6QwNux0Jn5YNwsfR36NDB4o1NwoDIzsP1119vadl6660r0njNNdf40PhbGng26QPSGxp4HwZAfr311rO/Q4dQKbx8tG7d2vIH+/AhDhtuuKHlE4SG2zds2NB3797dvkdCZ+9Dg25/h47NB9HAFJN9QiNveRvTevzxx/vQeVk69txzTx+Eid9kk00qbBw6Wx86FTtHmKuuuqoPnbHlNemFYs8IHbndF/McQmdlYWKPNddc0/IPW0Mptif9xCddToOg8KGD9euss05ylfdhgGbx5bogLq0s8Ddhhs4yuWp6qDtcHzpbi+Maa6xh+RU6aksPUG6uu+46sxfX8FzSyXUXXHCBXQOUgWOPPdbqHnEMg3VLO+WQMhOZMmWKb9WqlZ3ba6+9fBjYW74cdNBBFeUoDMotDMoWZQ7bXX755T4IMks75XGzzTazekI61157bR/EnN2b5vvvv/dBRFQqS8Bx7NWlSxcfBJQPg3eLB/mzyy672Ie0brfddj6IJ7sHexCnk046yZ5PuJSpNMSfeykXsXzw6dq1q50nDnvssYfZiHYKe1OeKGdBLNk1EASo2Q0bN2/e3OzN84jT6aefnlxVWn0LYs7yjnZiv/32s3rUq1ev5GxlyOsgXC19hMM9hEl8w6DSbAW0L8SL8kj7vMEGG9i1tAn5eOedd6zNC4LM2tQwWLE4B7Fp54NgtjIQhJt9B/qWIGDtntj+3nvvvVZuyG/KC2WBPKFNjmy55ZZ+2223NdsSP56LjckX6jr1nDKVrsPYl/oIs8Km1B/KFnYlXrQp6667rp2nTJNG0kXbxDOJL2U/Umrd6t27t11Dfdlhhx0s7rQxYWBl5+kLTjzxREtbp06dfOfOne18GDj4vn37Wl1K24X6FcS3DwMAa58pu/ThhE/ecI56SHhcGwagFgbxCgMHeyaMHj3anoPNyDtsQRnADrSRQD3r2LGjHcMe9JP8TXrDYM+ugWuvvdbKCv0j9Yo0hkFGctb73Xff3fL3jTfeSI4I8d9Qq4Q+DdXEiROtsRg0aJBVcoTZhx9+mFxRGltssYV1bl9++WVypDJvvvmmNQRHHXWUfaczadSokTWkaegUaAij4H3ttddM9EZBi+iiE2rXrp2fNm2aHaPxTgt9OhQaERo9Gn864PPOO88aqbSAohMjzlmhz/Mffvhh+04jTNpooGm0gTARb4gJhA3X7LjjjhY+gh9RQkeGbfOBMCH+aaFPY0YDN2bMGAuPRpe4RgFDozt16lT7O9qOzjAt9M866yxfv379CvFL3Oi04nMQPFtttZXdSxhAJ0XDz7MoB4RD3OnUER8MmIgPgxYGEdji448/tut4DufJ12eeecbCywe2JC5AfBHWdAZR/CD0Ebr77ruvfY8w+CFsIE6USTp3BgR0HDFdlA86miuuuMLECnGj/CCw4uAIAUCHT37ffffddh0CGjHB4AOKPYP6QVxixxVFKffGMk85wp5Qiu0ffPDBksrp4Ycfbh3wyJEjLW18qCd0+qeeempy1fRgD/IW4T1+/Hi7j/q03HLLWaf9888/23Fst/POO1eUL9KBoMIOH3zwgR1DKCFkGJhQ77DfgAEDTASkxcgll1xidmJgDzyTAQdiCnsAAziEBnmBwOYabI+9hw8fbuUBOEYasEdaJKZhMEIcEDMRnsOxYcOGWdiIB8obQjKCCCVOMVzyl2sQHpQn7ot1Kw11AbFMvlGOiHO8jgEMz2XATV4Sxquvvmp5zqCTOsy1DNARcjgTuGbSpEkmArFJFPql1jcGI+RTHPCRL7GuZaFdQojS/hAmUC6pd+Tt2LFj7dhjjz1mdSXWT+JMXSE/snCOAR11AcEPpJ22ifpH+SFuxBEnCfYD7EYZZ7BF2X///fftGvoDzgF1EZFNmYsgAGknzz33XLuO8LAJ8X377bfNTtiZODEIIJ185/issClllYE3dTsORhnIDR482P4mjrR/xAGoOzwv65AppW4hiOlHyQfijthl0I6tgbxEQO+9994Vdv72228ryh1ppn9gwEC8YhnFkUU7Qdkn7znG9YRB/Zg8ebId4zNixAirJzfccIOFTz/BoIa+kDaWa6iLOBgIM7aXtPm0V7GNBuxN20MZiMf4e6ONNqooA4Qf20s44ogjrF/iWUL8l9SqXXdCJXLbb7+9a9u2rQvixqYHWRvL1GJ1CI2MTa+FzjM5UhmOBwFt03fVoUWLFm7jjTe2v5mWDB2sC42/TdeGBs+OZ2EaMnQGbp999rH/efZJJ51kaawuTFWy1Ia12aExtqnh0Ai6IPBs6pFp4UhoKF3//v1tWpO0ho47OVM9uI94M0XJchGeh21Do5hcURpMsbIMIDSwZjvCJd7YLjSgyVXOzrNDUpMmTewa4p6F6XDuC52gLWfgOqangzCx+1lqUQiWa3FtaMxtuQX5wDNCx5NcUTVcHwZz9lzKQOiYK6bisXkQTi50cPYMyljo8Cw9LItJQz4GUWtxDoMLK1vkIxR6Rj54p4W8D4LC8h1C512x3KYU2zNFXVU5xV5BENoL8rzkTjh8eB8miDabii8GZZYlDlzLfdQnwmeqPQgNm86nDeAlvVi+SAflgbjGfGWJA20DccVGpCuIMnt3IUI5ZUkBS9Y22GADqyvkRZs2bex6lslFgnh3F110kQsDaIsXtsfenTt3NtsFEWJ2W3vttS0vWLqUD5YGUDdYe0xZ4MOyG9JAuSPsIFaszLZu3drixCeIXQuXpWGR0HbbOwHEl/uIYxbuIa84z//EmeuCKLIle5SpY445xvKSa4h/hw4dbJkgz2UpAnlGWYj5GcScLWcg3ZFS6xt/Ey7tFHHgezqcNGHQYe9NsbSSMIElUccdd5zdG8sSYdC2BiFp5Y/0sdwyX7tAHcC+1D3STlwIa9ttt3Xff/+9LZNhqQhlgqV1sf2nXePD5g3YkXOkN4hdO084pCMIaDuXhrrNi7bYnvzAjpQXyjF2ojwQ5/g3H/6eFTalHtF+HHzwwRXLWVhqEsS8/U0cKYfUGWyJXTfbbDOrS8QFSqlbwLKuNddc08o4dYM8IR3kKZAe7MESTeoL1y2xxBIV9si2bbGMxnvZhCAMguxvruc68jEMyM0OPLN58+ZWZlgWBSybDQMVy3+WsnEvS3XDQMDCj9x///0VdiF9QDtEftNfE2fgHMuMKFfEPwzgKi2Zoo7R9vIsIf5LapXQpxLRwFPZWBvcvn17a3xj418qNNZcX0h8I8CouDQS1YF7iB+NHmKHxgFxQqdcCBohGrK0MKaTig1MdaAho3NiBxoasPhh6z/iRgcToUPjM6PQyPbu3dvij+hA1NFJ8bzqgI2wFY0pwoKw2AkJ0mHRoNNJF4OGGPvR6KchveQpazkLQUdIeUL4Iqx333136zQKlZXqgP3JIzoHOtB0HiEyGICmwbYRygRCuCbx4HkI25VXXjk5UplSbF9KOZ0yZYoJcgRjuuOk827WrFlRu0Ps4NMwUKY+YhvWQfO8bP43atTI8pV1wMCgjLAQFxE69XRcEVqkCYFIXY35wA415DdCJ0JaVlttteTbP3zxxRcm4shLbIaAIq6F6jsOCYQf64h5BmUN4cmAIQov4s5xdv+Kcdp1112t7KTLB+lr2bJlhfipDghDhGvjxo0rtXHkJ0KeNoRyhrhDABPnNNTB9HNLrW8IQgQU7SNpxg6F2gkEElBu0nA/top5jQ0YnLDjEXWWd7YKhcl6dAauXBNty4d7SS8ClnTwvhdpis9gzTcibocddrDvnKP/YMCZDoe13Ng2TboOw0LJu1RVtY+zwqYTJkyw+BQTngjhfffd17bMpUzzHhvEMEupW0D9oQ3BMUc7Sl/I+xYxHNoE7M6AjoEsA84oyKuCcopjJAsDBgZCDACIO89msBqfSTtIXFdddVX7HomD4QhpZFBCe5eGASD1NjrMGGwQPvV///33N/sKMTtSq4Q+FXz11Vc3bwEdIVva8Tcv/KS9vlWx7LLLWgdW6B4qMh02AiJNMcFOY4JnALHE33vssYc1XtlGJQsCrFSKPR/orGiw8AIjQOKHrRbxwuEprSnFno2deDGqR48e1pjT8Q7KbPlYVdx50S12sMSfl7poQGtCtGm68Y5wLNv5RuikyTdersOjisf0gAMOqCRaZwRsQNzwqqfzhw87R1Gei5EvPaUQ7UH9yUcpti+lnHINZR8hmIVnF7J7VZBu7kdcxb+zcDyKjVLiSl5QXxCS6Xzo2bOnvVyHaCoGogQxxMCegQKij0FCvrRHEBQdO3Y0ryaDFl5kRFxyLIL9GBCQBzFOzJwQJ8rjzIBnkPZ8+YFtYzmL11VFtHe+8smx+BxszYwjXmo80HjA8Xrmo1Bec4xPrJOIMYQ4M2UcIx+YucKuWUgP4FVP5/lpp51m7RXxIWzaL7zLvODK4JWZH44hqAGbUNbwDKfDueCCCywuM4NZYdNiYQJlkgEDXns8+wjZdNmEUusWW2BjEwZlzL7TF6Zn3slX6gszILQ19OH05Qj/msDglLabcrDOOuu4Qw45xGaD0mK9lLKcrhtZO/E9bXs0CIPBOMBi0MnAXYjZjVol9LNEjwfertiIlwIjczqCQo3Kvffea+HhFQAqNp+sxzXt9WNgMHjwYPN+0WidcMIJ5hnBI1kMpllppBh4RHh2tkElrRxLN1ZpDz3gZeE6PDY0rukPywayHopSIDy8GGn7Zp8LLD/As8/uC9gNzwrEhhFbpcV+2naA0OVZ7IbRq1cvE9g0nDWBgRxCIXpeInibycOslyxCp4PoRXDz42l0FjTixCtCB0V6sjbIevKAtKfTjBDBG839dErp/MEzx+CiumSfkQ/KGM+My36ylGL7Usop3n5mHfAKYv8IeY2HtqqZGNKRrceID7x/hBvretbzh8DB/q1atbLvlEXqSTr/CTsdVzy0eEdJN1P02byoqt6yjIa4saSHH47Cm48YzDcIiZBXDKjICwaT7KiDeEx7zIk7YTCTlI4TbQne9pqSLiPYk+fi1U+XW65hxgmPMQMWbI4HOuupxI7p8KpT3wjzlFNOsVk/PLnXX399cqYy2J88zD6bZ+BFRRRGqFfkITu4MChi8BVnBNJgW9JOfNK25cP9cbaK9OC9pz6wGxEzN+mBH+eB2a9sOCwfqS756vCssCn1j7xjQJ8P7iNs0sxyOJYOMohNU0rdIn+YNaE+sFsQg1bqFEuPsjD7xyCW5TI43mo6UKIs0/cwS8AMNoNi2tj0DCHPp33Jpj89C0fdo13Aq59t01n6RLsRl5IBfW7fvn3d448/bvlAWoSY3ag1Qp8G7tprrzWxEisl62jxZtBpxQpNBWXtMdOohcBriacBTw7iLooLRASiB+83U3Gs8QM6O7zWXEvHw/WM3JnWzAoT4hY7ewQISzKKgbhDSMfBBQ0mvw/A8qQ0NCgsN0CIAumkcU+Dd4cZDxrstBiiIcPTnh4klAqNGp0/H+LHlmnpX8TEZiyjopGmw8JWNHhRHPM/Hmy8ROQhYbC+lI4gDXbjw3nCIf7F8rAYDDR4LoI9ri2l82EnWUQWYqsQPBt78T8CFU8f+RMhfXSYlDuWAgDbsMWBTYTn48GlvMYygnhibSvvM+B14zmRuOylOuR7Rj4oE3go2QowCnXuoQOGUmwfyylb0nFdvnLK0jqEBuv5KSeRO+64w9Z9xzXNhaB8Yx86YuKDjVlSxNQ/Aw3+R6jRmcY8wZZnnHGGtQHbbbedHWMgj13iWnjKPfmYThPtBd5KyiWzURGuR8DnG7ilIX5A2NiMeoBYSQ9w8sHyKTzKtDHUG8RIXLYDzBLEbTvTsOwgn5e6KiivxDEtbrAhXm/SiS1juxC3WGXAhNhH8CBm8VaSF6SZbXHJo3RZLbW+USawK/YiXjyD+/JBHBC7zJLGMBloUuZwWOy00052DPGFvQgTwR/XSPPcLAweWGKD7dM/IEZZpn2MeUdYhI+9WQZJ+xX7AiAMnoXt0s6ffIPQUsAWPIvyH5kVNuVdFMQuNo1lifyM/UhsB2KZ5nnUoTSl1C2I4cQwKUP0hxHizGCZa+gvyTfaR8IG/sfG5FN6EFEVsSyTl8QxPWvP7Dr9Ge0g9QmIA46NdFvMEjDaR9JEGoE2jUELgxcGWcQJPRBtxQCA+KZtT11isFSTMiHETCVUwlpBqHi2q0HooG07LD6hYbAdANjVI1RIu45dA0KFszfei8FuF+zoERpN22aL3Q1Cx2K7JPBh95DQmVWEy64qHOeetm3b2lZaocOzZ7G9Zqjw/tJLL7Vr2AWE3Sq4lt0aCD80rBbOAw88YDsBRELjbm/uEw+uZQcA0snOAOndTNjtgK26SH/oBCzdYcBiOwGkt9dkN43Q6NhOCUFY2RZfYZBgOxyEhtt2J2C3HbZjKwV27SBNQWjZc0NHYmFyjF13CJOwQ+NnzyNfiCNbpAH2YzvC0ADaVmWcD4267Z4ROtCK3RxCo2npw1bHHXecbZfJ1nRBbNguGtCvXz/b3SGIM/seCY25bd8Yd3DgmewIg52JN7tMkBfcGwZyyV3TE4SExQ/bHnbYYZaPQeBaPIM4SK7K2YSwKAOc53+2eOVZkdBx2G5E5Cs7yRBu3KGFXTawB1sB7rfffvYc8oz0QRhMWhzYESXNkUceaTuGRAo9g91hyKeRI0fadZTNMDizfKG8hI7M4szWc1CK7Smn5H+6nIYBj20LyS5PEXYQwg6kj3LNtfHvmNf5YIcL8ouyFMSID6Le6hZ14b1k61fSS73kOOW7ffv2Fscg/Gznjwj5SBmnfSAtMUzKZ0wzkDbqGc9lO1zKDzakbGMTYBtTws+WuTDQth1qKFfHHHOMxRf7YWN2pSpGECBmE/KCXWzSsIsQO3VxnnyifITBk+VnEEt2TTZ/i8EuJLHsE8du3brZceoM7Rg24nnkLX9j7/R2gOPGjTNb8zzsTd5iI/I+DLDsmlLrG2WKfGAL1Zi/2TIeocyef/75Zk/KKragjeEZ7MQShJZdx1aTxC0IMNumkbzabLPNLH35YJcV6jNhEg+2RWzWrJm1/UGQJVd525KRNNJF0pYTnzS0aaQPe5FHPJv8DMIuuSK3uxt5R3mM0HaQ7li+gF2Vgti1skg9YbepWWFTbMauWVyDLbET4W+yySZ2fuLEifaMIIZ9jx49rF6zswzPDwMhu6bUusVzaCu4lh2M2O2H9o58BOoe5Yo6Q72jXSOcuIMd8GzCwCbkL88OA397NrthpQkDB0sHfQttBPcSH55BeYkEsW42pAywm1zsR2n/Yn2iHLDjE88mftQTyiH1/Z1ktyb6c8JnpyHKENdjyzvvvNPOA+1CGARUbCkqxH9FHf7JSf7Zm9DwmVeZUXSoODZi561+1iTisYxedDwseL3xwPMpBMnGw8A6WUb1eBh4OY3RPEsPmALES8g6QqaDQ+NiXgm80aETtqUwTKXjEcTbGRoM8+iEAYRNffKdF1PxVOB15JrQcNgLQywZYn1fhGN4H0IHbmHy8h2zEnjN4vIi4svsAOtFuZ4pYl5wIq54m0IjadfhYcALgreQ6evQQJkXBg8RLxTifWBdYWg0zTNVFdgZrxEzDoAniZkDPGl4iPBksOYYuxAu0994VvEEYifAW4KHEg8HnmXsgreO+JEGriPeTL0yXY4nnaly4k2YeImD+DLPCGnjO8+N4F0hDwk77tgSj2EH7iNvWXcahGdBjxdQJrAxU8E8h7zA00m+EGegLOLFxybEi7jyXPIqvbadfMLbRRrIfzxHPBsvE+WY6V68dYRL/jBNTnkhb7A5cU6XYWaTeAkvPZ2e7xmUQ9JOWtPlAu87eUAd4VrKEGW8FNsDzwpCxeof9uA66h3lm+sg1itmvCgjofOzOhVEYoW3NR9Mf7NcALuQ9ph+npF+z4WyhHeNfMV2obO1dATBUWl9fFyCQJ3FA0e5DeLOPJiUOSCu2JOyyXMpM6QrCCbzKFN3SFu0QxCUdh9wLx7xO+64w8o/+Y6nnjpKWYhlJR/EjfwJgsPCjW1XBE8qy1DIL8oCZYA4U9+4B29sNn8LQTwpv4MHD7Zyx6wKswYcp32hvYovz5Nm0pBemsBxXlgm37EV+Ug9Ip1BFFoeQSn1jTpFO0GbRftIvlGWKSP5oO2hrHEPHljKKi9YsqwshomtOE+ZIK60O1xDXueDa4gHy6aor4RDP0L9Y5cn2migTnCeMk8agmC04xHSS9zYZYoyxfPCAMjSE+1He87ziG/MY2buCJe8pL0C+h6WG9GmkEY2A6CuzAqbUr+ZJeMe6hLlij6U2RsgbrR/zPzRjlOuY3xjmKXULcoabQ1li7rADBJljrSyexX2JW20E8zIUMd5P4C+POYB9YvZF9JOHGmLeTazS+RVOk8Im+sop9iCsky8CIPr0uWUeoW3njiwRIu8J8x0P0rdIG9pF8hD+kr6bPKH/gWwC2mkvcMOxJ92k3aIskvY1BnsVKztE2JWU2uE/r8JJqFzZ2kOnRyNEQLg34Ln0+Gmhb4Q5UwU+tQ3Ok0hhKiN0H/jPOC9GpxBDJKE+C+pNWv0/00YseMxwLOB16bQtoRCCCGEEBG8+bwQzOxZTTeUEGJmIqFfBKbgmA6NU4n/JkzPMhUsxJxAw4YNbRkLy2WEEKK2wrIqlsqxacV/oR2EyKKlO0IIIYQQQpQh8ugLIYQQQghRhkjoCyGEEEIIUYZI6AshhBBCCFGGSOgLIYQQQghRhkjoCyGEEEIIUYZI6AshhBBCCFGGSOgLIYQQQghRhkjoCyGEEEIIUYZI6AshhBBCCFGGSOgLIYQQQghRhkjoCyGEEEIIUYZI6AshhBBCCFGGSOgLIYQQQghRhkjoCyGEEEIIUYZI6AshhBBCCFGGSOgLIYQQQghRhkjoCyGEEEIIUYZI6AshhBBCCFGGSOgLIYQQQghRhkjo1zL++OMP99NPP7m///47OSJEfv7880+VFSFmQ7z37ueff3a///57ckQIIWYNEvq1iL/++sudc845rnPnzu7HH39Mjorayg8//OAOOeQQ9/DDDydHZh6UldNPP93tuuuu9hwhxOzDq6++6jbffPNZUveFECJNrRX6zz//vNtll13c3nvv7T777LPkaOkghJ588km3++67u2WWWcbNO++8bumll3a77babe+qpp+z87Mbbb7/tBg4caEJ/0UUXTY4W5vXXX3dLLLGEO+WUU5IjYnYCb/udd97pXnrppeTIzIMyfO2117oDDjjAyoD4d6H9eOONN9ynn35q3lsx4xSy6QsvvOAWW2wxd/755ydHivPII49Y+3nzzTcnR/5dfv31V3fGGWe4evXquS233DI5KoQQs4ZaKfRZinDaaae5hx56yN11113uq6++Ss6UzpAhQ1zHjh3dyy+/7C666CI3atQo17t3b/fss8/a8fvuuy+5cvaAzuGII46wgQniba65qs46BN4GG2zgVlttteSImFOgTO+3335up512So6IfxMGccymXHzxxRL6M4lCNq1fv77beOON3RprrJEcKU6DBg3s+iZNmiRH/l2eeOIJ9+6777p+/fq5BRdcMDkqhBCzhjqhwaxVvRAi/7rrrnOXXXaZCZkLLrjAjR492q2zzjrJFVWDp3vTTTd1rVu3doMHDzaPPmCK9957z8TRlClTzFO08sor27maghfq/ffft/WYjRs3Ns9TTWAwg+d3pZVWcs2aNbMZiHzg7fr222/dqquu6uabb77k6PR8/fXXbvLkyW6RRRZxjRo1cvPMM09ypjDY/qOPPnLff/+9xWPJJZdMzuSI57/77ju33HLLmV3r1KmTnP0H7PzNN9/YTMwqq6ziFlpoITv+22+/uYkTJ9oAZYUVVsh7b6kQF+wO2J2BEc/Fjl9++aVr2rRpyZ1sTBd5iDhYYIEFkjP/wDUffPCB2WbFFVc08ZGF51OuPv/8c9ewYUP3yy+/uLXWWssdd9xxNnBNg30+/vhjKy9cO/fccydn/oHwuIZBIOmJaSR948aNM0HD8UJlpbpgO8oXaSuWP1988YWbOnWqlcFCzyae5D9xpRxRnvINXrkGe/G8ZZddNjman5i/3BPDrEkZos5SDlk/TX7H8pkP2oto/3R9ow7QJnXo0MFdddVV06WtlPJCuJMmTbJ7iUex+gzUH66ff/75K8r8jEA78uGHH7rFF1/c2sFSwyNtEyZMsOuJR7Zt4TzlljJCnpK3+eA68oH6Rl5iq2I2zRLLA+UH+9ImlXJPrKOkmbRn4Xy67axOWzxt2jQ3fvx4G7S0aNHC2roZaeeEEKJKQsNWqwgdmV9qqaV8nz59/MCBA33ohP2rr76anC2NM88804eG1z/55JPJkcrceOONPnQI/qabbkqOVObHH3/0bdq08UGc+SAK7FjolPw111zjmzdv7kPjbseCmPZbbLGFDx2VX3TRRf3SSy/tx44da+dIRxC5fsCAAfYdCOPkk0/2YRCSHPE+dCi+Y8eOPnTeltbQafpWrVr5Tz75xM7z/PPOO89vueWW/u677/Z169a16x5++GEfOmkfBIjFKxI6S3/CCSf4IHLNBqQzdJ4+dD72/HxwPAgy37lzZx8Epw8dm6Xp0ksvTa7w/p133vFt27a1+MVwDzzwQLMV/Pnnn/6QQw7xYXDmH3nkER86eLsWm4wZM8biusEGG1jYoePzF154YYVtg+Dy++yzj+/UqZN9jwRB51dbbTU/YsQI+x7Te8stt/iDDjrI0sgz9tprLx+Esw+DOh8EoKUhiIui5YawQkdscdt3330tXqQpCHMfxEeFrfg/DBztWsIl7TzzmGOO8aEzt2vgjz/+8FdccYWdJ6wgIHy/fv186Oj9Oeeck1zlfRB3/pJLLvELL7ywlRnsHAaeZv/4TM5TJm6//Xa7jk8YlPowsPHbbbedPSOWFfIkiKq8efvWW29ZGcQu6fNBvFYqN0GcWJkh3DDwsLAPOOCAinION998s19vvfX8rbfeWmH3IUOGJGf/geeQF+QJ9iRM7Eb5DcI3ucr7MAiyZ/IsnokdevfubeUoH9ia+ojN+BDu3nvvbcexKfVw1113tb8jpGv33XevKFfELQymfRBm9twg5Pzyyy/v77///oqySJmjDNx7772+S5cuVi9JB+EHUWlhUP6ohxwn3pS5zTff3O7nfFXlhWveeOMNe07M3zBo80E82/ksXE/et2zZ0sIkvD333NPfcMMNfpNNNkmu8tbeEc6oUaOSIzk7b7vttr579+7JkVwZ7Nu3r6UB25PGrbfe2tJXCMKkXRo9erSljXSRfmxOfhNHePbZZ/2aa65p57ExdYE24YcffrDzQNyPPvpo36NHDztPHaG9L2RT6urqq6/uhw8fbt+BdPXq1cvujzamTQDaqmbNmvlnnnnGvtMmUk8uuOACf9lll1mauZ78v+uuuyriPiNtcRiEWdi0d9QP0kAbQN1Ll+nHHnvMX3zxxRXtphBCzCi1SujTkB555JF+jTXWMOFTU6G/8847+3r16pkAygdinIYY0Z2P7777zjdq1Mg6jthI0xmcddZZvn79+ibwiSvnmzRpYp0bQpqO6JVXXrHr33zzTevAL7roIvsOhIE4QXxFRo4c6ffff3//6KOP+tdee83fdttt1oHssssuJh55zvHHH2+dEgOg/v37WwdGp4wwQPScffbZFhbXHn744db50XE+//zz1iEh6hA0dID5QBDRwdFJDR061Drzq6++2rdr187OT5061Tr3FVdc0dL43HPPWWdFnBCpP//8s8V1xx13tA66YcOGftiwYf6+++4zwU+ny4d4Pv30036bbbaxzh0bAcKjffv21qmmQdzwjDhYiuldbrnlTLw99dRTFiYdcuvWrS2d99xzjz2bTnaHHXaw+/Lx9ttvW4e/0korWbwRMqQdG6+77romXuJ1pIcySXpIe8+ePU0MYGvSTb4ihClTDH4oD9ddd52lHeEShT75w9/YiDQhxBFnlCHsGEXqSSedZPZBkCL2sRnxIe8pK6SbOnHHHXdYWN26dbPBUhbEBwNTBlhpYXH99ddb/Hk211COKR+UFdKL+MF+iNMIgxjqImWXesm9CKMsxBNRRdoHDRpkAykEKbbebLPNKtKIkCYOxIVnkibSU0joI+rIe8LEbtQX8gXRSJjUEcKjDkUoL9jxuOOOs+8xL2kfEPzjxo0zAUxcY91AVGLTlVde2eoqtieO1GUGsuQ315DftAWIaOrsE088YfeXUl6ob5T3jTbaqCIelL2PPvrIwshCW8iggDaJQQliEbHJ89NtCc+jLjzwwAPJkdwAiXsZIEYom5RVhCnxJY3ElzilB69peC75T30hPZRxBqSI2kMPPdTSBaSROknbQ16QbwxOyLcIz8Hm1Nn//e9/lh7iUcym5D35AJQRBom0DcQBG1NPGAgBNiW/sAdQJrETdZu6RjlHnDN4YGBEfsKMtMWff/655QnOI57PwJz2J9t/cQ3+txdffDE5IoQQM0atEfqIJRp9xObjjz9ux2oq9DfeeGPfuHFjE6j5oFOnsabjzkcpQh9xgYBCtCKWspQq9PPRtWtXE7N0ULFzoQOnUyOMSFboIxhIF56ytGB68MEHzeuVjksa4ooQO/300+15EcLgeXjCSAuCIA2dOsd5Lh1hFPqIO+BeBlOIXby1UQyQnwgEPN5QXaHfoUOHCsFIB4tIRVzhiQeeQ+dMHhYC8UDYiM90OcGWzDjQ2ZN+bEmaGMhFOE4ekYZ3333X4rLVVlvZYCZ6wbEj5Zd8i0IfzyIzFIjTKMy5Ll2uAKGPzdKzHvmg3FH+8LQz2MpHFER4kCPM3FA/ECjUBUQ9eR/Bfnhh0+UUoY9dzjjjjORIfihrDDSvuuqq5EiuHFB2EbvUcSA8yk4c7BUDm5K/hx12WEUZAsoWQp4ZCgYehI94jSAuiQt5GesRMz2ffvppcoW3WQZEG3kAUehjo1jGEOZ4zhGS0c4xTtSBmEellhe825QVbJxOTyEeeuih6WzKzAPivLpCnwEfHncGO+l2i8EYz4h1NwtCn/OUpxhn7IIzAPFM2c4HzhbKVxxsAXWdMhk97pF8NoWs0Ke+Un6zacDOUEjoE88o6oEBBmUGp0ghSm2L80FZx2YMQiLUj/PPP7+gvYQQorrM2CLOf5HQabgzzzzThY7DtW3bNjlaM0KDb+sii62NrOp8VQTh7IKwdWFQ4g488EBbXzojhI7EtmK77bbbbN0n64dDh5qcdbZjEO8sFItz6Dgt7UFIVlrzHTp2W4fMuu58hI7R1gtvu+22lda4EkboSF3onGydcTZfeOGN+3gfIMJ6XN6NAOIaxJGtKeYlu9BB2nHW44aBha0Prgm8gEyYEASA7W4RhFPFy3c8J4gbWydbDOK3xx57VHoXYcMNN7Q1uazZx/68zB3ER6V3ObBLEPZmG16643/WY/PMIDDsGuy49dZbV9o9ibXlfLj/jjvusBfGhw0bZvkdBJjlXSQIf7fPPvvkXXPM2md2FiEM1opTVkJdT85WhjylblE2gHufe+4529kpCFxba827CdiK+PAJwsRsk85XwK7kYzHGjh1ra+CDME6O5OwcRJnZNYhuO7buuuvadfvvv7/ttFIMyi3vBWBL4hbjSVoof9hv7bXXtjXaQVwldzl39913W75RXrAReRnEtl0TwwiDV1sj/uKLLyZ35dhoo40q1l2Tbso1diLOhSi1vPA86iRpoc2rqpyGwZA9t02bNskRZ2vfqVvVhTXxYQBt5YsdoaIdqIuUIdamF4J00ObFeox9iAP5QNrSUB/uvfdeK6fA+ypp2ECAMlATWBsfBqnWV1CmIsSvGGFAbHkToVzwnhHvaqWZkbaY62hPsS07xwH3R8KAy/Xs2bPG73IJIUSWWiP0aRjphBBevAD39ttv24t8f//9t3VCCKRSWXzxxa1TznY+EUQVDTKdXU2hke/Ro4ftZY5YQLyyZzqdXnWg0+Xls1VWWcWddNJJ7pprrskryHlePtEXoZPm2XS+pD8NohhxgeDLB50ZnXe+zgeBwfklllhiuudzPc9Nix/ime4ACTfbIca0kLc1IR0ef+fr4NMCoBjZuC2yyCJ2DNFN/BBhpDObdmzMMWxK+ilrCNFieUSZpNwhAK6//vqKD+KQPbfj4AXypeudd94x4Y5YOfHEE+1e6koxEGJNmza13at4Nv8jPBic8gzSRx4iftNx4qXP9u3bJ6Hk4Ppi6QPKCunAjmn4jshmYAIMqG666SZ7NnFECPPSPd+zECb5gfhKxxHRvNlmm9lArW7durZjFSKL9gK7sMPWQQcdZPlHXmJ/BOKNN95YEcaAAQPshdL0wARIK59IVemGUssLZfPKK6+0PKC+M0jt1atXQWcBx6lHDNZnFNo+8p9dyNK25DsDedqxYqRtwt+klfIf8+2xxx6zl1DJ0z59+lge52t3sEU6rOoQ6xED/OqEkb0We1JWY/xmpC1mwEl6eXmXbaHZTIKBZnrwLoQQs4Kqe6fZhAceeMBEAEKfjoLPqaeeag1oly5dzANZKnh26RwLDQ7YlYeOAi9gIWjM0wIWssIU8cJ+yW+99ZY76qijbIefY489NjmbI3tPVshcfvnlNitAp0Cngue1OmmNEF/iQ7rozNNgQz7ZAUAELzQdUj7PIh0aHSJhZtNCfnG+VFFdCOLOpypbzQqyz6DcEA8GRsQJIYCwyJd2jkUBhxDDRtnw0t8Jk+vwYjM4RFzFD7MmDKYKQb6yc8+rr75qAwXKypNPPmlCtxiEiaDknldeecXdcsst5kllpxBAfJNOBqzp+PChTFYXygpxxWZp+FEvBNXyyy9v3xmQMvNEvIYPH2516PDDD5/uPqBcM+jJF0e24EVckQdsS8uzmSW5//77zfa0HcB58pK2gUFNOgzyAmE3o5RaXoAZAsQ+HnRmfthSknjng3JD/cwnmNPwfEg/GxukyyD5TRk87LDDKtmAD+UpzsaVAuEyCKP+Y192q2EWiu/MFDFLQj4wCJuZYGPKA89Op6260N5h05gnM9IWU7fOPfdcm7lioDlmzBjbXjPOCgkhxKyi1gh9fgyFjib9YYqTTg4PHJ43QHzTiWSngtPgHUTY4k3KinW2VcPbwtaEbMGZDzoROkSmiKNHhufF5Q9ZEMpnn322TSVHDxDxJpz0VDgDj+w08WuvvWYepHQHW9NfOl1//fUtvQindAfIdm/Ev1WrVsmRyjCoovNn/+coEvifWRU6VZYx0HnhLU2DB5a0s2RiRsBOiAGEQkw7dh84cGDRfJ5RsNE999xTaWCE6CPtCEIEC4KYZQjpQSM2ZkkCInr11Ve3zhwb4HGPYowwEKHpwRPX4IUkz6vr6eN6lhPxPDz0wDOqEn+AWKE89+3b15aBbL/99skZZyKZ+OfzXNaE5s2bm10ROhG+M5PA/3hM0yAQd9hhB9e9e3dbnpNvFo5lLtgam2frcxrqEcsxBg0aZMuaiAtLXIC8ZLkI9T/OKswIiGriTjsT61qp5SUNgxjaPs6RN/nA48+zEJMRbJVdbhRnEtjaMkKZ/OSTT5Jvua1osQmDHQZF1YF0cF/MA/KKpVqER3tHnJgxwaPNsjCgfKaXrhQjn03zQduNveJSReB6PPLFwMFD/CLUdb4zmwYz0hbTPmJPfqOFNAADvmw6aGvIk2LlWAghqkOtEfo0sKz5Tn8QWzSaCNE1kh9LQVzSgRf7NdhtttnGZgZuuOEGm7qnc2IaHwFMQ0zj3r9//4r99bMgbnkmYgXRwHQ0azLTyyRYVkSHhvcHAYxHlo4asQ0sC6JT55mIDjp6PLnZBp7nIOAQhdyPV4iwoneuOiByWNrBHtRXXHGF2YpnH3PMMSYOEVT5QEixfzVT1awbpgPl9wu6du1q9j/yyCNNoOKtQxjH80OHDnXdunWrtB65JiD0+W0DhAJ7zvOrr0yDEz55MSuhXBx88MH2TAaUeOFYsoI9GPzgDaezJu14J0k7A9CRI0fa8hlEB3Ek/ix3YcCHd5TfgiAv0/FHiHXq1MnymjxCqFF2CJfBJwKnEMSFOsLyNuKAML/kkktMaFUFQozZK5bHIUYYCEcoF3iUqSsMjFlGRJisr+ZYdWEJDGFSPihL2JelIeedd54NMOK6cvKX4wx8SQ8D+2jLLMQf++Lx5teAiSN2oywSThwMUlZZA82SHsJlPXkMjzKGxx9hyKCCQS3Cjry6+uqrbVBbHcgPBqc8h7iTzlLLC4MNfhyPNgHxThuBAKTM5YMBOoNE6jTLl/jQHuGISMOSLpYxYVfehSC/iQ8DkAj1mGOcx3bYEXsyo8rsZFXvGmF/BiaI5AsvvNBmmPBiM5CkzeNdHsp3DJe0lyr089k0H4j8Lbfc0p5Dm4WN+RVcynExGAhw33333edGjBhhs68MfPi1dJiRtpglTwyYyXMcK+QRy7GyA3rqAe0tgw4hhJgphE6n1hJEqu2IwXZ6kSBwbGcetncsxrRp02y3k9AB2fZuobOznUzYOpEtMP8usmMC59gtgq0JuYd7O3fubLt4sMXk1KlTLXy2NeRcEBP2DHa2CB12RRjsEsPOLzEMduQIHZMPosuuAbbU43vo5Cyu7N3Ntm3sKsFzwsDAdjoJgx7bDShN6LhsG1F2gIgEsWw7wMRn8j87hrA7TaE0c5wda9LpZZeLIBQqzoeO3YeBUSVbhsFWxe4xoUMze7BlYJrQadqOMtgiEsSEpY89qSPcz97tFFlswU4h7AjD7iRBMNo1+dIbRJ6ljx040rCrSxA+ybfpiTt5sBMRv2vAM0nThhtuWGk/cdIeOm3bZi+mnfwm7r+ldvzg76OOOsrCICyu5z7CIy6RIOZ9EHx2TRAGFhZhBmFYscsL5Zb8ZqePCPFgh5ggRux6ygppZrecMMDzPxfYdQe4N4g/ex77nsc8i2BDdoMKgsbiw3U8g/yNcP/iiy9eKR/zwbMo02HAa+ERDmkNA++KXYWAvehJQ3wW2zYGgWf354OyHwS6XRvjyP9s7RjtBpQZdr2hnma3/yTsICCt/SBO3M//YQBVkS525AmiumKHF6BsskMXv0fxU2ovfOopZYIw4o5RHK+qvNBGsEc852Mc+C2H2HZkIUxsEwY8Fc8jPkGgVtp1h+vYIjIMKO26hRZayAdhbran/YpQVtixKG1H/menqpi+LEHAVmzJSZtMHCjr7IQU7c/zg+g2+xIm11O/2DqW3Xoi7JrFNpO0oWkK2ZR6T9vDbzgA11EeKP+xjBH/IMztfBDpFse4e1vcdYcteSkvXMszyKMw0LNrYEbaYvKWncViusmrIUOGWLxjOwr8fgBhxx3ChBBiRql1v4w7s2HqFU8O08x4s/A+h4Y8OVscPIV4+liewvR51rMTOhzzAOHdZ51nXO6RhmUCeGHxtOE9yucdIm48J3SctrwgdETJmZpBlpNmZi5IM57g0LElZwuDRxlvKF4ovLJ4oNPE88QXDxYzIvnSU1N4LsuyeA72jjvYzAqYPmcGBK94ELlmf/KO5+azP9PwxI04stwlLk1Iw2wNsz6UOewX1/5modzg1cUjS77gBWUnj1KIZTKIBSsrlJmZAXFimRnxCmLF6gne1ZqCF5dyz9IlygnlJR1Xyigvj7PMBRuUkt/cE+NIXuHBpnxXF5aTEDfylHwkrdl6Wyos2SA+lAlmHiJVlReOU1bY4YX7uKYquJZZo9iW4NVnByWOpWFmjHYJmxdbVhevw/7MNBSrz3j82XGJmQBmh0gbnnXikW5byCN2ayJfKdPkUXXbiEI2zYINSTv1rVh7xFp+ZkWYbWWWkLiTP5Q5lk6lmdG2mHTT7lL/yac01HeWd+611142e1JKmyyEEFUxxwt9IfKRFvos3RGiNkGzvu++++YV+rOCtNCf0e2P/23SQp8tM/8LGEifddZZtiyIZUmz0okhhJizqDVr9IUQQohyhIEZW8qy69XM2CZVCCEi8ugLkQem7nlBkh2FWF4gRG2DF15ZDsIL3rMaliey9SQvO8/Ikq7/Al5A56VaXhZO/+iYEEKUAxL6QgghhBBClCFauiOEEEIIIUQZIqEvhBBCCCFEGSKhL4QQQgghRBkioS+EEEIIIUQZIqEvhBBCCCFEGSKhL4QQQgghRBkioS+EEEIIIUQZIqEvhBBCCCFEGSKhL4QQQgghRBkioS+EEEIIIUQZIqEvhBBCCCFEGSKhL4QQQgghRBkioS+EEEIIIUQZIqEvhBBCCCHE/9u7E3hbp/IP4G//0lwaJIokqUiDQhSZJVPmRKYylQyZpyKEohARKaGJypBSKQqVIqlEk0KJBo0aqd7/+j72c3rv297nnnPvubjX+n0+2z37HdZ61jM/a629zIGoiX5FRUVFRUVFRUXFHIia6FdUVFRUVFRUVFTMgaiJfkVFRUVFRUVFRcUciJroV1RUVFRUVFRUVMyBqIl+RUVFRUVFRUVFxRyImujPZrj55pubj33sY83f//73wZWKiuG49dZbm49//OPNX//618GVioqKioqKigcSZptEv23b5qc//Wlz/vnnN+edd940nxtvvHHw1ORw1113NV/84hebI488stl///2bI444orn44ovj+v0Rd955Z7P55ps3n/jEJwZXxsdvfvOb5pBDDmm+9KUvDa5U3J/w61//unna057WHHvssYMrU4fbb7+9WXPNNZvPf/7zzYMf/ODB1XsHF1xwQdjUn//858GVioqm+frXv9685S1vaX7xi18MrswYPvKRjzRHH31087e//W1wpaJi9sUpp5zSPOEJTxh8e+DChNRRRx3VfPrTn27+85//DK7ed5isv/rxj3/cLL300s3jHve4ZqONNmquvfbaZrvttmt23333+348JYGeLfCvf/2rff3rX9+WpKV97GMf284999xjn4MPPrj997//PXhyYihJVrv66qu3c801Vzv//PO3Cy20UPvkJz852n/FK17R3nHHHYMn7x8wvhNOOKF9znOe0956662Dq+PjyiuvbIvStbvuuuvgSsX9Cb/85S/bxz/+8e1hhx02uDJ1KAVeu8gii0xYV6YK7HSdddZp55lnnvb6668fXK2oaNsSNMN3X3zxxYMro8HfnX766eG7SkI/uNq2d999d7vCCiuEr77lllsGVytmNa666qp26623bm+77bbBlYqpwnHHHdc+9KEPHXx74OLGG29s55133naDDTZo77rrrsHV+w6T8VdAjnJKfmm11VZrH/WoR7WlgGtL4TJ44r7Dg/xnkPPfr1Ecf1RH3/nOd5ozzjijedjDHja40zRFOZqSMA2+TR9/+tOfmvXWWy/aeu9739usscYaTRFKzEDa6rDffvvFtXPOOad5xCMeMXjrvkVJoIKe5z//+c0SSywxuDo+/vGPfzQ/+tGPmvnmm68pgXFwteL+ghI0Q5Z77LFHc9BBBw2uTg0+9alPNYsvvnhTCsPmQQ960ODqvYNSwDR//OMfm2c/+9nNQx7ykMHVigc67rjjjthO9qxnPat55CMfObg6HPz9Tjvt1Hz5y19uvv3tbzcl4A7u3LN90Ww+/bq3V6seqPjwhz/c7Ljjjs2VV14ZMahi6nD88cc3++yzT/PPf/5zcOWBCTb/wx/+MGbEn/KUp9zrcauPyfgr+NWvfhV+aeGFF27+8pe/NDfddFPz6Ec/unn605/e/N//3bebZx58iL0dswHUI5Z0JBASI8nrPPPME5/JJuO2+5Tqqzn88MMjmEjyS0XdPOYxj2le8pKXRKJy9tlnN6uuumoIqQ9JtwBEqE960pPGFNIWoquvvjq2YwhAnrvsssua97///bHlyFYN7aGXItg2NNdcc01TpHzve99rbrjhhlAWYPxXXXVVc+655zbf/e53Y3lIu9kHvjAO71DG973vffGsIOj7ddddF+PKpUFLSJ41vjPPPLP52te+FluVFlxwwXGTMkb4jW98o/nABz4QSaRg+8QnPnGMdkXF5ZdfHkWYrUVJz/zzzx/30Slg463rZ511VgQPxrTQQgvFWGwzQb/nyFf7gGZ8ZTjGnfA7BduSyM8YLf35/vCHPzy2eZ100kkhJ8aGDob4wQ9+MH7joNgjC3IfBm195StfCf36/ve/35x66qmhf/okmy6v6MGll14aY//kJz8ZeqBP73adFfo989GPfjSWA8nkQx/6ULPccss1L3/5ywdP3fMcGsnnm9/8ZujIU5/61DFnoXgjc9dPOOGE5nOf+1wEXzwkIwWhItYz+E62oxIicsXv0047LeSGb4pCzjbv0yGy8rn++utjbIrrUY4Yn8k5dfQPf/hDc8kll4Q8s7gmJ/cWWGCBMdrI5MILLwxa8JMM6IZxAtt3nwxtsSMLciXvn//857HUKiGkWz6CBT2i33RTu+wQ7133LFtCm21xxp1jMu4rrrgitr/hPegDj04//fToC/SRusAm2Cr7pi/skK6kHifSFmyvQjt5aZOeoSFtFW2u0Tu6YMx4gCc50YFHdNw7xvGe97wn3mP/bIuPITd6+YMf/KCZe+65p/FZfWif3tsegy50ph3nO3SEHmuXT8JH/ASy5h/4Ce3gYwa63/3ud2Eb9DHpp9/8Y/qU1NUvfOEL8aFH3v/Zz34Wvobu3XLLLc1vf/vb4AOaRvm/1OEutPPZz342+Imvim085z+G8SR9jHspF0Ar2p/5zGfG966OX3PNNc2JJ54YuuAdfgDP0Eb/6CPax/O36VPoOjrZFB6jU+wYRpN26YIJq5THRH0JGabc6Jxnkn9ihLEZzyKLLBJ6S0ap17///e+bz3zmM+HL/Os+uujaMJ4CGyDDtGc+zBj5FWMEuvPVr341nmNnCX4CPfSB7x8GcZP9alu8J2f0GpNYlX6SL/Zc30/q07jJDk/Zs+f0mTENvEcftaWvb33rW8Fb/E/58pnpP8V3NBtnyoBc2KltIjAZ+tLfsVd0pdwTYudPfvKT0Hk2e9FFFwWfyXcU74Be8En6Rz++oVl7aJMAayPly7bxKfWa7Ph6vKd77tFb/r47SduFMdI99/mou+++O/InsmQP+EuXM2fgOyFzGvqHx/QZvRl/3RfDMufgB/lo40GnPvCcr3n3u98d433Ri14UvrDvr9iWPIWd8Mfoopvu87v8IZ6xc+3hUbdoMUY+iK2hl4/El4xjswyl49kChYntNtts0y677LLTLOXOCLbffvu2BIy2CHxwZVoUJxpLaUcdddTgyrQoChDbInbYYYegC4oytYceemgsPRVFjGslKWiLQrXLL7980F4E3hZli3tFoYOGo48+Or6DNiyPluAxuHJPG0WJ2pIwtOuvv35bkqfYbnTyySfH/aKo7V577dUuuuii7Ytf/OJY0i4VaFuCZFuKglh66m4NsQxVHGnQ5fnikGO70mtf+9q2GNTgqWmBLtuG8MRWqec+97ltMea2JJeDJ9p2zz33jHaM/4UvfGHQWBxJWxKMuG/JHf0loY37xSG1z3jGM9piAO2b3/zmdu+99w66FltssbY4wGg75VyMMJbCShEW3xPFYGJ8xQHE9xzvJptsEuPTFhqKAbXF2bTFYONTjC/6tTQ3CsVZtMXZBG3aIJPiOGLcBx54YPAEyD+3lBVjbZdccsngE76WZDCeAct5xTnF2BZffPGgj8z825VPcRQhQ/zZbrvt2mWWWSbkX5LjsT733Xff9gUveEG7yiqrxHNoK8GiPfbYY4Pvvq+77roxTnRZUsx3+6Dr+INu4yhJVbvffvsN7rZtCcChp2h+4xvfGHpvbKXwGjzxv0AfXS9JcnwvSXb0sdVWW7UlGQvZkpNrJTGIZ0D7eLfhhhvG8i3eZD90c+211w650Ru8NLb9998/7pckKvQHT4qTDx7gGfkYDx7SIfalb7wvCUnwZemllw6aSgIRbUHqVm57s9WvJI/RNj7RY7zu+ojjjz8+5LHGGmvEc3StBJbB3f+iawvaLMlD8Jdu+F6Sxnju2muvDXtjU8b+vOc9L8a/+eabRxtAT+klH2D8xoHPbIffMe5SSLavfOUrg5+eKclGvNuHNrfddtuQQQl00SfdJ7MSDOOZkrAGPfiPD0sttVT7qle9Ku7xRZtttlm8v+mmm7brrbde6EFusSEjbZXiIb7TC/TQPf3SrXe84x1tKcRCx4QnH2Nmd3QRttxyy/CH/PB4/q+PkhyF/0QDXVhppZWiXXwqBdPgqWlhOwH959u7KAlByC2ROs6P4hn79B2v+PC0U7KiNyXID94cjt122y2eIzdtopkc+cKSVAX/bRNIPQBb5egs/wST8SW225EF/cNvPr4k8PHMqquuOiaLlMcRRxwR9+gqutIu038b63jbfMiOvNiw7aie17Z/yR9KAtQuscQSQVsXtqTS5VIkDK78L4488siQrfEbi37IHCbiJ0tiHLLDN3I0Lu2x69RfKElz6J72xLVSTARtJQmP+6VQCV2mr/IFtGjvggsuiPvQ37ozGfroBv1kO91cIkGG+uZHbEkWQ/HZ36O2x7ATcUC/bJyc8I6tlcK3XXnllcN3+TtRCpUYF58K6bvoHj+QetGNLX2QN71On4t2POBfjJXt+tC1nXbaKZ4Beo/v5LDjjjuGzoghOT6xkQzYJV+DX76XYmasD76O7fAdfJpY0PdXwLcaB57ikb/5gon4TtBnKXbG9IV/NJ611lprGn5ONWa7RJ+j3HjjjSOg7LHHHpGoUMDJgOPC7ExE+pCEE9Iuu+wyuDItOCmCVjB0E/23ve1tkRxK9CUmjIGBpMKVajDehezjne98Z3wHbQhijDYh4SgV9FgbHCtjZTgMw9gl2RRuxRVXDOeqHdclvpx3BikBghFIBkqVH9e0gY8cybnnnhvX+pDkGC/nkEmIfs4+++z4u1Tr0Y/gdOedd0b/gjs6JTv2iTMEBs9ZSui041ltMg5BSOGFn4oY1z492NsmuEngJGRd4A2jLdV1fM/x6vOiiy6KPu0tdY3TwQd9cmSCm88ooIV8vKdYMSY0M0jXyc81AZsxCyySK9euu+66CJhkRBeM6Q1veEMkBnjlGQ6RA+N0M9E3ToGdA8gg6ZrCRXuZiO6zzz4h7zXXXDNoIuvsl66kTurbGPtOuQuyV6DkXn56Rk+AE5Rcclp5TX8ve9nLQrZ0ZxjQx8GnfXF0xmkM/kavZFPQNDaQaNF79OR4BFF0+1tygs+nnXZayNUzgil+Ap3RBycrGfWOZ2644YbwGQcddNBYUsTZGrMiDq8OOOCAkOk111wT94Fc6aDCGA0KD8n4zTffHPfJRRAUmLKwF4jZEV2lY/r36SNtgYMXONgXOs4555xIEhS93tOu/pPPfAqfgw9pv/SUDaD//PPPj3FrSx+SgaQXtCUYH3PMMYMr00KfV1xxRbSpHVBISJZyUoOtdQswz6WcJcUCaE5CuEeGyXfXvYvPrr361a+OwJsTDOwnk0v6IHBKHtlK2hZIbvA9E/1R/q8PclQspB0Zj2Kff6Anw2BM+M23d/Gud70rfEMidVzSKrnTv2QOXez+pJNOCtsiDwkUHRkFRYN3TjzxxHjHePCbHiuEQGxClyQnccopp0QCgZbJ+BJ6qHgkR3SfeuqpoftnnHFGPIMGkyn640/JBu982BA+nHfeefHd+4p317bYYosx2XfhOclcvucd1+ircb/uda+L9+i9xJjP7UKir2DJ+NCH2MO+N9poo/BX+IfvmVxPxE8aA16+9KUvDRuA/M0bfQM0Zk5CZvrBG3QpVvBTDEC/2A/6EsfoaqKf6E+UPu+I5+nv8vkuyFwSnnkHmv2mMe1wGMjfmLJA907GB/2j3e9kkhbgW9CTiT6a8UT/kLFecpy09EHeEvk3velN8Z0vEBPYJx7xAdkOG0rwK3QT3wC9/A6eaAOP2IF8wTWxzIQrGrMP+iQOoxcfPdf1V4Dn/Ozhhx8ez+lH/LnkkktCh6fnO+mAolhhoRDyHB7yJfo3UZTvTjVmm1N3ijNqSmXZFIHF37bBWK4qQo8TGAqjB09OH0VZYpmkGPLgyrQoChvLakWxBlcmD+8X5Yul06JgQV9R2FjOnAxKgh3bibRXDCH+LYl6LN116dN2UcxYAsIfz/VhGbQoX1OC1tiSc1Hc+O1DUehYRhoGS3CWoUqSMbacq59NN900xmVJulTD0W5JOqL/YrBxQhA5FYcR70AJMrHdRDue9et0tDp5wH7ykig1JQGOe8VwB29NDiVQNCXIxRKi/XWWzkqVHkuj2i1OrFlppZWCh+MBXW9961uDRmNCc0kyYpnPEmwx9FiCK06nKcVL8NBzxbE0JQkMXhfDj+dt9ShJc7PsssvGMyURjr2Z+JYoQSmW/VdfffXQnRKM492VV145+O/vRHEMzdvf/vagCZ3ZL12BEnDG5KDdUfbBDuiVLWEloIdNlGQt7lmidd3YyAU92kSfJUo0TRTex8sSrILeEsBjedSyct5nd3SNzkBxkkEfPltyLsld6By5aqME4ZBjAu12IpbkMOj0jG0PxlWSyuCJMZRkIvTfVgRtO50Ib7v6bymdjEqAjaVuS8+laA9+p1zQUoJ5nK6QKD419tvSMf37jAJbsAQ877zzxvg33HDDoMvSMNu21QCv6ZXv+kSPf0uwHLRyT59bbrlls+6668a4tYVHJcEI+Rs/n8cO8BjNw4DW5ZdfPugqgSn0gr8yFu+UIDS2RM020/9YZgf816+tCCWABi1k6Fof7vE9ZM1GyME4yQb0YxyeYwtpW6MwEf9Hl8jasyXAhj6IJ6XQiK0HMwv08jGlEI7+l1lmmdAXcimFfvCHDtNb28CGAY9tZfIe/cJj2wUWXXTR2DZjiwvwkeSQOsu+bVniQ9nVZHwJ+dmy4F90a1v/aZvo9gFy0Z6x4mFJ8OKkEf7WNe+vvfba0W9JjIbqmmsZu9dff/14x7u2yqLd7wC0PaOwTcV4ycI46AO++10eTNRPoouPZQ/Af3uOPwDjcMKY8ZbEd0xXydsWFfwT+9dZZ52QK5rYgnHbajIKE6WP3ZdCK3IEz+BhH+TFb4kzeEqfbBXVzig/YAyeY8feQbMYNxnwXXhCb4zB+Om9MdDnyQC/dtttt/AB4rcY3PV/xsh/2PbDltHL7+AJPvuIx8kn8U0baEzILZ282PU7XbA1W5nYiFN0PKcf8acU7aEr0/OdtgThqd+6ZB7LJ8m/FlxwwfD7xjErMNsk+hhZKr0IwPau2aN39dVXRwJnL/ZklCcVg0CGQWAkGEo1o6AEjhjUFgWQaNjvOlkwSPvcOA+GwgFILhm5TwKtEpPxIKBSrEzyE5wh477tttsGV6YFh0X5++8Bw5IMCrD9IoZzQn8mBJDBIMHYfMevBBolJBzjjKDr8Dga7fWdoH4nYlR9HWCQaKVv9AfPJGro7cK+YuO6/fbbox+OSbDpjhNtXboEEE7xzDPPjIIgP4KNvuhkAq/R0oX7dINj5Mzpi0Sgqyd9bLPNNhGUNthggwiE7Cr7sU+T/rK7Lj0SKnLvJgsTQVfu/hZ80gbZpKBlPyq6/X3HHXfEPc/gDf3u87kLvO0HJMkO/ZNEJ/0CEFsUxIx1ySWXjOBqH7txkZWiWBLCUQtOrtsf2uWD3/e43vU9aMDPicBYuvpAF8hU/2gjN/S/5jWvCZ7oky6guStTvDSGLn9BG4ceemgUV96VwAlA4+mD8ShAJYTeWXHFFWOfar6jePDZeeedI8DZZ0pHwLgFS3tUvevvlGEfxqrww1/04bU96V0dnwwm4v/AxIugTwfQSM+gm0DNDLoyoNOZEHTB9+DzMLjO3/IrKbf8SGQUbCDp5HMl2mBSQWFOJ/FiMr4EzV260euTtjkK5K6g4+f7Y5TwoNX9PugEHV9sscUGV+6BNuiQezOT8Jgs4FvQNQzGPhE/KRHrjguPyDN5pzhk+4qrYbCPHQ/xvCsDvxUaJX+YKH1syERWPyntwjt0w+SXAlT/dAR/R+m8WKDoMnngX0XZ9HShD/2aHDFJlr5LngaTtfF+7O5OjgF/JC+SMCtq+PHsgx2RmyR/PPC7/X66oOuKNpMlJiiGYXq+02/D0KJg70IekAXBVPmhPqaNDLMRKDenoKJicJNxDBykJHJUcWDGg2D7Aumjb3h9mH2TMJgJNwNqlsMM42Tgx38CPVDkAw44IGaKJgu0MlZ86zr1LvrOOjGekWuXUY3nbGbk3njvTBbD2pqZ9o05eWjso/gJyVPv+IzXbz5DTw488MCxj7OFJU850z4M6JCAb7XVVhHoU1f6wbQPM4USBP1wNGY8jzvuuLjH6UhG6W+XnmOOOSZ+bJQzXVMFNKOFo5RUK+LNgsBkg0OC7uKHH/An/U44sgplZUkR6P4OO+wQqzRm560e8A3GTbZkAnxNlw+SaD9qJ6+pgr706eOHfQKX5JQPcBqYZH0iuivJEmT98Jm/MAu16667xnhHgQ/1nARc8qLA23fffadJoM24m2jBP5MD+OY5QPMuu+wSPxQ1y+sZp5eNmr1W+Jq40YekSKHpB3ezCgKtpEAxaQZav1tsscXg7tSDnCbre8if3eF5V9d88NMHFAt0gb1IZswsk60JIZgZXzKK7j6yj1H+L/W4D+Ob3nsT6X8YtEuPR70/o35yGHIc4/UFVma6MrADgQyGYSrpA7pBJ+iJYtpq47bbbjsy1gO75n/5DkkoGviF7sSOcY8H/W288cZR1CkY8iTDWQGz93yOVSl0ma3fa6+9Qg8y55lZaJdsRrU1Ed+ZSfyoNsYrNGYWozOU2QCYn0tLkxGm5UEzWyr/YTCDTqgq0WHQF6FQ/K7C92c4PWdWQUUvgVBVHnbYYXHP++5339Fnvw3LRQoTVbVAzWhU8ZOFvswy41cuySbMoJj1FHiHQbXLYLpbcBIcgVlUM9f9GXjPk42l8pkB2vXT503OyM5K9IscVb1rAi0ZqsTNnuWsZkJyRjdyBcAsAKfbbc/fXfq1aXkSP2174rDyY5ZlvNlsswmCh5np1BVtjJrV6sIMCcdoBsYMkhknoK/ok3B3afGRlJndmkqQM9vUv4LY1iozlvgsMfF9MgU92CKEzxKe/hjYdyYbkiYyEuD0r0j3LuAP/TOb029DMJtR/e7rLjqd5mKFiB44kcSsrO09gobgb6YIn6YHenrZZZdFwDHLpGgR6MfTIX0pcvBCQmnmb7PNNosVvy60gRZLzWbEJf4JsjJbbibZfTNa9HEUjNXMv+0a3jv44IMHd/6Lro+dGShOFR1krEjbeuutY1ViPBgPHeFrusiZ9akG3vIZ+lSo9fWNLQK6bAHgt/HXCUW2dOInzIwvGYbUua4s2ATd5+e7fg2sBrLZ3NbVhWKRrfW3r2hDMcanog8P+M7uijD4Pkon0Ck+ikViUh8z4yf7YBfG4USlYZCAkpNjjrv897HdZximkj5QSNN5pwbZymQFV8Kdfm8UjMsqgASajfMHZIq/ZCLedWXQtw+nTokPZtf33HPP8Be2q8wq6IuPQ69JEceks1H2IME2kTAzoOvyMDo1bDVmIr4zaenri5imIGKreDsrMNsk+mbYLr/88rGESpBUNdoHqNqlmCBQUlD7FUfBMj5HqFLWZgZcAlQVnnXWWTFTZXl0GAid0My4ST68n8eEJQjeNQbAODguypgzarZecJJ5jCAFENDtL+yCQbrHCTIsxtbdSzwZWErifBQbHCpwmoySspnlGgYzgpyvffQZ4CSyZgcy6FNUBU0aPDk4ziv3ls4M8Jss9Mlx4YNtSAy6HwSmEuSqQidHMEZJoAAmIUVXzliSHR6iTQHJsVp6p5vkzslZ1TFrDPYmcwbd4khQ9DydTvlAOgf/jgId8+k+453p/c7BihP98y46JQf+BYkw52MLWnc/p4KLHo4KtjMCvGXPQOfRkYEen82mG48lbWP08XcuB48Cx6sdz3WLBFsKOP8cA/22/UXSah8lW8AT4ODdY5uWwbug5/2EfaKgw7aR5N5bOkTHBYgcPxqSbiuXZm4n0l/Szl/62zj5monYSwZxH0f4dYMkn6dgBbIx65jBSXGBd+iT4PDJxmCGsA++lp7Tf/SRsTGnf3RN2/w+/kwF0GJM9Ff7aDCpMx4kpeQviOfebImYVa1ZAbxUgLA3K2sZ78C17u+KzBzaW8x/8y3iWibwM+NLhiG32ZFx2gx52TJBJ3JrCdmLvQp0M8fibB8KZttSFII+3vFhX7aqsT164KPYNjZ6lfoovnf50kcWtIo58cp7VgZ9J3ef7vgn4ieHwTj4eDapUNWP/vyfzvl5K57ircKyq8P4OGzSDKaSPkgfknkIezJ52PWFXZCDZNmuBs+zS/abfti/ig408V9grIr1LvRrDOl/6OD0bG1GIW7wjUkvvUSn7womcvK7l1xZlKzLXejyREGfNtlkk+BL2iVe6Ru/EuP5ToW434+hRRzxDB/kSGQ+1fbu9KVTjtLZbAGnHxSjiWOWnJpTBBgnGiywwALxa+eEY9VKojL2y+1R8IvworBxCoy2SiIR7RfnEqeh/GXEiSJQBNwW4UQ/JQjESR8l+YtTItBXkpb4v56WJClOjdh0003jNIbiLMeOmyzGHqdrFMWMEyScLoCekvzFr7ITJajEL79L0tXuvPPO8QvxpLU4/vi1t+Pl8MEvyLtwCo0+u8c3FiOPX7Gjd5VVVonjnUpAjlMltDUMaC2GHOP1/AorrBA0eR+8V5Lu4CXa3cdHNBVDiGeKY4kjBZ0e0IVTF/TvFJtEcYrRT/cormKU0R4alltuuThOy0k2rhkTDBtvSWJDPk6o6aIUJSGrUShOLE4zcbRYKcrilJn55psvaC2GOnjqnpMCStAKXSyOPU5GKI4xjvpCT6IEw3gf/WRZKv3QY8+hJVGcRtClb0eE0R0nFZRCIU4cAHzBH/JPkIGTCVIuToTBG/Q7ZWmUPq+11lrBy4022ij4ir48Og8cD4mndHnzzTcPGdJ5fRQnNXhqWvTpY2t0I09pSuizFHDxdymO4sQN9BqzPvDBdSiOPGSAz3hBpmSRp1a9b8hRaFAcbxy5Rh/xwUkgjr80JifxpM6z6ZNPPjna92z2m6APCy+8cPDXiTlOjCE7dk3HwKkJ+Nc9CWUY2II28J09s/ullloq+naiRQnK8ZwTTjyjDydaOfXHiUd8Rp56UwJGjMVJGV3QFfrF1vmlddddN04AoYNOWhkGvNpuu+1ijMbns+CCC8aRc+TuPl/jPr3BxxIA4+QgcGoXGaCRbNkNmyhBPu53ZcTG+QJ6Qt7kqV0nzST4Bvykx07nKUlrXNcfWfxxcOrOKP/XRwm64Z/wlE7Q95VXXjlOGHFSzSigGx1opZ90k453/ccwHTdGdOFpF/w4nz8eHAOLt/TCSWzsjSz7cqb/JaEJ2oyvixn1JfiI7gMOOGBwpY1Ta4xb3OC/8vQfcZl+0F0ydKIMXokB5DMK2qMbxrjsssuGLpTiMMaJbwk2oE/+Uptk58QhviL1YRh23333kAc9oY9s2vgn6iedAERXnaCUKEVy+CB+MMHW2Yj2xGX8pU/8PdAHtKKbPTm9S+x2klki/QbMDH3DUBLI8FNkjG9Ot+Nj+IxSvA6e+i/4JuNDMx/Fh6CNDrJ/YCvkoX/8oJfyFuMuSXQ844QicpPX7LrrruG7+CD6WIqceKYPY2MXfB3QQ/Yqt+jiwgsvDJ1OsC80oHe11VYL3m2//fZj9Mq5jBfNeIoGedlNN900sg/oxxTxjs+j6+IWnaW/5DUR3wmXXnppnMwodpED/68NJxHKs2YVZpv/M64qWOVoBl4lWRgaswkqarOOCbOTZlRVnZZAR8GwVZlmClRlZro8b3+wZfsi4MGTw1EEF0vjZkzM+ljCLwoUS9X2p5rRUrWZCbJVRmVvu0NxhlHtgmrOKQpmqfWtDf2qGrWRz6DPVobiuKLqK0YbM4nF+OOav80QW9b1PaGKN0NiS07yQiVvdsNMiqrcPfuyzTh33+0DHU6OMR5/Wx0wy1ocWNw3U2BWQ3VLBtqzXcL2D8BvckMTuhPF0GIJF1+S52RtlqgElmm2E/kxmj3R+rL0SfZme/SB98PGWxxn6I1KX3WfUGmTv60qw0B2VjJKII1ZJbPHJVjEfkd61+WVrU/2/dr6YrbQ9gp6VBx0zCqA8ZsF95sLM3P4Z/81GdANz+ZzZhosxZvFQTd99EMqS9J0h7zNLuKj+wlyQQddsWJUAlusGpntIA862YeZJbpga5l3zKah31iBLPACPf4tDjP0DN/wOcfXRZ8+8tI+Ppo5T2iPrniOnOg5/TK7b7kbr8k2+8A39uK0HDbnNAt6Uxxl9MfOzLybCe6CTLxjDGZEzXb6gTwbo7/Zvtk4vkN72u3yFswI0W+6SQ70iVz8qw2zMuRpPOP5Dzy1LQOf8N4qAt1Ajz3k9AHwhG3QGTrGfxifazlOOu+HxSVYjb2XyBUAPo78vY9PJQCP2WUfZtjxyey/Ns1ikRGYISYb98xWGTM95wcsUeMzH2BM2jGDRYZpi10ZlUAXqxeeZcNoMna6l3znq8wM87Hs2/5/+oNX2sfntIdh/m8YyMeyvlk9tJfAH+3RN7o9DOggd7QaJ7vig+lv+o9hOk7O/JGxWdlMoIFsxvutVUl6QmfFBs/yhXQWf9h0gv/kJ9Bl1TNjC8yoL0n/a3+x7Z5g9pL/5we1a5uEsQJeohO92qAPaDXuYf4BtMEH5/+ISzwnC7QZS0K/aLFKIOayG7aJ1/SRHxgGOktHjZ0diUVWKD0/ET9pBl6cxK/kN1roKlqtpuQ18qSj4hs94kPZjnaM03W6Q8/oPV6jJW0w/YatazCj9A2D/uUkfAh+W4EWd+iDMQzjHz9LnvjHF5KLH+WiHYwZ/7VJV6yasnX0sEHv4DndJzd+gdw8gxfsvxQP0VYX2nXAClvHG23zbewy+Q05djoGbJ+c+Tn2b7VIbpBxAC38upV5ui5+0wd5o3vD+oBhMUX8EKNsdTWevffeO2Tp/en5TrZgjA4voQ/8OJ+NXjpBr2YVZptEv6Li3kQm+pbobeOqqJgqdBN9iUNFRUVFxewB/tv2MQWRiZRhRcv9DbPNHv2KioqKioqKioqK+wJWXyT3VlhN1Fhlmh1QE/2KiiGwHGoptbt1qKJiKmAJ1xL8eFs3KioqKiruX7ANykEbtlc5zGV6W7zvL6hbdyoqKioqKioqKirmQNQZ/YqKioqKioqKioo5EDXRr6ioqKioqKioqJgDURP9ioqKioqKioqKijkQNdGvqKioqKioqKiomANRE/2KioqKioqKioqKORA10a+oqKioqKioqKiYA1ET/YqKioqKioqKioo5Dk3z/8AwUEF0EtyvAAAAAElFTkSuQmCC;" vertex="1" parent="1">
          <mxGeometry x="20" y="80" width="762" height="382" as="geometry" />
        </mxCell>
        <mxCell id="XbuNJkuJVUiQV9hjVVE--14" value="" style="edgeStyle=orthogonalEdgeStyle;rounded=0;orthogonalLoop=1;jettySize=auto;html=1;endArrow=none;endFill=0;" edge="1" parent="1" source="XbuNJkuJVUiQV9hjVVE--2" target="XbuNJkuJVUiQV9hjVVE--13">
          <mxGeometry relative="1" as="geometry" />
        </mxCell>
        <mxCell id="XbuNJkuJVUiQV9hjVVE--24" value="" style="edgeStyle=orthogonalEdgeStyle;rounded=0;orthogonalLoop=1;jettySize=auto;html=1;endArrow=none;endFill=0;" edge="1" parent="1" source="XbuNJkuJVUiQV9hjVVE--2" target="XbuNJkuJVUiQV9hjVVE--22">
          <mxGeometry relative="1" as="geometry" />
        </mxCell>
        <mxCell id="XbuNJkuJVUiQV9hjVVE--2" value="Usuario" style="rounded=0;whiteSpace=wrap;html=1;" vertex="1" parent="1">
          <mxGeometry x="385" y="590" width="120" height="60" as="geometry" />
        </mxCell>
        <mxCell id="XbuNJkuJVUiQV9hjVVE--10" value="" style="edgeStyle=orthogonalEdgeStyle;rounded=0;orthogonalLoop=1;jettySize=auto;html=1;endArrow=none;endFill=0;" edge="1" parent="1" source="XbuNJkuJVUiQV9hjVVE--3" target="XbuNJkuJVUiQV9hjVVE--9">
          <mxGeometry relative="1" as="geometry">
            <Array as="points">
              <mxPoint x="335" y="630" />
              <mxPoint x="335" y="630" />
            </Array>
          </mxGeometry>
        </mxCell>
        <mxCell id="XbuNJkuJVUiQV9hjVVE--3" value="TiposDeUsuario" style="rounded=0;whiteSpace=wrap;html=1;" vertex="1" parent="1">
          <mxGeometry x="105" y="590" width="120" height="60" as="geometry" />
        </mxCell>
        <mxCell id="XbuNJkuJVUiQV9hjVVE--4" value="TiposdeEvento" style="rounded=0;whiteSpace=wrap;html=1;" vertex="1" parent="1">
          <mxGeometry x="105" y="1060" width="120" height="60" as="geometry" />
        </mxCell>
        <mxCell id="XbuNJkuJVUiQV9hjVVE--21" value="" style="edgeStyle=orthogonalEdgeStyle;rounded=0;orthogonalLoop=1;jettySize=auto;html=1;endArrow=none;endFill=0;" edge="1" parent="1" source="XbuNJkuJVUiQV9hjVVE--5" target="XbuNJkuJVUiQV9hjVVE--19">
          <mxGeometry relative="1" as="geometry" />
        </mxCell>
        <mxCell id="XbuNJkuJVUiQV9hjVVE--5" value="Evento" style="rounded=0;whiteSpace=wrap;html=1;" vertex="1" parent="1">
          <mxGeometry x="385" y="1060" width="120" height="60" as="geometry" />
        </mxCell>
        <mxCell id="XbuNJkuJVUiQV9hjVVE--17" value="" style="edgeStyle=orthogonalEdgeStyle;rounded=0;orthogonalLoop=1;jettySize=auto;html=1;endArrow=none;endFill=0;" edge="1" parent="1" source="XbuNJkuJVUiQV9hjVVE--6" target="XbuNJkuJVUiQV9hjVVE--16">
          <mxGeometry relative="1" as="geometry" />
        </mxCell>
        <mxCell id="XbuNJkuJVUiQV9hjVVE--6" value="PresencasEvento" style="rounded=0;whiteSpace=wrap;html=1;" vertex="1" parent="1">
          <mxGeometry x="565" y="720" width="120" height="60" as="geometry" />
        </mxCell>
        <mxCell id="XbuNJkuJVUiQV9hjVVE--26" value="" style="edgeStyle=orthogonalEdgeStyle;rounded=0;orthogonalLoop=1;jettySize=auto;html=1;endArrow=none;endFill=0;" edge="1" parent="1" source="XbuNJkuJVUiQV9hjVVE--7" target="XbuNJkuJVUiQV9hjVVE--23">
          <mxGeometry relative="1" as="geometry" />
        </mxCell>
        <mxCell id="XbuNJkuJVUiQV9hjVVE--7" value="Comentario" style="rounded=0;whiteSpace=wrap;html=1;" vertex="1" parent="1">
          <mxGeometry x="385" y="830" width="120" height="60" as="geometry" />
        </mxCell>
        <mxCell id="XbuNJkuJVUiQV9hjVVE--8" value="Instituicao" style="rounded=0;whiteSpace=wrap;html=1;" vertex="1" parent="1">
          <mxGeometry x="385" y="1320" width="120" height="60" as="geometry" />
        </mxCell>
        <mxCell id="XbuNJkuJVUiQV9hjVVE--12" value="" style="edgeStyle=orthogonalEdgeStyle;rounded=0;orthogonalLoop=1;jettySize=auto;html=1;endArrow=none;endFill=0;" edge="1" parent="1" source="XbuNJkuJVUiQV9hjVVE--9" target="XbuNJkuJVUiQV9hjVVE--2">
          <mxGeometry relative="1" as="geometry" />
        </mxCell>
        <mxCell id="XbuNJkuJVUiQV9hjVVE--9" value="possui" style="rhombus;whiteSpace=wrap;html=1;" vertex="1" parent="1">
          <mxGeometry x="265" y="580" width="80" height="80" as="geometry" />
        </mxCell>
        <mxCell id="XbuNJkuJVUiQV9hjVVE--15" value="" style="edgeStyle=orthogonalEdgeStyle;rounded=0;orthogonalLoop=1;jettySize=auto;html=1;endArrow=none;endFill=0;" edge="1" parent="1" source="XbuNJkuJVUiQV9hjVVE--13" target="XbuNJkuJVUiQV9hjVVE--6">
          <mxGeometry relative="1" as="geometry" />
        </mxCell>
        <mxCell id="XbuNJkuJVUiQV9hjVVE--13" value="possui" style="rhombus;whiteSpace=wrap;html=1;" vertex="1" parent="1">
          <mxGeometry x="585" y="580" width="80" height="80" as="geometry" />
        </mxCell>
        <mxCell id="XbuNJkuJVUiQV9hjVVE--18" value="" style="edgeStyle=orthogonalEdgeStyle;rounded=0;orthogonalLoop=1;jettySize=auto;html=1;endArrow=none;endFill=0;" edge="1" parent="1" source="XbuNJkuJVUiQV9hjVVE--16" target="XbuNJkuJVUiQV9hjVVE--5">
          <mxGeometry relative="1" as="geometry" />
        </mxCell>
        <mxCell id="XbuNJkuJVUiQV9hjVVE--16" value="possui" style="rhombus;whiteSpace=wrap;html=1;" vertex="1" parent="1">
          <mxGeometry x="585" y="1050" width="80" height="80" as="geometry" />
        </mxCell>
        <mxCell id="XbuNJkuJVUiQV9hjVVE--20" value="" style="edgeStyle=orthogonalEdgeStyle;rounded=0;orthogonalLoop=1;jettySize=auto;html=1;endArrow=none;endFill=0;" edge="1" parent="1" source="XbuNJkuJVUiQV9hjVVE--19" target="XbuNJkuJVUiQV9hjVVE--4">
          <mxGeometry relative="1" as="geometry" />
        </mxCell>
        <mxCell id="XbuNJkuJVUiQV9hjVVE--19" value="possui" style="rhombus;whiteSpace=wrap;html=1;" vertex="1" parent="1">
          <mxGeometry x="265" y="1050" width="80" height="80" as="geometry" />
        </mxCell>
        <mxCell id="XbuNJkuJVUiQV9hjVVE--25" value="" style="edgeStyle=orthogonalEdgeStyle;rounded=0;orthogonalLoop=1;jettySize=auto;html=1;endArrow=none;endFill=0;" edge="1" parent="1" source="XbuNJkuJVUiQV9hjVVE--22" target="XbuNJkuJVUiQV9hjVVE--7">
          <mxGeometry relative="1" as="geometry" />
        </mxCell>
        <mxCell id="XbuNJkuJVUiQV9hjVVE--22" value="possui" style="rhombus;whiteSpace=wrap;html=1;" vertex="1" parent="1">
          <mxGeometry x="405" y="690" width="80" height="80" as="geometry" />
        </mxCell>
        <mxCell id="XbuNJkuJVUiQV9hjVVE--27" value="" style="edgeStyle=orthogonalEdgeStyle;rounded=0;orthogonalLoop=1;jettySize=auto;html=1;endArrow=none;endFill=0;" edge="1" parent="1" source="XbuNJkuJVUiQV9hjVVE--23" target="XbuNJkuJVUiQV9hjVVE--5">
          <mxGeometry relative="1" as="geometry" />
        </mxCell>
        <mxCell id="XbuNJkuJVUiQV9hjVVE--23" value="possui" style="rhombus;whiteSpace=wrap;html=1;" vertex="1" parent="1">
          <mxGeometry x="405" y="930" width="80" height="80" as="geometry" />
        </mxCell>
        <mxCell id="XbuNJkuJVUiQV9hjVVE--29" value="" style="edgeStyle=orthogonalEdgeStyle;rounded=0;orthogonalLoop=1;jettySize=auto;html=1;endArrow=none;endFill=0;" edge="1" parent="1" source="XbuNJkuJVUiQV9hjVVE--28" target="XbuNJkuJVUiQV9hjVVE--5">
          <mxGeometry relative="1" as="geometry" />
        </mxCell>
        <mxCell id="XbuNJkuJVUiQV9hjVVE--30" value="" style="edgeStyle=orthogonalEdgeStyle;rounded=0;orthogonalLoop=1;jettySize=auto;html=1;endArrow=none;endFill=0;" edge="1" parent="1" source="XbuNJkuJVUiQV9hjVVE--28" target="XbuNJkuJVUiQV9hjVVE--8">
          <mxGeometry relative="1" as="geometry" />
        </mxCell>
        <mxCell id="XbuNJkuJVUiQV9hjVVE--28" value="possui" style="rhombus;whiteSpace=wrap;html=1;" vertex="1" parent="1">
          <mxGeometry x="405" y="1180" width="80" height="80" as="geometry" />
        </mxCell>
        <mxCell id="XbuNJkuJVUiQV9hjVVE--31" value="N" style="text;html=1;align=center;verticalAlign=middle;resizable=0;points=[];autosize=1;strokeColor=none;fillColor=none;" vertex="1" parent="1">
          <mxGeometry x="355" y="590" width="30" height="30" as="geometry" />
        </mxCell>
        <mxCell id="XbuNJkuJVUiQV9hjVVE--32" value="1" style="text;html=1;align=center;verticalAlign=middle;resizable=0;points=[];autosize=1;strokeColor=none;fillColor=none;" vertex="1" parent="1">
          <mxGeometry x="224" y="590" width="30" height="30" as="geometry" />
        </mxCell>
        <mxCell id="XbuNJkuJVUiQV9hjVVE--33" value="N" style="text;html=1;align=center;verticalAlign=middle;resizable=0;points=[];autosize=1;strokeColor=none;fillColor=none;" vertex="1" parent="1">
          <mxGeometry x="625" y="690" width="30" height="30" as="geometry" />
        </mxCell>
        <mxCell id="XbuNJkuJVUiQV9hjVVE--34" value="1" style="text;html=1;align=center;verticalAlign=middle;resizable=0;points=[];autosize=1;strokeColor=none;fillColor=none;" vertex="1" parent="1">
          <mxGeometry x="505" y="590" width="30" height="30" as="geometry" />
        </mxCell>
        <mxCell id="XbuNJkuJVUiQV9hjVVE--35" value="1" style="text;html=1;align=center;verticalAlign=middle;resizable=0;points=[];autosize=1;strokeColor=none;fillColor=none;" vertex="1" parent="1">
          <mxGeometry x="505" y="1090" width="30" height="30" as="geometry" />
        </mxCell>
        <mxCell id="XbuNJkuJVUiQV9hjVVE--36" value="N" style="text;html=1;align=center;verticalAlign=middle;resizable=0;points=[];autosize=1;strokeColor=none;fillColor=none;" vertex="1" parent="1">
          <mxGeometry x="625" y="780" width="30" height="30" as="geometry" />
        </mxCell>
        <mxCell id="XbuNJkuJVUiQV9hjVVE--37" value="1" style="text;html=1;align=center;verticalAlign=middle;resizable=0;points=[];autosize=1;strokeColor=none;fillColor=none;" vertex="1" parent="1">
          <mxGeometry x="415" y="650" width="30" height="30" as="geometry" />
        </mxCell>
        <mxCell id="XbuNJkuJVUiQV9hjVVE--38" value="N" style="text;html=1;align=center;verticalAlign=middle;resizable=0;points=[];autosize=1;strokeColor=none;fillColor=none;" vertex="1" parent="1">
          <mxGeometry x="415" y="798" width="30" height="30" as="geometry" />
        </mxCell>
        <mxCell id="XbuNJkuJVUiQV9hjVVE--39" value="1" style="text;html=1;align=center;verticalAlign=middle;resizable=0;points=[];autosize=1;strokeColor=none;fillColor=none;" vertex="1" parent="1">
          <mxGeometry x="415" y="1030" width="30" height="30" as="geometry" />
        </mxCell>
        <mxCell id="XbuNJkuJVUiQV9hjVVE--40" value="N" style="text;html=1;align=center;verticalAlign=middle;resizable=0;points=[];autosize=1;strokeColor=none;fillColor=none;" vertex="1" parent="1">
          <mxGeometry x="415" y="890" width="30" height="30" as="geometry" />
        </mxCell>
        <mxCell id="XbuNJkuJVUiQV9hjVVE--41" value="1" style="text;html=1;align=center;verticalAlign=middle;resizable=0;points=[];autosize=1;strokeColor=none;fillColor=none;" vertex="1" parent="1">
          <mxGeometry x="224" y="1088" width="30" height="30" as="geometry" />
        </mxCell>
        <mxCell id="XbuNJkuJVUiQV9hjVVE--42" value="N" style="text;html=1;align=center;verticalAlign=middle;resizable=0;points=[];autosize=1;strokeColor=none;fillColor=none;" vertex="1" parent="1">
          <mxGeometry x="354" y="1090" width="30" height="30" as="geometry" />
        </mxCell>
        <mxCell id="XbuNJkuJVUiQV9hjVVE--43" value="N" style="text;html=1;align=center;verticalAlign=middle;resizable=0;points=[];autosize=1;strokeColor=none;fillColor=none;" vertex="1" parent="1">
          <mxGeometry x="445" y="1119" width="30" height="30" as="geometry" />
        </mxCell>
        <mxCell id="XbuNJkuJVUiQV9hjVVE--44" value="1" style="text;html=1;align=center;verticalAlign=middle;resizable=0;points=[];autosize=1;strokeColor=none;fillColor=none;" vertex="1" parent="1">
          <mxGeometry x="445" y="1291" width="30" height="30" as="geometry" />
        </mxCell>
        <mxCell id="XbuNJkuJVUiQV9hjVVE--45" value="TiposDeUsuario" style="shape=table;startSize=30;container=1;collapsible=1;childLayout=tableLayout;fixedRows=1;rowLines=0;fontStyle=1;align=center;resizeLast=1;html=1;" vertex="1" parent="1">
          <mxGeometry x="770" y="670" width="180" height="90" as="geometry" />
        </mxCell>
        <mxCell id="XbuNJkuJVUiQV9hjVVE--46" value="" style="shape=tableRow;horizontal=0;startSize=0;swimlaneHead=0;swimlaneBody=0;fillColor=none;collapsible=0;dropTarget=0;points=[[0,0.5],[1,0.5]];portConstraint=eastwest;top=0;left=0;right=0;bottom=1;" vertex="1" parent="XbuNJkuJVUiQV9hjVVE--45">
          <mxGeometry y="30" width="180" height="30" as="geometry" />
        </mxCell>
        <mxCell id="XbuNJkuJVUiQV9hjVVE--47" value="PK" style="shape=partialRectangle;connectable=0;fillColor=none;top=0;left=0;bottom=0;right=0;fontStyle=1;overflow=hidden;whiteSpace=wrap;html=1;" vertex="1" parent="XbuNJkuJVUiQV9hjVVE--46">
          <mxGeometry width="30" height="30" as="geometry">
            <mxRectangle width="30" height="30" as="alternateBounds" />
          </mxGeometry>
        </mxCell>
        <mxCell id="XbuNJkuJVUiQV9hjVVE--48" value="IdTipoDeUsuario" style="shape=partialRectangle;connectable=0;fillColor=none;top=0;left=0;bottom=0;right=0;align=left;spacingLeft=6;fontStyle=5;overflow=hidden;whiteSpace=wrap;html=1;" vertex="1" parent="XbuNJkuJVUiQV9hjVVE--46">
          <mxGeometry x="30" width="150" height="30" as="geometry">
            <mxRectangle width="150" height="30" as="alternateBounds" />
          </mxGeometry>
        </mxCell>
        <mxCell id="XbuNJkuJVUiQV9hjVVE--49" value="" style="shape=tableRow;horizontal=0;startSize=0;swimlaneHead=0;swimlaneBody=0;fillColor=none;collapsible=0;dropTarget=0;points=[[0,0.5],[1,0.5]];portConstraint=eastwest;top=0;left=0;right=0;bottom=0;" vertex="1" parent="XbuNJkuJVUiQV9hjVVE--45">
          <mxGeometry y="60" width="180" height="30" as="geometry" />
        </mxCell>
        <mxCell id="XbuNJkuJVUiQV9hjVVE--50" value="" style="shape=partialRectangle;connectable=0;fillColor=none;top=0;left=0;bottom=0;right=0;editable=1;overflow=hidden;whiteSpace=wrap;html=1;" vertex="1" parent="XbuNJkuJVUiQV9hjVVE--49">
          <mxGeometry width="30" height="30" as="geometry">
            <mxRectangle width="30" height="30" as="alternateBounds" />
          </mxGeometry>
        </mxCell>
        <mxCell id="XbuNJkuJVUiQV9hjVVE--51" value="TituloTipoUsuario" style="shape=partialRectangle;connectable=0;fillColor=none;top=0;left=0;bottom=0;right=0;align=left;spacingLeft=6;overflow=hidden;whiteSpace=wrap;html=1;" vertex="1" parent="XbuNJkuJVUiQV9hjVVE--49">
          <mxGeometry x="30" width="150" height="30" as="geometry">
            <mxRectangle width="150" height="30" as="alternateBounds" />
          </mxGeometry>
        </mxCell>
        <mxCell id="XbuNJkuJVUiQV9hjVVE--58" value="TiposDeEvento" style="shape=table;startSize=30;container=1;collapsible=1;childLayout=tableLayout;fixedRows=1;rowLines=0;fontStyle=1;align=center;resizeLast=1;html=1;" vertex="1" parent="1">
          <mxGeometry x="1370" y="815" width="180" height="90" as="geometry" />
        </mxCell>
        <mxCell id="XbuNJkuJVUiQV9hjVVE--59" value="" style="shape=tableRow;horizontal=0;startSize=0;swimlaneHead=0;swimlaneBody=0;fillColor=none;collapsible=0;dropTarget=0;points=[[0,0.5],[1,0.5]];portConstraint=eastwest;top=0;left=0;right=0;bottom=1;" vertex="1" parent="XbuNJkuJVUiQV9hjVVE--58">
          <mxGeometry y="30" width="180" height="30" as="geometry" />
        </mxCell>
        <mxCell id="XbuNJkuJVUiQV9hjVVE--60" value="PK" style="shape=partialRectangle;connectable=0;fillColor=none;top=0;left=0;bottom=0;right=0;fontStyle=1;overflow=hidden;whiteSpace=wrap;html=1;" vertex="1" parent="XbuNJkuJVUiQV9hjVVE--59">
          <mxGeometry width="30" height="30" as="geometry">
            <mxRectangle width="30" height="30" as="alternateBounds" />
          </mxGeometry>
        </mxCell>
        <mxCell id="XbuNJkuJVUiQV9hjVVE--61" value="IdTipoDeEvento" style="shape=partialRectangle;connectable=0;fillColor=none;top=0;left=0;bottom=0;right=0;align=left;spacingLeft=6;fontStyle=5;overflow=hidden;whiteSpace=wrap;html=1;" vertex="1" parent="XbuNJkuJVUiQV9hjVVE--59">
          <mxGeometry x="30" width="150" height="30" as="geometry">
            <mxRectangle width="150" height="30" as="alternateBounds" />
          </mxGeometry>
        </mxCell>
        <mxCell id="XbuNJkuJVUiQV9hjVVE--62" value="" style="shape=tableRow;horizontal=0;startSize=0;swimlaneHead=0;swimlaneBody=0;fillColor=none;collapsible=0;dropTarget=0;points=[[0,0.5],[1,0.5]];portConstraint=eastwest;top=0;left=0;right=0;bottom=0;" vertex="1" parent="XbuNJkuJVUiQV9hjVVE--58">
          <mxGeometry y="60" width="180" height="30" as="geometry" />
        </mxCell>
        <mxCell id="XbuNJkuJVUiQV9hjVVE--63" value="" style="shape=partialRectangle;connectable=0;fillColor=none;top=0;left=0;bottom=0;right=0;editable=1;overflow=hidden;whiteSpace=wrap;html=1;" vertex="1" parent="XbuNJkuJVUiQV9hjVVE--62">
          <mxGeometry width="30" height="30" as="geometry">
            <mxRectangle width="30" height="30" as="alternateBounds" />
          </mxGeometry>
        </mxCell>
        <mxCell id="XbuNJkuJVUiQV9hjVVE--64" value="TituloTipoEvento" style="shape=partialRectangle;connectable=0;fillColor=none;top=0;left=0;bottom=0;right=0;align=left;spacingLeft=6;overflow=hidden;whiteSpace=wrap;html=1;" vertex="1" parent="XbuNJkuJVUiQV9hjVVE--62">
          <mxGeometry x="30" width="150" height="30" as="geometry">
            <mxRectangle width="150" height="30" as="alternateBounds" />
          </mxGeometry>
        </mxCell>
        <mxCell id="XbuNJkuJVUiQV9hjVVE--65" value="Instituicao" style="shape=table;startSize=30;container=1;collapsible=1;childLayout=tableLayout;fixedRows=1;rowLines=0;fontStyle=1;align=center;resizeLast=1;html=1;" vertex="1" parent="1">
          <mxGeometry x="1920" y="675" width="180" height="150" as="geometry" />
        </mxCell>
        <mxCell id="XbuNJkuJVUiQV9hjVVE--66" value="" style="shape=tableRow;horizontal=0;startSize=0;swimlaneHead=0;swimlaneBody=0;fillColor=none;collapsible=0;dropTarget=0;points=[[0,0.5],[1,0.5]];portConstraint=eastwest;top=0;left=0;right=0;bottom=1;" vertex="1" parent="XbuNJkuJVUiQV9hjVVE--65">
          <mxGeometry y="30" width="180" height="30" as="geometry" />
        </mxCell>
        <mxCell id="XbuNJkuJVUiQV9hjVVE--67" value="PK" style="shape=partialRectangle;connectable=0;fillColor=none;top=0;left=0;bottom=0;right=0;fontStyle=1;overflow=hidden;whiteSpace=wrap;html=1;" vertex="1" parent="XbuNJkuJVUiQV9hjVVE--66">
          <mxGeometry width="30" height="30" as="geometry">
            <mxRectangle width="30" height="30" as="alternateBounds" />
          </mxGeometry>
        </mxCell>
        <mxCell id="XbuNJkuJVUiQV9hjVVE--68" value="IdInstituicao" style="shape=partialRectangle;connectable=0;fillColor=none;top=0;left=0;bottom=0;right=0;align=left;spacingLeft=6;fontStyle=5;overflow=hidden;whiteSpace=wrap;html=1;" vertex="1" parent="XbuNJkuJVUiQV9hjVVE--66">
          <mxGeometry x="30" width="150" height="30" as="geometry">
            <mxRectangle width="150" height="30" as="alternateBounds" />
          </mxGeometry>
        </mxCell>
        <mxCell id="XbuNJkuJVUiQV9hjVVE--69" value="" style="shape=tableRow;horizontal=0;startSize=0;swimlaneHead=0;swimlaneBody=0;fillColor=none;collapsible=0;dropTarget=0;points=[[0,0.5],[1,0.5]];portConstraint=eastwest;top=0;left=0;right=0;bottom=0;" vertex="1" parent="XbuNJkuJVUiQV9hjVVE--65">
          <mxGeometry y="60" width="180" height="30" as="geometry" />
        </mxCell>
        <mxCell id="XbuNJkuJVUiQV9hjVVE--70" value="" style="shape=partialRectangle;connectable=0;fillColor=none;top=0;left=0;bottom=0;right=0;editable=1;overflow=hidden;whiteSpace=wrap;html=1;" vertex="1" parent="XbuNJkuJVUiQV9hjVVE--69">
          <mxGeometry width="30" height="30" as="geometry">
            <mxRectangle width="30" height="30" as="alternateBounds" />
          </mxGeometry>
        </mxCell>
        <mxCell id="XbuNJkuJVUiQV9hjVVE--71" value="CNPJ" style="shape=partialRectangle;connectable=0;fillColor=none;top=0;left=0;bottom=0;right=0;align=left;spacingLeft=6;overflow=hidden;whiteSpace=wrap;html=1;" vertex="1" parent="XbuNJkuJVUiQV9hjVVE--69">
          <mxGeometry x="30" width="150" height="30" as="geometry">
            <mxRectangle width="150" height="30" as="alternateBounds" />
          </mxGeometry>
        </mxCell>
        <mxCell id="XbuNJkuJVUiQV9hjVVE--75" style="shape=tableRow;horizontal=0;startSize=0;swimlaneHead=0;swimlaneBody=0;fillColor=none;collapsible=0;dropTarget=0;points=[[0,0.5],[1,0.5]];portConstraint=eastwest;top=0;left=0;right=0;bottom=0;" vertex="1" parent="XbuNJkuJVUiQV9hjVVE--65">
          <mxGeometry y="90" width="180" height="30" as="geometry" />
        </mxCell>
        <mxCell id="XbuNJkuJVUiQV9hjVVE--76" style="shape=partialRectangle;connectable=0;fillColor=none;top=0;left=0;bottom=0;right=0;editable=1;overflow=hidden;whiteSpace=wrap;html=1;" vertex="1" parent="XbuNJkuJVUiQV9hjVVE--75">
          <mxGeometry width="30" height="30" as="geometry">
            <mxRectangle width="30" height="30" as="alternateBounds" />
          </mxGeometry>
        </mxCell>
        <mxCell id="XbuNJkuJVUiQV9hjVVE--77" value="NomeFantasia" style="shape=partialRectangle;connectable=0;fillColor=none;top=0;left=0;bottom=0;right=0;align=left;spacingLeft=6;overflow=hidden;whiteSpace=wrap;html=1;" vertex="1" parent="XbuNJkuJVUiQV9hjVVE--75">
          <mxGeometry x="30" width="150" height="30" as="geometry">
            <mxRectangle width="150" height="30" as="alternateBounds" />
          </mxGeometry>
        </mxCell>
        <mxCell id="XbuNJkuJVUiQV9hjVVE--72" style="shape=tableRow;horizontal=0;startSize=0;swimlaneHead=0;swimlaneBody=0;fillColor=none;collapsible=0;dropTarget=0;points=[[0,0.5],[1,0.5]];portConstraint=eastwest;top=0;left=0;right=0;bottom=0;" vertex="1" parent="XbuNJkuJVUiQV9hjVVE--65">
          <mxGeometry y="120" width="180" height="30" as="geometry" />
        </mxCell>
        <mxCell id="XbuNJkuJVUiQV9hjVVE--73" style="shape=partialRectangle;connectable=0;fillColor=none;top=0;left=0;bottom=0;right=0;editable=1;overflow=hidden;whiteSpace=wrap;html=1;" vertex="1" parent="XbuNJkuJVUiQV9hjVVE--72">
          <mxGeometry width="30" height="30" as="geometry">
            <mxRectangle width="30" height="30" as="alternateBounds" />
          </mxGeometry>
        </mxCell>
        <mxCell id="XbuNJkuJVUiQV9hjVVE--74" value="Endereco" style="shape=partialRectangle;connectable=0;fillColor=none;top=0;left=0;bottom=0;right=0;align=left;spacingLeft=6;overflow=hidden;whiteSpace=wrap;html=1;" vertex="1" parent="XbuNJkuJVUiQV9hjVVE--72">
          <mxGeometry x="30" width="150" height="30" as="geometry">
            <mxRectangle width="150" height="30" as="alternateBounds" />
          </mxGeometry>
        </mxCell>
        <mxCell id="XbuNJkuJVUiQV9hjVVE--78" value="Usuario" style="shape=table;startSize=30;container=1;collapsible=1;childLayout=tableLayout;fixedRows=1;rowLines=0;fontStyle=1;align=center;resizeLast=1;html=1;whiteSpace=wrap;" vertex="1" parent="1">
          <mxGeometry x="1030" y="585" width="180" height="180" as="geometry" />
        </mxCell>
        <mxCell id="XbuNJkuJVUiQV9hjVVE--79" value="" style="shape=tableRow;horizontal=0;startSize=0;swimlaneHead=0;swimlaneBody=0;fillColor=none;collapsible=0;dropTarget=0;points=[[0,0.5],[1,0.5]];portConstraint=eastwest;top=0;left=0;right=0;bottom=0;html=1;" vertex="1" parent="XbuNJkuJVUiQV9hjVVE--78">
          <mxGeometry y="30" width="180" height="30" as="geometry" />
        </mxCell>
        <mxCell id="XbuNJkuJVUiQV9hjVVE--80" value="PK" style="shape=partialRectangle;connectable=0;fillColor=none;top=0;left=0;bottom=0;right=0;fontStyle=1;overflow=hidden;html=1;whiteSpace=wrap;" vertex="1" parent="XbuNJkuJVUiQV9hjVVE--79">
          <mxGeometry width="60" height="30" as="geometry">
            <mxRectangle width="60" height="30" as="alternateBounds" />
          </mxGeometry>
        </mxCell>
        <mxCell id="XbuNJkuJVUiQV9hjVVE--81" value="IdUsuario" style="shape=partialRectangle;connectable=0;fillColor=none;top=0;left=0;bottom=0;right=0;align=left;spacingLeft=6;fontStyle=5;overflow=hidden;html=1;whiteSpace=wrap;" vertex="1" parent="XbuNJkuJVUiQV9hjVVE--79">
          <mxGeometry x="60" width="120" height="30" as="geometry">
            <mxRectangle width="120" height="30" as="alternateBounds" />
          </mxGeometry>
        </mxCell>
        <mxCell id="XbuNJkuJVUiQV9hjVVE--82" value="" style="shape=tableRow;horizontal=0;startSize=0;swimlaneHead=0;swimlaneBody=0;fillColor=none;collapsible=0;dropTarget=0;points=[[0,0.5],[1,0.5]];portConstraint=eastwest;top=0;left=0;right=0;bottom=1;html=1;" vertex="1" parent="XbuNJkuJVUiQV9hjVVE--78">
          <mxGeometry y="60" width="180" height="30" as="geometry" />
        </mxCell>
        <mxCell id="XbuNJkuJVUiQV9hjVVE--83" value="FK" style="shape=partialRectangle;connectable=0;fillColor=none;top=0;left=0;bottom=0;right=0;fontStyle=1;overflow=hidden;html=1;whiteSpace=wrap;" vertex="1" parent="XbuNJkuJVUiQV9hjVVE--82">
          <mxGeometry width="60" height="30" as="geometry">
            <mxRectangle width="60" height="30" as="alternateBounds" />
          </mxGeometry>
        </mxCell>
        <mxCell id="XbuNJkuJVUiQV9hjVVE--84" value="IdTipoDeUsuario" style="shape=partialRectangle;connectable=0;fillColor=none;top=0;left=0;bottom=0;right=0;align=left;spacingLeft=6;fontStyle=5;overflow=hidden;html=1;whiteSpace=wrap;" vertex="1" parent="XbuNJkuJVUiQV9hjVVE--82">
          <mxGeometry x="60" width="120" height="30" as="geometry">
            <mxRectangle width="120" height="30" as="alternateBounds" />
          </mxGeometry>
        </mxCell>
        <mxCell id="XbuNJkuJVUiQV9hjVVE--85" value="" style="shape=tableRow;horizontal=0;startSize=0;swimlaneHead=0;swimlaneBody=0;fillColor=none;collapsible=0;dropTarget=0;points=[[0,0.5],[1,0.5]];portConstraint=eastwest;top=0;left=0;right=0;bottom=0;html=1;" vertex="1" parent="XbuNJkuJVUiQV9hjVVE--78">
          <mxGeometry y="90" width="180" height="30" as="geometry" />
        </mxCell>
        <mxCell id="XbuNJkuJVUiQV9hjVVE--86" value="" style="shape=partialRectangle;connectable=0;fillColor=none;top=0;left=0;bottom=0;right=0;editable=1;overflow=hidden;html=1;whiteSpace=wrap;" vertex="1" parent="XbuNJkuJVUiQV9hjVVE--85">
          <mxGeometry width="60" height="30" as="geometry">
            <mxRectangle width="60" height="30" as="alternateBounds" />
          </mxGeometry>
        </mxCell>
        <mxCell id="XbuNJkuJVUiQV9hjVVE--87" value="Nome" style="shape=partialRectangle;connectable=0;fillColor=none;top=0;left=0;bottom=0;right=0;align=left;spacingLeft=6;overflow=hidden;html=1;whiteSpace=wrap;" vertex="1" parent="XbuNJkuJVUiQV9hjVVE--85">
          <mxGeometry x="60" width="120" height="30" as="geometry">
            <mxRectangle width="120" height="30" as="alternateBounds" />
          </mxGeometry>
        </mxCell>
        <mxCell id="XbuNJkuJVUiQV9hjVVE--88" value="" style="shape=tableRow;horizontal=0;startSize=0;swimlaneHead=0;swimlaneBody=0;fillColor=none;collapsible=0;dropTarget=0;points=[[0,0.5],[1,0.5]];portConstraint=eastwest;top=0;left=0;right=0;bottom=0;html=1;" vertex="1" parent="XbuNJkuJVUiQV9hjVVE--78">
          <mxGeometry y="120" width="180" height="30" as="geometry" />
        </mxCell>
        <mxCell id="XbuNJkuJVUiQV9hjVVE--89" value="" style="shape=partialRectangle;connectable=0;fillColor=none;top=0;left=0;bottom=0;right=0;editable=1;overflow=hidden;html=1;whiteSpace=wrap;" vertex="1" parent="XbuNJkuJVUiQV9hjVVE--88">
          <mxGeometry width="60" height="30" as="geometry">
            <mxRectangle width="60" height="30" as="alternateBounds" />
          </mxGeometry>
        </mxCell>
        <mxCell id="XbuNJkuJVUiQV9hjVVE--90" value="Email" style="shape=partialRectangle;connectable=0;fillColor=none;top=0;left=0;bottom=0;right=0;align=left;spacingLeft=6;overflow=hidden;html=1;whiteSpace=wrap;" vertex="1" parent="XbuNJkuJVUiQV9hjVVE--88">
          <mxGeometry x="60" width="120" height="30" as="geometry">
            <mxRectangle width="120" height="30" as="alternateBounds" />
          </mxGeometry>
        </mxCell>
        <mxCell id="XbuNJkuJVUiQV9hjVVE--91" style="shape=tableRow;horizontal=0;startSize=0;swimlaneHead=0;swimlaneBody=0;fillColor=none;collapsible=0;dropTarget=0;points=[[0,0.5],[1,0.5]];portConstraint=eastwest;top=0;left=0;right=0;bottom=0;html=1;" vertex="1" parent="XbuNJkuJVUiQV9hjVVE--78">
          <mxGeometry y="150" width="180" height="30" as="geometry" />
        </mxCell>
        <mxCell id="XbuNJkuJVUiQV9hjVVE--92" style="shape=partialRectangle;connectable=0;fillColor=none;top=0;left=0;bottom=0;right=0;editable=1;overflow=hidden;html=1;whiteSpace=wrap;" vertex="1" parent="XbuNJkuJVUiQV9hjVVE--91">
          <mxGeometry width="60" height="30" as="geometry">
            <mxRectangle width="60" height="30" as="alternateBounds" />
          </mxGeometry>
        </mxCell>
        <mxCell id="XbuNJkuJVUiQV9hjVVE--93" value="Senha" style="shape=partialRectangle;connectable=0;fillColor=none;top=0;left=0;bottom=0;right=0;align=left;spacingLeft=6;overflow=hidden;html=1;whiteSpace=wrap;" vertex="1" parent="XbuNJkuJVUiQV9hjVVE--91">
          <mxGeometry x="60" width="120" height="30" as="geometry">
            <mxRectangle width="120" height="30" as="alternateBounds" />
          </mxGeometry>
        </mxCell>
        <mxCell id="XbuNJkuJVUiQV9hjVVE--94" value="" style="edgeStyle=entityRelationEdgeStyle;fontSize=12;html=1;endArrow=ERoneToMany;rounded=0;exitX=1;exitY=0.5;exitDx=0;exitDy=0;entryX=0;entryY=0.5;entryDx=0;entryDy=0;" edge="1" parent="1" source="XbuNJkuJVUiQV9hjVVE--46" target="XbuNJkuJVUiQV9hjVVE--82">
          <mxGeometry width="100" height="100" relative="1" as="geometry">
            <mxPoint x="880" y="830" as="sourcePoint" />
            <mxPoint x="980" y="730" as="targetPoint" />
            <Array as="points">
              <mxPoint x="1036" y="680" />
              <mxPoint x="1030" y="670" />
            </Array>
          </mxGeometry>
        </mxCell>
        <mxCell id="XbuNJkuJVUiQV9hjVVE--96" value="PresencasEvento" style="shape=table;startSize=30;container=1;collapsible=1;childLayout=tableLayout;fixedRows=1;rowLines=0;fontStyle=1;align=center;resizeLast=1;html=1;whiteSpace=wrap;" vertex="1" parent="1">
          <mxGeometry x="1290" y="610" width="180" height="150" as="geometry" />
        </mxCell>
        <mxCell id="XbuNJkuJVUiQV9hjVVE--97" value="" style="shape=tableRow;horizontal=0;startSize=0;swimlaneHead=0;swimlaneBody=0;fillColor=none;collapsible=0;dropTarget=0;points=[[0,0.5],[1,0.5]];portConstraint=eastwest;top=0;left=0;right=0;bottom=0;html=1;" vertex="1" parent="XbuNJkuJVUiQV9hjVVE--96">
          <mxGeometry y="30" width="180" height="30" as="geometry" />
        </mxCell>
        <mxCell id="XbuNJkuJVUiQV9hjVVE--98" value="PK" style="shape=partialRectangle;connectable=0;fillColor=none;top=0;left=0;bottom=0;right=0;fontStyle=1;overflow=hidden;html=1;whiteSpace=wrap;" vertex="1" parent="XbuNJkuJVUiQV9hjVVE--97">
          <mxGeometry width="60" height="30" as="geometry">
            <mxRectangle width="60" height="30" as="alternateBounds" />
          </mxGeometry>
        </mxCell>
        <mxCell id="XbuNJkuJVUiQV9hjVVE--99" value="IdPresencaEvento" style="shape=partialRectangle;connectable=0;fillColor=none;top=0;left=0;bottom=0;right=0;align=left;spacingLeft=6;fontStyle=5;overflow=hidden;html=1;whiteSpace=wrap;" vertex="1" parent="XbuNJkuJVUiQV9hjVVE--97">
          <mxGeometry x="60" width="120" height="30" as="geometry">
            <mxRectangle width="120" height="30" as="alternateBounds" />
          </mxGeometry>
        </mxCell>
        <mxCell id="XbuNJkuJVUiQV9hjVVE--115" style="shape=tableRow;horizontal=0;startSize=0;swimlaneHead=0;swimlaneBody=0;fillColor=none;collapsible=0;dropTarget=0;points=[[0,0.5],[1,0.5]];portConstraint=eastwest;top=0;left=0;right=0;bottom=0;html=1;" vertex="1" parent="XbuNJkuJVUiQV9hjVVE--96">
          <mxGeometry y="60" width="180" height="30" as="geometry" />
        </mxCell>
        <mxCell id="XbuNJkuJVUiQV9hjVVE--116" value="FK" style="shape=partialRectangle;connectable=0;fillColor=none;top=0;left=0;bottom=0;right=0;fontStyle=1;overflow=hidden;html=1;whiteSpace=wrap;" vertex="1" parent="XbuNJkuJVUiQV9hjVVE--115">
          <mxGeometry width="60" height="30" as="geometry">
            <mxRectangle width="60" height="30" as="alternateBounds" />
          </mxGeometry>
        </mxCell>
        <mxCell id="XbuNJkuJVUiQV9hjVVE--117" value="IdEvento" style="shape=partialRectangle;connectable=0;fillColor=none;top=0;left=0;bottom=0;right=0;align=left;spacingLeft=6;fontStyle=5;overflow=hidden;html=1;whiteSpace=wrap;" vertex="1" parent="XbuNJkuJVUiQV9hjVVE--115">
          <mxGeometry x="60" width="120" height="30" as="geometry">
            <mxRectangle width="120" height="30" as="alternateBounds" />
          </mxGeometry>
        </mxCell>
        <mxCell id="XbuNJkuJVUiQV9hjVVE--100" value="" style="shape=tableRow;horizontal=0;startSize=0;swimlaneHead=0;swimlaneBody=0;fillColor=none;collapsible=0;dropTarget=0;points=[[0,0.5],[1,0.5]];portConstraint=eastwest;top=0;left=0;right=0;bottom=1;html=1;" vertex="1" parent="XbuNJkuJVUiQV9hjVVE--96">
          <mxGeometry y="90" width="180" height="30" as="geometry" />
        </mxCell>
        <mxCell id="XbuNJkuJVUiQV9hjVVE--101" value="FK" style="shape=partialRectangle;connectable=0;fillColor=none;top=0;left=0;bottom=0;right=0;fontStyle=1;overflow=hidden;html=1;whiteSpace=wrap;" vertex="1" parent="XbuNJkuJVUiQV9hjVVE--100">
          <mxGeometry width="60" height="30" as="geometry">
            <mxRectangle width="60" height="30" as="alternateBounds" />
          </mxGeometry>
        </mxCell>
        <mxCell id="XbuNJkuJVUiQV9hjVVE--102" value="IdUsuario" style="shape=partialRectangle;connectable=0;fillColor=none;top=0;left=0;bottom=0;right=0;align=left;spacingLeft=6;fontStyle=5;overflow=hidden;html=1;whiteSpace=wrap;" vertex="1" parent="XbuNJkuJVUiQV9hjVVE--100">
          <mxGeometry x="60" width="120" height="30" as="geometry">
            <mxRectangle width="120" height="30" as="alternateBounds" />
          </mxGeometry>
        </mxCell>
        <mxCell id="XbuNJkuJVUiQV9hjVVE--103" value="" style="shape=tableRow;horizontal=0;startSize=0;swimlaneHead=0;swimlaneBody=0;fillColor=none;collapsible=0;dropTarget=0;points=[[0,0.5],[1,0.5]];portConstraint=eastwest;top=0;left=0;right=0;bottom=0;html=1;" vertex="1" parent="XbuNJkuJVUiQV9hjVVE--96">
          <mxGeometry y="120" width="180" height="30" as="geometry" />
        </mxCell>
        <mxCell id="XbuNJkuJVUiQV9hjVVE--104" value="" style="shape=partialRectangle;connectable=0;fillColor=none;top=0;left=0;bottom=0;right=0;editable=1;overflow=hidden;html=1;whiteSpace=wrap;" vertex="1" parent="XbuNJkuJVUiQV9hjVVE--103">
          <mxGeometry width="60" height="30" as="geometry">
            <mxRectangle width="60" height="30" as="alternateBounds" />
          </mxGeometry>
        </mxCell>
        <mxCell id="XbuNJkuJVUiQV9hjVVE--105" value="Situacao" style="shape=partialRectangle;connectable=0;fillColor=none;top=0;left=0;bottom=0;right=0;align=left;spacingLeft=6;overflow=hidden;html=1;whiteSpace=wrap;" vertex="1" parent="XbuNJkuJVUiQV9hjVVE--103">
          <mxGeometry x="60" width="120" height="30" as="geometry">
            <mxRectangle width="120" height="30" as="alternateBounds" />
          </mxGeometry>
        </mxCell>
        <mxCell id="XbuNJkuJVUiQV9hjVVE--118" value="" style="edgeStyle=entityRelationEdgeStyle;fontSize=12;html=1;endArrow=ERoneToMany;rounded=0;exitX=1;exitY=0.5;exitDx=0;exitDy=0;entryX=0;entryY=0.5;entryDx=0;entryDy=0;" edge="1" parent="1" source="XbuNJkuJVUiQV9hjVVE--79" target="XbuNJkuJVUiQV9hjVVE--100">
          <mxGeometry width="100" height="100" relative="1" as="geometry">
            <mxPoint x="1270" y="930" as="sourcePoint" />
            <mxPoint x="1370" y="830" as="targetPoint" />
          </mxGeometry>
        </mxCell>
        <mxCell id="XbuNJkuJVUiQV9hjVVE--132" value="Evento" style="shape=table;startSize=30;container=1;collapsible=1;childLayout=tableLayout;fixedRows=1;rowLines=0;fontStyle=1;align=center;resizeLast=1;html=1;whiteSpace=wrap;" vertex="1" parent="1">
          <mxGeometry x="1620" y="570" width="180" height="210" as="geometry" />
        </mxCell>
        <mxCell id="XbuNJkuJVUiQV9hjVVE--133" value="" style="shape=tableRow;horizontal=0;startSize=0;swimlaneHead=0;swimlaneBody=0;fillColor=none;collapsible=0;dropTarget=0;points=[[0,0.5],[1,0.5]];portConstraint=eastwest;top=0;left=0;right=0;bottom=0;html=1;" vertex="1" parent="XbuNJkuJVUiQV9hjVVE--132">
          <mxGeometry y="30" width="180" height="30" as="geometry" />
        </mxCell>
        <mxCell id="XbuNJkuJVUiQV9hjVVE--134" value="PK" style="shape=partialRectangle;connectable=0;fillColor=none;top=0;left=0;bottom=0;right=0;fontStyle=1;overflow=hidden;html=1;whiteSpace=wrap;" vertex="1" parent="XbuNJkuJVUiQV9hjVVE--133">
          <mxGeometry width="60" height="30" as="geometry">
            <mxRectangle width="60" height="30" as="alternateBounds" />
          </mxGeometry>
        </mxCell>
        <mxCell id="XbuNJkuJVUiQV9hjVVE--135" value="IdEvento" style="shape=partialRectangle;connectable=0;fillColor=none;top=0;left=0;bottom=0;right=0;align=left;spacingLeft=6;fontStyle=5;overflow=hidden;html=1;whiteSpace=wrap;" vertex="1" parent="XbuNJkuJVUiQV9hjVVE--133">
          <mxGeometry x="60" width="120" height="30" as="geometry">
            <mxRectangle width="120" height="30" as="alternateBounds" />
          </mxGeometry>
        </mxCell>
        <mxCell id="XbuNJkuJVUiQV9hjVVE--136" style="shape=tableRow;horizontal=0;startSize=0;swimlaneHead=0;swimlaneBody=0;fillColor=none;collapsible=0;dropTarget=0;points=[[0,0.5],[1,0.5]];portConstraint=eastwest;top=0;left=0;right=0;bottom=0;html=1;" vertex="1" parent="XbuNJkuJVUiQV9hjVVE--132">
          <mxGeometry y="60" width="180" height="30" as="geometry" />
        </mxCell>
        <mxCell id="XbuNJkuJVUiQV9hjVVE--137" value="FK" style="shape=partialRectangle;connectable=0;fillColor=none;top=0;left=0;bottom=0;right=0;fontStyle=1;overflow=hidden;html=1;whiteSpace=wrap;" vertex="1" parent="XbuNJkuJVUiQV9hjVVE--136">
          <mxGeometry width="60" height="30" as="geometry">
            <mxRectangle width="60" height="30" as="alternateBounds" />
          </mxGeometry>
        </mxCell>
        <mxCell id="XbuNJkuJVUiQV9hjVVE--138" value="IdInstituicao" style="shape=partialRectangle;connectable=0;fillColor=none;top=0;left=0;bottom=0;right=0;align=left;spacingLeft=6;fontStyle=5;overflow=hidden;html=1;whiteSpace=wrap;" vertex="1" parent="XbuNJkuJVUiQV9hjVVE--136">
          <mxGeometry x="60" width="120" height="30" as="geometry">
            <mxRectangle width="120" height="30" as="alternateBounds" />
          </mxGeometry>
        </mxCell>
        <mxCell id="XbuNJkuJVUiQV9hjVVE--139" value="" style="shape=tableRow;horizontal=0;startSize=0;swimlaneHead=0;swimlaneBody=0;fillColor=none;collapsible=0;dropTarget=0;points=[[0,0.5],[1,0.5]];portConstraint=eastwest;top=0;left=0;right=0;bottom=1;html=1;" vertex="1" parent="XbuNJkuJVUiQV9hjVVE--132">
          <mxGeometry y="90" width="180" height="30" as="geometry" />
        </mxCell>
        <mxCell id="XbuNJkuJVUiQV9hjVVE--140" value="FK" style="shape=partialRectangle;connectable=0;fillColor=none;top=0;left=0;bottom=0;right=0;fontStyle=1;overflow=hidden;html=1;whiteSpace=wrap;" vertex="1" parent="XbuNJkuJVUiQV9hjVVE--139">
          <mxGeometry width="60" height="30" as="geometry">
            <mxRectangle width="60" height="30" as="alternateBounds" />
          </mxGeometry>
        </mxCell>
        <mxCell id="XbuNJkuJVUiQV9hjVVE--141" value="IdTipoDeEvento" style="shape=partialRectangle;connectable=0;fillColor=none;top=0;left=0;bottom=0;right=0;align=left;spacingLeft=6;fontStyle=5;overflow=hidden;html=1;whiteSpace=wrap;" vertex="1" parent="XbuNJkuJVUiQV9hjVVE--139">
          <mxGeometry x="60" width="120" height="30" as="geometry">
            <mxRectangle width="120" height="30" as="alternateBounds" />
          </mxGeometry>
        </mxCell>
        <mxCell id="XbuNJkuJVUiQV9hjVVE--142" value="" style="shape=tableRow;horizontal=0;startSize=0;swimlaneHead=0;swimlaneBody=0;fillColor=none;collapsible=0;dropTarget=0;points=[[0,0.5],[1,0.5]];portConstraint=eastwest;top=0;left=0;right=0;bottom=0;html=1;" vertex="1" parent="XbuNJkuJVUiQV9hjVVE--132">
          <mxGeometry y="120" width="180" height="30" as="geometry" />
        </mxCell>
        <mxCell id="XbuNJkuJVUiQV9hjVVE--143" value="" style="shape=partialRectangle;connectable=0;fillColor=none;top=0;left=0;bottom=0;right=0;editable=1;overflow=hidden;html=1;whiteSpace=wrap;" vertex="1" parent="XbuNJkuJVUiQV9hjVVE--142">
          <mxGeometry width="60" height="30" as="geometry">
            <mxRectangle width="60" height="30" as="alternateBounds" />
          </mxGeometry>
        </mxCell>
        <mxCell id="XbuNJkuJVUiQV9hjVVE--144" value="NomeEvento" style="shape=partialRectangle;connectable=0;fillColor=none;top=0;left=0;bottom=0;right=0;align=left;spacingLeft=6;overflow=hidden;html=1;whiteSpace=wrap;" vertex="1" parent="XbuNJkuJVUiQV9hjVVE--142">
          <mxGeometry x="60" width="120" height="30" as="geometry">
            <mxRectangle width="120" height="30" as="alternateBounds" />
          </mxGeometry>
        </mxCell>
        <mxCell id="XbuNJkuJVUiQV9hjVVE--145" value="" style="shape=tableRow;horizontal=0;startSize=0;swimlaneHead=0;swimlaneBody=0;fillColor=none;collapsible=0;dropTarget=0;points=[[0,0.5],[1,0.5]];portConstraint=eastwest;top=0;left=0;right=0;bottom=0;html=1;" vertex="1" parent="XbuNJkuJVUiQV9hjVVE--132">
          <mxGeometry y="150" width="180" height="30" as="geometry" />
        </mxCell>
        <mxCell id="XbuNJkuJVUiQV9hjVVE--146" value="" style="shape=partialRectangle;connectable=0;fillColor=none;top=0;left=0;bottom=0;right=0;editable=1;overflow=hidden;html=1;whiteSpace=wrap;" vertex="1" parent="XbuNJkuJVUiQV9hjVVE--145">
          <mxGeometry width="60" height="30" as="geometry">
            <mxRectangle width="60" height="30" as="alternateBounds" />
          </mxGeometry>
        </mxCell>
        <mxCell id="XbuNJkuJVUiQV9hjVVE--147" value="Descricao" style="shape=partialRectangle;connectable=0;fillColor=none;top=0;left=0;bottom=0;right=0;align=left;spacingLeft=6;overflow=hidden;html=1;whiteSpace=wrap;" vertex="1" parent="XbuNJkuJVUiQV9hjVVE--145">
          <mxGeometry x="60" width="120" height="30" as="geometry">
            <mxRectangle width="120" height="30" as="alternateBounds" />
          </mxGeometry>
        </mxCell>
        <mxCell id="XbuNJkuJVUiQV9hjVVE--150" style="shape=tableRow;horizontal=0;startSize=0;swimlaneHead=0;swimlaneBody=0;fillColor=none;collapsible=0;dropTarget=0;points=[[0,0.5],[1,0.5]];portConstraint=eastwest;top=0;left=0;right=0;bottom=0;html=1;" vertex="1" parent="XbuNJkuJVUiQV9hjVVE--132">
          <mxGeometry y="180" width="180" height="30" as="geometry" />
        </mxCell>
        <mxCell id="XbuNJkuJVUiQV9hjVVE--151" style="shape=partialRectangle;connectable=0;fillColor=none;top=0;left=0;bottom=0;right=0;editable=1;overflow=hidden;html=1;whiteSpace=wrap;" vertex="1" parent="XbuNJkuJVUiQV9hjVVE--150">
          <mxGeometry width="60" height="30" as="geometry">
            <mxRectangle width="60" height="30" as="alternateBounds" />
          </mxGeometry>
        </mxCell>
        <mxCell id="XbuNJkuJVUiQV9hjVVE--152" value="DataEvento" style="shape=partialRectangle;connectable=0;fillColor=none;top=0;left=0;bottom=0;right=0;align=left;spacingLeft=6;overflow=hidden;html=1;whiteSpace=wrap;" vertex="1" parent="XbuNJkuJVUiQV9hjVVE--150">
          <mxGeometry x="60" width="120" height="30" as="geometry">
            <mxRectangle width="120" height="30" as="alternateBounds" />
          </mxGeometry>
        </mxCell>
        <mxCell id="XbuNJkuJVUiQV9hjVVE--148" value="" style="edgeStyle=entityRelationEdgeStyle;fontSize=12;html=1;endArrow=ERoneToMany;rounded=0;exitX=0;exitY=0.5;exitDx=0;exitDy=0;entryX=1.004;entryY=0.881;entryDx=0;entryDy=0;entryPerimeter=0;" edge="1" parent="1" source="XbuNJkuJVUiQV9hjVVE--66" target="XbuNJkuJVUiQV9hjVVE--136">
          <mxGeometry width="100" height="100" relative="1" as="geometry">
            <mxPoint x="1590" y="850" as="sourcePoint" />
            <mxPoint x="1690" y="750" as="targetPoint" />
          </mxGeometry>
        </mxCell>
        <mxCell id="XbuNJkuJVUiQV9hjVVE--149" value="" style="edgeStyle=entityRelationEdgeStyle;fontSize=12;html=1;endArrow=ERoneToMany;rounded=0;exitX=1;exitY=0.5;exitDx=0;exitDy=0;entryX=0;entryY=0.5;entryDx=0;entryDy=0;" edge="1" parent="1" source="XbuNJkuJVUiQV9hjVVE--59" target="XbuNJkuJVUiQV9hjVVE--139">
          <mxGeometry width="100" height="100" relative="1" as="geometry">
            <mxPoint x="1460" y="880" as="sourcePoint" />
            <mxPoint x="1690" y="750" as="targetPoint" />
          </mxGeometry>
        </mxCell>
      </root>
    </mxGraphModel>
  </diagram>
</mxfile>
